<svg width="24" height="24" viewBox="0 0 24 24" fill="none" xmlns="http://www.w3.org/2000/svg">
<path fill-rule="evenodd" clip-rule="evenodd" d="M11.65 3.25H5.16937C4.20744 3.25 3.41937 4.03807 3.41937 5V19C3.41937 19.9619 4.20744 20.75 5.16937 20.75H19.1694C20.1313 20.75 20.9194 19.9619 20.9194 19V5C20.9194 4.03807 20.1313 3.25 19.1694 3.25H18.65V4.75H19.1694H19.4194V5V19V19.25H19.1694H5.16937H4.91937V19V5V4.75H5.16937H11.65V3.25Z" fill="black"/>
<path d="M17.1694 6.20339C17.7831 5.65407 18.1694 4.85578 18.1694 3.96729C18.1694 2.31043 16.8262 0.967285 15.1694 0.967285C13.5125 0.967285 12.1694 2.31043 12.1694 3.96729C12.1694 4.85578 12.5556 5.65407 13.1694 6.20339V9.96729L15.1694 8.89586L17.1694 9.96729V6.20339Z" fill="black"/>
</svg>
