<svg width="24" height="24" viewBox="0 0 24 24" fill="none" xmlns="http://www.w3.org/2000/svg">
<rect opacity="0.25" x="2.87903" y="4.75" width="18.2419" height="14.5" rx="2" fill="black"/>
<path fill-rule="evenodd" clip-rule="evenodd" d="M4.00122 6.00006L4.00122 17.75L4.00122 18V6.00006ZM19.9988 18.2499L20.2488 18.2499V17.9999V6V5.75L19.9988 5.75L4.00122 5.75006L3.75122 5.75006V6.00006V18V18.25L4.00122 18.25L19.9988 18.2499ZM4.00122 4.25006L19.9988 4.25C20.9615 4.25 21.75 5.03822 21.75 6V17.9999C21.75 18.9617 20.9615 19.7499 19.9988 19.7499L4.00122 19.75C3.03848 19.75 2.25 18.9618 2.25 18V6.00006C2.25 5.03828 3.03848 4.25006 4.00122 4.25006Z" fill="black"/>
<path d="M7.79759 15H6.67259L8.72088 9.18182H10.022L12.0732 15H10.9482L9.39418 10.375H9.34872L7.79759 15ZM7.83452 12.7188H10.9027V13.5653H7.83452V12.7188ZM12.8395 15V9.18182H15.0668C15.4872 9.18182 15.8366 9.24811 16.1151 9.38068C16.3954 9.51136 16.6046 9.69034 16.7429 9.91761C16.883 10.1449 16.9531 10.4025 16.9531 10.6903C16.9531 10.9271 16.9077 11.1297 16.8168 11.2983C16.7259 11.465 16.6037 11.6004 16.4503 11.7045C16.2969 11.8087 16.1255 11.8835 15.9361 11.929V11.9858C16.1425 11.9972 16.3404 12.0606 16.5298 12.1761C16.7211 12.2898 16.8774 12.4508 16.9986 12.6591C17.1198 12.8674 17.1804 13.1193 17.1804 13.4148C17.1804 13.7159 17.1075 13.9867 16.9616 14.2273C16.8158 14.4659 16.5961 14.6544 16.3026 14.7926C16.009 14.9309 15.6397 15 15.1946 15H12.8395ZM13.8935 14.1193H15.027C15.4096 14.1193 15.6851 14.0464 15.8537 13.9006C16.0241 13.7528 16.1094 13.5634 16.1094 13.3324C16.1094 13.16 16.0668 13.0047 15.9815 12.8665C15.8963 12.7263 15.7751 12.6165 15.6179 12.5369C15.4607 12.4555 15.2732 12.4148 15.0554 12.4148H13.8935V14.1193ZM13.8935 11.6562H14.9361C15.1179 11.6562 15.2817 11.6231 15.4276 11.5568C15.5734 11.4886 15.688 11.393 15.7713 11.2699C15.8565 11.1449 15.8991 10.9972 15.8991 10.8267C15.8991 10.6013 15.8196 10.4157 15.6605 10.2699C15.5033 10.1241 15.2694 10.0511 14.9588 10.0511H13.8935V11.6562Z" fill="black"/>
</svg>
