<svg width="24" height="24" viewBox="0 0 24 24" fill="none" xmlns="http://www.w3.org/2000/svg">
<path d="M7.59055 15H6.46555L8.51385 9.18182H9.81499L11.8661 15H10.7411L9.18714 10.375H9.14169L7.59055 15ZM7.62749 12.7188H10.6957V13.5653H7.62749V12.7188ZM17.3391 11.1449H16.2766C16.2463 10.9706 16.1905 10.8163 16.109 10.6818C16.0276 10.5455 15.9263 10.4299 15.805 10.3352C15.6838 10.2405 15.5456 10.1695 15.3903 10.1222C15.2369 10.0729 15.0711 10.0483 14.8931 10.0483C14.5768 10.0483 14.2965 10.1278 14.0522 10.2869C13.8079 10.4441 13.6166 10.6752 13.4783 10.9801C13.3401 11.2831 13.271 11.6534 13.271 12.0909C13.271 12.536 13.3401 12.911 13.4783 13.2159C13.6185 13.5189 13.8098 13.7481 14.0522 13.9034C14.2965 14.0568 14.5759 14.1335 14.8903 14.1335C15.0645 14.1335 15.2274 14.1108 15.3789 14.0653C15.5323 14.018 15.6696 13.9489 15.7908 13.858C15.9139 13.767 16.0172 13.6553 16.1005 13.5227C16.1857 13.3902 16.2444 13.2386 16.2766 13.0682L17.3391 13.0739C17.2994 13.3504 17.2132 13.6098 17.0806 13.8523C16.9499 14.0947 16.7785 14.3087 16.5664 14.4943C16.3543 14.678 16.1062 14.822 15.8221 14.9261C15.538 15.0284 15.2227 15.0795 14.8761 15.0795C14.3647 15.0795 13.9083 14.9612 13.5067 14.7244C13.1052 14.4877 12.7889 14.1458 12.5579 13.6989C12.3268 13.2519 12.2113 12.7159 12.2113 12.0909C12.2113 11.464 12.3278 10.928 12.5607 10.483C12.7937 10.036 13.1109 9.69413 13.5124 9.45739C13.9139 9.22064 14.3685 9.10227 14.8761 9.10227C15.1999 9.10227 15.5011 9.14773 15.7795 9.23864C16.0579 9.32955 16.306 9.46307 16.5238 9.6392C16.7416 9.81345 16.9206 10.0275 17.0607 10.2812C17.2028 10.5331 17.2956 10.821 17.3391 11.1449Z" fill="black"/>
</svg>
