<svg width="24" height="24" viewBox="0 0 24 24" fill="none" xmlns="http://www.w3.org/2000/svg">
<path fill-rule="evenodd" clip-rule="evenodd" d="M11.9883 3.29C12.3983 3.29 12.7383 3.63 12.7383 4.04C12.7383 4.45 12.3983 4.79 11.9883 4.79C11.5783 4.79 11.2383 4.45 11.2383 4.04C11.2383 3.63 11.5783 3.29 11.9883 3.29ZM7 10V8.5H17V10H7ZM7 12.5V14H17V12.5H7ZM13.9998 18.0373H6.9998V16.5373H13.9998V18.0373ZM14.5849 4.08511L14.6446 4.25H14.82H19C19.9619 4.25 20.75 5.03807 20.75 6V20C20.75 20.9619 19.9619 21.75 19 21.75H5C4.87464 21.75 4.75924 21.7412 4.6442 21.7238C4.30903 21.6538 4.00531 21.4809 3.76914 21.2456C3.60565 21.0726 3.47596 20.8883 3.39077 20.6838C3.30224 20.4714 3.25 20.234 3.25 20V6C3.25 5.7561 3.3022 5.52993 3.38927 5.32968L3.38929 5.32969L3.39077 5.32615C3.47779 5.11731 3.60908 4.92447 3.76678 4.76678C4.0047 4.52885 4.31156 4.35437 4.65024 4.2849L4.65025 4.28497L4.65621 4.2836C4.76199 4.25919 4.87188 4.25 5 4.25H9.18H9.35537L9.41507 4.08511C9.80137 3.01817 10.8114 2.25 12 2.25C13.1886 2.25 14.1986 3.01817 14.5849 4.08511ZM19 20.25H19.25V20V6V5.75H19H5H4.75V6V20V20.25H5H19Z" fill="black"/>
</svg>
