<svg width="24" height="24" viewBox="0 0 24 24" fill="none" xmlns="http://www.w3.org/2000/svg">
<path fill-rule="evenodd" clip-rule="evenodd" d="M5.20647 5.42276C5.16557 5.41195 5.12261 5.40619 5.07831 5.40619C5.07831 5.40619 5.07831 5.40619 5.07831 5.40619H4.07831C4.05166 5.40619 4.0255 5.40827 3.99998 5.41229C3.76105 5.44988 3.57831 5.65669 3.57831 5.90619C3.57831 6.15568 3.76105 6.3625 3.99998 6.40009C4.01919 6.40311 4.03876 6.40504 4.05863 6.40581C4.06516 6.40606 4.07172 6.40619 4.07831 6.40619H5.07831C5.07831 6.40619 5.07831 6.40619 5.07831 6.40619C5.18837 6.40619 5.29012 6.37063 5.3727 6.31038C5.49733 6.21945 5.57831 6.07227 5.57831 5.90619C5.57831 5.67435 5.42052 5.47936 5.20647 5.42276ZM3.99998 7.40418C3.20796 7.36344 2.57831 6.70835 2.57831 5.90619C2.57831 5.10403 3.20796 4.44894 3.99998 4.4082V2.8C3.99998 2.35817 4.35816 2 4.79998 2H19.2C19.6418 2 20 2.35817 20 2.8V21.2C20 21.6418 19.6418 22 19.2 22H4.79998C4.35816 22 3.99998 21.6418 3.99998 21.2V19.9629C3.20796 19.9221 2.57831 19.267 2.57831 18.4649C2.57831 17.6627 3.20796 17.0076 3.99998 16.9669V15.7792C3.20796 15.7385 2.57831 15.0834 2.57831 14.2813C2.57831 13.4791 3.20796 12.824 3.99998 12.7833V11.6784C3.20797 11.6377 2.57832 10.9826 2.57832 10.1804C2.57832 9.3783 3.20797 8.72321 3.99998 8.68246V7.40418ZM5.49998 8.74053V7.34611C6.12313 7.16392 6.57831 6.58821 6.57831 5.90619C6.57831 5.22417 6.12313 4.64846 5.49998 4.46627V3.5H18.5V20.5H5.49998V19.9048C6.12313 19.7226 6.57831 19.1469 6.57831 18.4649C6.57831 17.7829 6.12313 17.2071 5.49998 17.025V15.7212C6.12313 15.539 6.57831 14.9633 6.57831 14.2813C6.57831 13.5992 6.12313 13.0235 5.49998 12.8413V11.6204C6.12314 11.4382 6.57832 10.8625 6.57832 10.1804C6.57832 9.49842 6.12314 8.92271 5.49998 8.74053ZM5.3223 9.74391C5.25013 9.70349 5.16692 9.68045 5.07833 9.68045C5.07833 9.68045 5.07833 9.68045 5.07832 9.68045H4.07833C4.07612 9.68045 4.07391 9.68046 4.07171 9.68049C4.04734 9.68081 4.02339 9.68287 3.99998 9.68655C3.76105 9.72414 3.57832 9.93096 3.57832 10.1804C3.57832 10.4299 3.76105 10.6367 3.99998 10.6743C4.01919 10.6774 4.03876 10.6793 4.05862 10.6801C4.06516 10.6803 4.07173 10.6804 4.07833 10.6804H5.07833C5.25552 10.6804 5.41118 10.5883 5.49998 10.4493C5.54958 10.3716 5.57832 10.2794 5.57832 10.1804C5.57832 9.9929 5.47507 9.82947 5.3223 9.74391ZM5.49998 14.0124C5.41118 13.8734 5.25551 13.7813 5.07831 13.7813H4.07831C4.07665 13.7813 4.07498 13.7813 4.07332 13.7813C4.0484 13.7815 4.02391 13.7836 3.99998 13.7874C3.76105 13.8249 3.57831 14.0318 3.57831 14.2813C3.57831 14.5307 3.76105 14.7376 3.99998 14.7752C4.0255 14.7792 4.05166 14.7813 4.07831 14.7813H5.07831C5.25551 14.7813 5.41118 14.6891 5.49998 14.5501C5.54957 14.4724 5.57831 14.3802 5.57831 14.2813C5.57831 14.1823 5.54957 14.0901 5.49998 14.0124ZM5.49998 18.1961C5.41118 18.0571 5.25551 17.9649 5.07831 17.9649H4.07831C4.07665 17.9649 4.07498 17.9649 4.07332 17.9649C4.0484 17.9651 4.02391 17.9672 3.99998 17.971C3.76105 18.0086 3.57831 18.2154 3.57831 18.4649C3.57831 18.7144 3.76105 18.9212 3.99998 18.9588C4.0255 18.9628 4.05166 18.9649 4.07831 18.9649H5.07831C5.25551 18.9649 5.41118 18.8727 5.49998 18.7337C5.54957 18.6561 5.57831 18.5638 5.57831 18.4649C5.57831 18.3659 5.54957 18.2737 5.49998 18.1961ZM8.17778 18.9649H17.1778V17.4649L8.17778 17.4649V18.9649ZM17.1778 15.9649L8.17778 15.9649V14.4649L17.1778 14.4649V15.9649Z" fill="black"/>
<path d="M12.6778 6C13.2278 6 13.6778 6.45 13.6778 7C13.6778 7.55 13.2278 8 12.6778 8C12.1278 8 11.6778 7.55 11.6778 7C11.6778 6.45 12.1278 6 12.6778 6ZM12.6778 11C14.0278 11 15.5778 11.645 15.6778 12H9.6778C9.7928 11.64 11.3328 11 12.6778 11ZM12.6778 5C11.5728 5 10.6778 5.895 10.6778 7C10.6778 8.105 11.5728 9 12.6778 9C13.7828 9 14.6778 8.105 14.6778 7C14.6778 5.895 13.7828 5 12.6778 5ZM12.6778 10C11.3428 10 8.6778 10.67 8.6778 12V13H16.6778V12C16.6778 10.67 14.0128 10 12.6778 10Z" fill="black"/>
</svg>
