<svg width="24" height="24" viewBox="0 0 24 24" fill="none" xmlns="http://www.w3.org/2000/svg">
<path fill-rule="evenodd" clip-rule="evenodd" d="M5.9282 6.57294V4.57294H3.5V6.57294H5.9282ZM7.4282 8.07294H6.6782H5.9282H3.5H2V6.57294V4.57294V3.07294H3.5H5.9282H6.6782H7.4282H20.5H22V4.57294V6.57294V8.07294H20.5H7.4282ZM20.5 6.57294H7.4282V4.57294H20.5V6.57294ZM5.9282 13.0001V11.0001H3.5V13.0001H5.9282ZM7.4282 14.5001H6.6782H5.9282H3.5H2V13.0001V11.0001V9.50006H3.5H5.9282H6.6782H7.4282H20.5H22V11.0001V13.0001V14.5001H20.5H7.4282ZM20.5 13.0001H7.4282V11.0001H20.5V13.0001ZM5.9282 17.4271V19.4271H3.5V17.4271H5.9282ZM6.6782 20.9271H7.4282H20.5H22V19.4271V17.4271V15.9271H20.5H7.4282H6.6782H5.9282H3.5H2V17.4271V19.4271V20.9271H3.5H5.9282H6.6782ZM7.4282 19.4271H20.5V17.4271H7.4282V19.4271Z" fill="black"/>
</svg>
