<svg width="24" height="24" viewBox="0 0 24 24" fill="none" xmlns="http://www.w3.org/2000/svg">
<rect opacity="0.25" x="2.87903" y="4.75" width="18.2419" height="14.5" rx="2" fill="black"/>
<path fill-rule="evenodd" clip-rule="evenodd" d="M4.00122 6.00006L4.00122 17.75L4.00122 18V6.00006ZM19.9988 18.2499L20.2488 18.2499V17.9999V6V5.75L19.9988 5.75L4.00122 5.75006L3.75122 5.75006V6.00006V18V18.25L4.00122 18.25L19.9988 18.2499ZM4.00122 4.25006L19.9988 4.25C20.9615 4.25 21.75 5.03822 21.75 6V17.9999C21.75 18.9617 20.9615 19.7499 19.9988 19.7499L4.00122 19.75C3.03848 19.75 2.25 18.9618 2.25 18V6.00006C2.25 5.03828 3.03848 4.25006 4.00122 4.25006Z" fill="black"/>
<path d="M7.52805 15H6.40305L8.45135 9.18182H9.75249L11.8036 15H10.6786L9.12464 10.375H9.07919L7.52805 15ZM7.56499 12.7188H10.6332V13.5653H7.56499V12.7188ZM14.5415 15H12.57V9.18182H14.5813C15.159 9.18182 15.6552 9.2983 16.07 9.53125C16.4866 9.76231 16.8067 10.0947 17.0302 10.5284C17.2537 10.9621 17.3654 11.4811 17.3654 12.0852C17.3654 12.6913 17.2527 13.2121 17.0273 13.6477C16.8039 14.0833 16.4809 14.4176 16.0586 14.6506C15.6381 14.8835 15.1325 15 14.5415 15ZM13.6239 14.0881H14.4904C14.8957 14.0881 15.2338 14.0142 15.5046 13.8665C15.7754 13.7169 15.979 13.4943 16.1154 13.1989C16.2518 12.9015 16.32 12.5303 16.32 12.0852C16.32 11.6402 16.2518 11.2708 16.1154 10.9773C15.979 10.6818 15.7773 10.4612 15.5103 10.3153C15.2451 10.1676 14.9156 10.0938 14.5217 10.0938H13.6239V14.0881Z" fill="black"/>
</svg>
