<svg width="24" height="24" viewBox="0 0 24 24" fill="none" xmlns="http://www.w3.org/2000/svg">
<path d="M7.54368 15H6.41868L8.46697 9.18182H9.76811L11.8192 15H10.6942L9.14027 10.375H9.09482L7.54368 15ZM7.58061 12.7188H10.6488V13.5653H7.58061V12.7188ZM16.2099 11.0398C16.1625 10.8864 16.0972 10.7491 16.0138 10.6278C15.9324 10.5047 15.8339 10.3996 15.7184 10.3125C15.6048 10.2254 15.4741 10.16 15.3263 10.1165C15.1786 10.071 15.0176 10.0483 14.8434 10.0483C14.5309 10.0483 14.2525 10.1269 14.0082 10.2841C13.7638 10.4413 13.5716 10.6723 13.4315 10.9773C13.2932 11.2803 13.2241 11.6496 13.2241 12.0852C13.2241 12.5246 13.2932 12.8968 13.4315 13.2017C13.5697 13.5066 13.762 13.7386 14.0082 13.8977C14.2544 14.0549 14.5404 14.1335 14.8661 14.1335C15.1616 14.1335 15.4173 14.0767 15.6332 13.9631C15.851 13.8494 16.0186 13.6884 16.136 13.4801C16.2534 13.2699 16.3121 13.0237 16.3121 12.7415L16.5508 12.7784H14.9712V11.9545H17.332V12.6534C17.332 13.1515 17.226 13.5824 17.0138 13.946C16.8017 14.3097 16.5101 14.59 16.1388 14.7869C15.7676 14.982 15.3415 15.0795 14.8604 15.0795C14.3245 15.0795 13.8538 14.9593 13.4485 14.7188C13.0451 14.4763 12.7298 14.1326 12.5025 13.6875C12.2771 13.2405 12.1644 12.7102 12.1644 12.0966C12.1644 11.6269 12.2307 11.2074 12.3633 10.8381C12.4978 10.4688 12.6853 10.1553 12.9258 9.89773C13.1663 9.63826 13.4485 9.44129 13.7724 9.30682C14.0962 9.17045 14.4485 9.10227 14.8292 9.10227C15.1512 9.10227 15.4513 9.14962 15.7298 9.24432C16.0082 9.33712 16.2553 9.4697 16.4712 9.64205C16.689 9.81439 16.868 10.0189 17.0082 10.2557C17.1483 10.4924 17.2402 10.7538 17.2837 11.0398H16.2099Z" fill="black"/>
</svg>
