<svg width="24" height="24" viewBox="0 0 24 24" fill="none" xmlns="http://www.w3.org/2000/svg">
<path d="M9.91089 8.95679C9.91089 9.2644 9.99146 9.55493 10.1526 9.82837C10.3186 10.1018 10.5481 10.3923 10.8411 10.7C11.3928 10.3875 11.7786 10.0969 11.9983 9.82837C12.2229 9.55493 12.3352 9.24976 12.3352 8.91284C12.3352 8.59546 12.2278 8.34155 12.0129 8.15112C11.803 7.96069 11.5222 7.86548 11.1707 7.86548C10.7849 7.86548 10.4773 7.96558 10.2478 8.16577C10.0232 8.36108 9.91089 8.62476 9.91089 8.95679ZM11.0022 16.0247C11.8958 16.0247 12.6599 15.7634 13.2947 15.241L10.4895 12.4797C9.97192 12.8118 9.61548 13.1243 9.42017 13.4172C9.22485 13.7053 9.1272 14.0349 9.1272 14.406C9.1272 14.8845 9.29565 15.2751 9.63257 15.5779C9.97437 15.8757 10.4309 16.0247 11.0022 16.0247ZM7.31079 14.5232C7.31079 13.8835 7.46704 13.3269 7.77954 12.8533C8.09204 12.3748 8.65601 11.9011 9.47144 11.4324C9.00757 10.8904 8.69019 10.4338 8.51929 10.0627C8.35327 9.68677 8.27026 9.29858 8.27026 8.89819C8.27026 8.15601 8.53394 7.57007 9.06128 7.14038C9.59351 6.71069 10.3064 6.49585 11.2 6.49585C12.0642 6.49585 12.7429 6.70581 13.2361 7.12573C13.7292 7.54077 13.9758 8.10229 13.9758 8.8103C13.9758 9.36694 13.8098 9.87231 13.4778 10.3264C13.1506 10.7805 12.6013 11.2346 11.8298 11.6887L14.364 14.135C14.7595 13.6125 15.0891 12.8459 15.3528 11.8352H17.1252C16.7834 13.2219 16.2366 14.3523 15.4846 15.2263L17.6892 17.3577H15.47L14.3787 16.2957C13.8806 16.696 13.3484 16.9988 12.782 17.2039C12.2205 17.4041 11.5979 17.5042 10.9143 17.5042C9.79126 17.5042 8.90991 17.238 8.27026 16.7058C7.63062 16.1736 7.31079 15.446 7.31079 14.5232Z" fill="black"/>
</svg>
