<svg width="24" height="24" viewBox="0 0 24 24" fill="none" xmlns="http://www.w3.org/2000/svg">
<path d="M7.87571 15H6.75071L8.79901 9.18182H10.1001L12.1513 15H11.0263L9.4723 10.375H9.42685L7.87571 15ZM7.91264 12.7188H10.9808V13.5653H7.91264V12.7188ZM15.9858 10.7812C15.9593 10.5331 15.8475 10.34 15.6506 10.2017C15.4555 10.0634 15.2017 9.99432 14.8892 9.99432C14.6695 9.99432 14.4811 10.0275 14.3239 10.0938C14.1667 10.16 14.0464 10.25 13.9631 10.3636C13.8797 10.4773 13.8371 10.607 13.8352 10.7528C13.8352 10.8741 13.8627 10.9792 13.9176 11.0682C13.9744 11.1572 14.0511 11.233 14.1477 11.2955C14.2443 11.3561 14.3513 11.4072 14.4688 11.4489C14.5862 11.4905 14.7045 11.5256 14.8239 11.554L15.3693 11.6903C15.589 11.7415 15.8002 11.8106 16.0028 11.8977C16.2074 11.9848 16.3902 12.0947 16.5511 12.2273C16.714 12.3598 16.8428 12.5199 16.9375 12.7074C17.0322 12.8949 17.0795 13.1146 17.0795 13.3665C17.0795 13.7074 16.9924 14.0076 16.8182 14.267C16.6439 14.5246 16.392 14.7263 16.0625 14.8722C15.7348 15.0161 15.3381 15.0881 14.8722 15.0881C14.4195 15.0881 14.0265 15.018 13.6932 14.8778C13.3617 14.7377 13.1023 14.5331 12.9148 14.2642C12.7292 13.9953 12.6288 13.6676 12.6136 13.2812H13.6506C13.6657 13.4839 13.7282 13.6525 13.8381 13.7869C13.9479 13.9214 14.0909 14.0218 14.267 14.0881C14.4451 14.1544 14.6439 14.1875 14.8636 14.1875C15.0928 14.1875 15.2936 14.1534 15.4659 14.0852C15.6402 14.0152 15.7765 13.9186 15.875 13.7955C15.9735 13.6705 16.0237 13.5246 16.0256 13.358C16.0237 13.2064 15.9792 13.0814 15.892 12.983C15.8049 12.8826 15.6828 12.7992 15.5256 12.733C15.3703 12.6648 15.1884 12.6042 14.9801 12.5511L14.3182 12.3807C13.839 12.2576 13.4602 12.071 13.1818 11.821C12.9053 11.5691 12.767 11.2348 12.767 10.8182C12.767 10.4754 12.8598 10.1752 13.0455 9.91761C13.233 9.66004 13.4877 9.46023 13.8097 9.31818C14.1316 9.17424 14.4962 9.10227 14.9034 9.10227C15.3163 9.10227 15.678 9.17424 15.9886 9.31818C16.3011 9.46023 16.5464 9.65814 16.7244 9.91193C16.9025 10.1638 16.9943 10.4536 17 10.7812H15.9858Z" fill="black"/>
</svg>
