<svg width="24" height="24" viewBox="0 0 24 24" fill="none" xmlns="http://www.w3.org/2000/svg">
<path fill-rule="evenodd" clip-rule="evenodd" d="M6 2.25H13.8964L19.75 8.10355V20C19.75 20.9619 18.9619 21.75 18 21.75H5.99C5.02975 21.75 4.25008 20.9636 4.25 20.0002V20L4.26 4.00016V4C4.26 3.03644 5.0397 2.25 6 2.25ZM18 20.25H18.25V20V9V8.75H18H13.25V4V3.75H13.0813H13H6H5.75V4V17.24V20V20.25H6H18Z" fill="black"/>
<path fill-rule="evenodd" clip-rule="evenodd" d="M9.91937 15C9.91937 16.2381 10.9313 17.25 12.1694 17.25C13.4074 17.25 14.4194 16.2381 14.4194 15V11.25H15.9194V15C15.9194 17.0719 14.2413 18.75 12.1694 18.75C10.0974 18.75 8.41937 17.0719 8.41937 15V9.5C8.41937 8.25807 9.42744 7.25 10.6694 7.25C11.9113 7.25 12.9194 8.25807 12.9194 9.5V14.75H11.4194V9.5C11.4194 9.08193 11.0874 8.75 10.6694 8.75C10.2513 8.75 9.91937 9.08193 9.91937 9.5V15Z" fill="black"/>
</svg>
