<svg width="24" height="24" viewBox="0 0 24 24" fill="none" xmlns="http://www.w3.org/2000/svg">
<rect opacity="0.25" x="2.87903" y="4.75" width="18.2419" height="14.5" rx="2" fill="black"/>
<path fill-rule="evenodd" clip-rule="evenodd" d="M4.00122 6.00006L4.00122 17.75L4.00122 18V6.00006ZM19.9988 18.2499L20.2488 18.2499V17.9999V6V5.75L19.9988 5.75L4.00122 5.75006L3.75122 5.75006V6.00006V18V18.25L4.00122 18.25L19.9988 18.2499ZM4.00122 4.25006L19.9988 4.25C20.9615 4.25 21.75 5.03822 21.75 6V17.9999C21.75 18.9617 20.9615 19.7499 19.9988 19.7499L4.00122 19.75C3.03848 19.75 2.25 18.9618 2.25 18V6.00006C2.25 5.03828 3.03848 4.25006 4.00122 4.25006Z" fill="black"/>
<path d="M7.66477 15H6.53977L8.58807 9.18182H9.8892L11.9403 15H10.8153L9.26136 10.375H9.21591L7.66477 15ZM7.7017 12.7188H10.7699V13.5653H7.7017V12.7188ZM13.5874 9.18182L14.8686 11.3125H14.9141L16.201 9.18182H17.4027L15.6101 12.0909L17.4311 15H16.2095L14.9141 12.8835H14.8686L13.5732 15H12.3572L14.1953 12.0909L12.38 9.18182H13.5874Z" fill="black"/>
</svg>
