<svg width="24" height="24" viewBox="0 0 24 24" fill="none" xmlns="http://www.w3.org/2000/svg">
<rect opacity="0.1" x="3.75" y="5.74512" width="16.5" height="12.5" fill="black"/>
<path opacity="0.4" fill-rule="evenodd" clip-rule="evenodd" d="M4.00122 6.00006L4.00122 17.75L4.00122 18V6.00006ZM19.9988 18.2499L20.2488 18.2499V17.9999V6V5.75L19.9988 5.75L4.00122 5.75006L3.75122 5.75006V6.00006V18V18.25L4.00122 18.25L19.9988 18.2499ZM4.00122 4.25006L19.9988 4.25C20.9615 4.25 21.75 5.03822 21.75 6V17.9999C21.75 18.9617 20.9615 19.7499 19.9988 19.7499L4.00122 19.75C3.03848 19.75 2.25 18.9618 2.25 18V6.00006C2.25 5.03828 3.03848 4.25006 4.00122 4.25006Z" fill="black"/>
<path opacity="0.4" d="M7.66477 14.9951H6.53977L8.58807 9.17694H9.8892L11.9403 14.9951H10.8153L9.26136 10.3701H9.21591L7.66477 14.9951ZM7.7017 12.7139H10.7699V13.5605H7.7017V12.7139ZM13.5874 9.17694L14.8686 11.3076H14.9141L16.201 9.17694H17.4027L15.6101 12.086L17.4311 14.9951H16.2095L14.9141 12.8786H14.8686L13.5732 14.9951H12.3572L14.1953 12.086L12.38 9.17694H13.5874Z" fill="black"/>
</svg>
