<svg width="24" height="24" viewBox="0 0 24 24" fill="none" xmlns="http://www.w3.org/2000/svg">
<path d="M16.2108 16.3733L13.8886 15.3527C13.8092 15.3161 13.7175 15.2916 13.6197 15.2916H13.2225V12.5416C13.2225 11.6983 12.5381 11.0139 11.6947 11.0139C10.8514 11.0139 10.1669 11.6983 10.1669 12.5416V17.5222L9.02417 17.2777C8.90806 17.2594 8.40083 17.1861 7.96694 17.62L7.11139 18.4816L10.2403 21.6533C10.4664 21.8855 10.7781 22.0139 11.1019 22.0139H15.1047C15.7036 22.0139 16.2108 21.5861 16.3086 20.9933L16.8708 17.6689C16.9625 17.1433 16.6936 16.6177 16.2108 16.3733ZM15.1047 20.7916H11.1019L8.84083 18.4816L11.3892 19.0255V12.5416C11.3892 12.3705 11.5236 12.2361 11.6947 12.2361C11.8658 12.2361 12.0003 12.3705 12.0003 12.5416V16.3183H13.0758L15.6669 17.4672L15.1047 20.7916Z" fill="black"/>
<path fill-rule="evenodd" clip-rule="evenodd" d="M19.4194 18.25H19.1694H18.3801V19.75H19.1694C20.1313 19.75 20.9194 18.9619 20.9194 18V6C20.9194 5.03726 20.1405 4.25 19.1694 4.25H5.16937C4.19826 4.25 3.41937 5.03726 3.41937 6V18C3.41937 18.9627 4.19826 19.75 5.16937 19.75H6.02936V18.25H5.16937H4.91937V18V8V7.75H5.16937H19.1694H19.4194V8V18V18.25Z" fill="black"/>
</svg>
