<svg width="24" height="24" viewBox="0 0 24 24" fill="none" xmlns="http://www.w3.org/2000/svg">
<path d="M16.2108 17.3594L13.8886 16.3389C13.8092 16.3022 13.7175 16.2778 13.6197 16.2778H13.2225V13.5278C13.2225 12.6844 12.5381 12 11.6947 12C10.8514 12 10.1669 12.6844 10.1669 13.5278V18.5083L9.02417 18.2639C8.90806 18.2456 8.40083 18.1722 7.96694 18.6061L7.11139 19.4678L10.2403 22.6394C10.4664 22.8717 10.7781 23 11.1019 23H15.1047C15.7036 23 16.2108 22.5722 16.3086 21.9794L16.8708 18.655C16.9625 18.1294 16.6936 17.6039 16.2108 17.3594ZM15.1047 21.7778H11.1019L8.84083 19.4678L11.3892 20.0117V13.5278C11.3892 13.3567 11.5236 13.2222 11.6947 13.2222C11.8658 13.2222 12.0003 13.3567 12.0003 13.5278V17.3044H13.0758L15.6669 18.4533L15.1047 21.7778Z" fill="black"/>
<path fill-rule="evenodd" clip-rule="evenodd" d="M20.9194 8.58575V6C20.9194 5.03726 20.1405 4.25 19.1694 4.25H5.16937C4.19826 4.25 3.41937 5.03726 3.41937 6V18C3.41937 18.9627 4.19826 19.75 5.16937 19.75H6.02936V18.25H5.16937H4.91937V18V8V7.75H5.16937H19.1694H19.4194V8V8.58575H20.9194Z" fill="black"/>
<path fill-rule="evenodd" clip-rule="evenodd" d="M21.9442 14.0759L21.9266 14.2172L22.0391 14.3045L22.9779 15.0327L22.1023 16.5476L21.0028 16.1078L20.8675 16.0537L20.7538 16.1447C20.5517 16.3063 20.3125 16.4393 20.0573 16.5499L19.9291 16.6055L19.9092 16.7437L19.7426 17.9014H17.9881L17.8214 16.7437L17.8006 16.599L17.6642 16.5462C17.4133 16.449 17.1829 16.31 16.9642 16.1417L16.8508 16.0546L16.7182 16.108L15.6283 16.5475L14.7527 15.0326L15.6835 14.3038L15.795 14.2165L15.7774 14.0759C15.7608 13.943 15.7524 13.8099 15.7524 13.6675C15.7524 13.5252 15.7608 13.3921 15.7774 13.2591L15.795 13.1186L15.6835 13.0313L14.7527 12.3025L15.6283 10.7876L16.7182 11.227L16.8508 11.2805L16.9642 11.1933C17.1775 11.0293 17.4186 10.8955 17.6734 10.7852L17.8015 10.7296L17.8214 10.5914L17.9881 9.43372H19.7336L19.9002 10.5914L19.9211 10.7361L20.0574 10.7889C20.3084 10.886 20.5388 11.0251 20.7575 11.1933L20.8708 11.2805L21.0034 11.227L22.0933 10.7876L22.969 12.3025L22.0382 13.0313L21.9186 13.1249L21.9466 13.2742C21.9698 13.3977 21.9782 13.5248 21.9782 13.6675C21.9782 13.802 21.9624 13.9305 21.9442 14.0759ZM17.2702 13.6675C17.2702 14.5499 17.9829 15.2627 18.8653 15.2627C19.7477 15.2627 20.4605 14.5499 20.4605 13.6675C20.4605 12.7852 19.7477 12.0724 18.8653 12.0724C17.9829 12.0724 17.2702 12.7852 17.2702 13.6675Z" fill="black"/>
</svg>
