<svg width="24" height="24" viewBox="0 0 24 24" fill="none" xmlns="http://www.w3.org/2000/svg">
<path fill-rule="evenodd" clip-rule="evenodd" d="M14 6.75H14.25V6.5V4.5V4.25H14H10H9.75V4.5V6.5V6.75H10H14ZM4 8.25H3.75V8.5V19.5V19.75H4H20H20.25V19.5V8.5V8.25H20H4ZM2.26 8.50023L2.25 19.5V19.5001C2.25006 20.472 3.02811 21.25 4 21.25H20C20.9719 21.25 21.75 20.4719 21.75 19.5V8.5C21.75 7.52807 20.9719 6.75 20 6.75H16H15.75V6.5V4.5C15.75 3.52807 14.9719 2.75 14 2.75H10C9.02807 2.75 8.25 3.52807 8.25 4.5V6.5V6.75H8H4C3.02971 6.75 2.26 7.52643 2.26 8.5V8.50023Z" fill="black"/>
<path d="M12.1 9.5L8.5 10.85V13.5905C8.5 15.863 10.0345 17.9825 12.1 18.5C14.1655 17.9825 15.7 15.863 15.7 13.5905V10.85L12.1 9.5Z" fill="black"/>
</svg>
