<svg width="24" height="24" viewBox="0 0 24 24" fill="none" xmlns="http://www.w3.org/2000/svg">
<path d="M16.04 13.81C17.2 14.65 18 15.77 18 17.25V19H22V17.25C22 15.23 18.5 14.08 16.04 13.81ZM15 12C16.93 12 18.5 10.43 18.5 8.5C18.5 6.57 16.93 5 15 5C14.46 5 13.96 5.13 13.5 5.35C14.13 6.24 14.5 7.33 14.5 8.5C14.5 9.67 14.13 10.76 13.5 11.65C13.96 11.87 14.46 12 15 12Z" fill="black"/>
<path fill-rule="evenodd" clip-rule="evenodd" d="M10.9816 8.5C10.9816 9.60457 10.0862 10.5 8.98159 10.5C7.87702 10.5 6.98159 9.60457 6.98159 8.5C6.98159 7.39543 7.87702 6.5 8.98159 6.5C10.0862 6.5 10.9816 7.39543 10.9816 8.5ZM12.4816 8.5C12.4816 10.433 10.9146 12 8.98159 12C7.04859 12 5.48159 10.433 5.48159 8.5C5.48159 6.567 7.04859 5 8.98159 5C10.9146 5 12.4816 6.567 12.4816 8.5ZM16.7509 17.6219C16.7408 17.5811 16.7298 17.5405 16.718 17.5C16.0734 15.3026 12.8549 13.6323 8.98159 13.6323C5.10827 13.6323 1.88983 15.3026 1.24523 17.5C1.23337 17.5405 1.22238 17.5811 1.21227 17.6219C1.15655 17.8468 1.12769 18.0768 1.12769 18.3109C1.12769 18.5451 1.15655 18.7751 1.21227 19H16.7509C16.8066 18.7751 16.8355 18.5451 16.8355 18.3109C16.8355 18.0768 16.8066 17.8468 16.7509 17.6219ZM4.19571 16.2913C3.52295 16.6921 3.10833 17.1113 2.87579 17.5H15.0874C14.8549 17.1113 14.4402 16.6921 13.7675 16.2913C12.6157 15.6052 10.9272 15.1323 8.98159 15.1323C7.03604 15.1323 5.3475 15.6052 4.19571 16.2913Z" fill="black"/>
</svg>
