<svg width="24" height="24" viewBox="0 0 24 24" fill="none" xmlns="http://www.w3.org/2000/svg">
<path fill-rule="evenodd" clip-rule="evenodd" d="M10.9816 8.5C10.9816 9.60457 10.0862 10.5 8.98159 10.5C7.87702 10.5 6.98159 9.60457 6.98159 8.5C6.98159 7.39543 7.87702 6.5 8.98159 6.5C10.0862 6.5 10.9816 7.39543 10.9816 8.5ZM12.4816 8.5C12.4816 10.433 10.9146 12 8.98159 12C7.04859 12 5.48159 10.433 5.48159 8.5C5.48159 6.567 7.04859 5 8.98159 5C10.9146 5 12.4816 6.567 12.4816 8.5ZM12.7275 14.1977C11.6141 13.8372 10.338 13.6323 8.98159 13.6323C5.10827 13.6323 1.88983 15.3026 1.24523 17.5C1.23337 17.5405 1.22238 17.5811 1.21227 17.6219C1.15655 17.8468 1.12769 18.0768 1.12769 18.3109C1.12769 18.5451 1.15655 18.7751 1.21227 19H11.5765C11.5261 18.674 11.5 18.3401 11.5 18C11.5 17.8318 11.5064 17.665 11.5189 17.5H2.87579C3.10833 17.1113 3.52295 16.6921 4.19571 16.2913C5.3475 15.6052 7.03604 15.1323 8.98159 15.1323C10.0807 15.1323 11.0977 15.2832 11.9824 15.5383C12.1781 15.0603 12.4291 14.6108 12.7275 14.1977ZM16.4473 11.6866C16.1714 11.7542 15.9024 11.8395 15.6416 11.9411C15.4336 11.9798 15.2191 12 15 12C14.46 12 13.96 11.87 13.5 11.65C14.13 10.76 14.5 9.67 14.5 8.5C14.5 7.33 14.13 6.24 13.5 5.35C13.96 5.13 14.46 5 15 5C16.93 5 18.5 6.57 18.5 8.5C18.5 9.91413 17.6571 11.135 16.4473 11.6866Z" fill="black"/>
<path d="M18.0887 21.1396C18.0168 21.2116 17.8889 21.2236 17.8049 21.1396C17.733 21.0677 17.721 20.9398 17.8049 20.8559L19.1599 19.5009L18.5963 18.9373L17.2413 20.2923C17.1654 20.3722 17.0375 20.3682 16.9576 20.2923C16.8736 20.2083 16.8856 20.0804 16.9576 20.0085L18.3125 18.6535L17.749 18.0899L16.394 19.4449C16.322 19.5169 16.1941 19.5289 16.1102 19.4449C16.0343 19.369 16.0343 19.2411 16.1102 19.1611L17.4652 17.8062L16.8976 17.2426L15.5426 18.5976C15.4707 18.6695 15.3428 18.6815 15.2588 18.5976C15.1829 18.5176 15.1829 18.3937 15.2588 18.3138L17.0095 16.5631L17.757 17.3065C18.1367 17.6862 18.7922 17.6822 19.1719 17.3065C19.5636 16.9148 19.5636 16.2833 19.1719 15.8916L18.4285 15.1481L18.5404 15.0362C18.8521 14.7245 19.3598 14.7245 19.6715 15.0362L21.3662 16.731C21.678 17.0427 21.678 17.5503 21.3662 17.8621L18.0887 21.1396ZM21.9298 18.4297C22.5534 17.8062 22.5534 16.7949 21.9298 16.1674L20.2351 14.4727C19.6116 13.8491 18.6003 13.8491 17.9728 14.4727L17.8609 14.5846L17.749 14.4727C17.1254 13.8491 16.1142 13.8491 15.4867 14.4727L14.0717 15.8876C13.5042 16.4552 13.4522 17.3385 13.9118 17.962L14.4914 17.3825C14.3355 17.0827 14.3875 16.703 14.6393 16.4512L16.0542 15.0362C16.366 14.7245 16.8736 14.7245 17.1854 15.0362L18.6083 16.4592C18.6803 16.5311 18.6923 16.659 18.6083 16.7429C18.5244 16.8269 18.3965 16.8149 18.3245 16.7429L17.0095 15.4319L14.6913 17.7462C14.2996 18.1339 14.2996 18.7694 14.6913 19.1611C14.8471 19.317 15.047 19.4129 15.2588 19.4409C15.2868 19.6488 15.3787 19.8486 15.5386 20.0085C15.6985 20.1684 15.8984 20.2603 16.1062 20.2883C16.1342 20.4961 16.2261 20.696 16.386 20.8559C16.5459 21.0157 16.7457 21.1077 16.9536 21.1357C16.9815 21.3515 17.0775 21.5473 17.2334 21.7032C17.4212 21.8911 17.673 21.995 17.9408 21.995C18.2086 21.995 18.4604 21.8911 18.6483 21.7032L21.9298 18.4297Z" fill="black"/>
</svg>
