<svg width="24" height="24" viewBox="0 0 24 24" fill="none" xmlns="http://www.w3.org/2000/svg">
<path fill-rule="evenodd" clip-rule="evenodd" d="M14 6.75H14.25V6.5V4.5V4.25H14H10H9.75V4.5V6.5V6.75H10H14ZM4 8.25H3.75V8.5V19.5V19.75H4H20H20.25V19.5V8.5V8.25H20H4ZM2.26 8.50023L2.25 19.5V19.5001C2.25006 20.472 3.02811 21.25 4 21.25H20C20.9719 21.25 21.75 20.4719 21.75 19.5V8.5C21.75 7.52807 20.9719 6.75 20 6.75H16H15.75V6.5V4.5C15.75 3.52807 14.9719 2.75 14 2.75H10C9.02807 2.75 8.25 3.52807 8.25 4.5V6.5V6.75H8H4C3.02971 6.75 2.26 7.52643 2.26 8.5V8.50023Z" fill="black"/>
<path d="M7.33333 14.5833C7.975 14.5833 8.5 14.0583 8.5 13.4167C8.5 12.775 7.975 12.25 7.33333 12.25C6.69167 12.25 6.16667 12.775 6.16667 13.4167C6.16667 14.0583 6.69167 14.5833 7.33333 14.5833ZM7.9925 15.225C7.77667 15.19 7.56083 15.1667 7.33333 15.1667C6.75583 15.1667 6.2075 15.2892 5.71167 15.505C5.28 15.6917 5 16.1117 5 16.5842V17.5H7.625V16.5608C7.625 16.0767 7.75917 15.6217 7.9925 15.225ZM16.6667 14.5833C17.3083 14.5833 17.8333 14.0583 17.8333 13.4167C17.8333 12.775 17.3083 12.25 16.6667 12.25C16.025 12.25 15.5 12.775 15.5 13.4167C15.5 14.0583 16.025 14.5833 16.6667 14.5833ZM19 16.5842C19 16.1117 18.72 15.6917 18.2883 15.505C17.7925 15.2892 17.2442 15.1667 16.6667 15.1667C16.4392 15.1667 16.2233 15.19 16.0075 15.225C16.2408 15.6217 16.375 16.0767 16.375 16.5608V17.5H19V16.5842ZM14.4733 14.9625C13.7908 14.6592 12.9508 14.4375 12 14.4375C11.0492 14.4375 10.2092 14.665 9.52667 14.9625C8.89667 15.2425 8.5 15.8725 8.5 16.5608V17.5H15.5V16.5608C15.5 15.8725 15.1033 15.2425 14.4733 14.9625ZM9.7075 16.3333C9.76 16.1992 9.78333 16.1058 10.2383 15.9308C10.8042 15.7092 11.3992 15.6042 12 15.6042C12.6008 15.6042 13.1958 15.7092 13.7617 15.9308C14.2108 16.1058 14.2342 16.1992 14.2925 16.3333H9.7075ZM12 11.6667C12.3208 11.6667 12.5833 11.9292 12.5833 12.25C12.5833 12.5708 12.3208 12.8333 12 12.8333C11.6792 12.8333 11.4167 12.5708 11.4167 12.25C11.4167 11.9292 11.6792 11.6667 12 11.6667ZM12 10.5C11.0317 10.5 10.25 11.2817 10.25 12.25C10.25 13.2183 11.0317 14 12 14C12.9683 14 13.75 13.2183 13.75 12.25C13.75 11.2817 12.9683 10.5 12 10.5Z" fill="black"/>
</svg>
