<svg width="24" height="24" viewBox="0 0 24 24" fill="none" xmlns="http://www.w3.org/2000/svg">
<path d="M14.5813 11.1449H13.5188C13.4885 10.9706 13.4326 10.8163 13.3512 10.6818C13.2698 10.5455 13.1684 10.4299 13.0472 10.3352C12.926 10.2405 12.7878 10.1695 12.6325 10.1222C12.479 10.0729 12.3133 10.0483 12.1353 10.0483C11.819 10.0483 11.5387 10.1278 11.2944 10.2869C11.0501 10.4441 10.8588 10.6752 10.7205 10.9801C10.5823 11.2831 10.5131 11.6534 10.5131 12.0909C10.5131 12.536 10.5823 12.911 10.7205 13.2159C10.8607 13.5189 11.052 13.7481 11.2944 13.9034C11.5387 14.0568 11.8181 14.1335 12.1325 14.1335C12.3067 14.1335 12.4696 14.1108 12.6211 14.0653C12.7745 14.018 12.9118 13.9489 13.033 13.858C13.1561 13.767 13.2594 13.6553 13.3427 13.5227C13.4279 13.3902 13.4866 13.2386 13.5188 13.0682L14.5813 13.0739C14.5415 13.3504 14.4554 13.6098 14.3228 13.8523C14.1921 14.0947 14.0207 14.3087 13.8086 14.4943C13.5965 14.678 13.3484 14.822 13.0643 14.9261C12.7802 15.0284 12.4648 15.0795 12.1183 15.0795C11.6069 15.0795 11.1504 14.9612 10.7489 14.7244C10.3474 14.4877 10.0311 14.1458 9.80007 13.6989C9.56901 13.2519 9.45348 12.7159 9.45348 12.0909C9.45348 11.464 9.56996 10.928 9.80291 10.483C10.0359 10.036 10.3531 9.69413 10.7546 9.45739C11.1561 9.22064 11.6107 9.10227 12.1183 9.10227C12.4421 9.10227 12.7433 9.14773 13.0217 9.23864C13.3001 9.32955 13.5482 9.46307 13.766 9.6392C13.9838 9.81345 14.1628 10.0275 14.3029 10.2812C14.445 10.5331 14.5378 10.821 14.5813 11.1449Z" fill="black"/>
</svg>
