<svg width="24" height="24" viewBox="0 0 24 24" fill="none" xmlns="http://www.w3.org/2000/svg">
<path d="M11.7219 11.1449H10.6594C10.6291 10.9706 10.5733 10.8163 10.4918 10.6818C10.4104 10.5455 10.3091 10.4299 10.1879 10.3352C10.0666 10.2405 9.92839 10.1695 9.77308 10.1222C9.61967 10.0729 9.45395 10.0483 9.27592 10.0483C8.95964 10.0483 8.67933 10.1278 8.43501 10.2869C8.1907 10.4441 7.99941 10.6752 7.86115 10.9801C7.72289 11.2831 7.65376 11.6534 7.65376 12.0909C7.65376 12.536 7.72289 12.911 7.86115 13.2159C8.0013 13.5189 8.19259 13.7481 8.43501 13.9034C8.67933 14.0568 8.95869 14.1335 9.27308 14.1335C9.44732 14.1335 9.6102 14.1108 9.76172 14.0653C9.91513 14.018 10.0524 13.9489 10.1737 13.858C10.2968 13.767 10.4 13.6553 10.4833 13.5227C10.5685 13.3902 10.6272 13.2386 10.6594 13.0682L11.7219 13.0739C11.6822 13.3504 11.596 13.6098 11.4634 13.8523C11.3327 14.0947 11.1613 14.3087 10.9492 14.4943C10.7371 14.678 10.489 14.822 10.2049 14.9261C9.92081 15.0284 9.60547 15.0795 9.25888 15.0795C8.74751 15.0795 8.29107 14.9612 7.88956 14.7244C7.48804 14.4877 7.17176 14.1458 6.9407 13.6989C6.70964 13.2519 6.59411 12.7159 6.59411 12.0909C6.59411 11.464 6.71058 10.928 6.94354 10.483C7.17649 10.036 7.49373 9.69413 7.89524 9.45739C8.29676 9.22064 8.7513 9.10227 9.25888 9.10227C9.58274 9.10227 9.88388 9.14773 10.1623 9.23864C10.4407 9.32955 10.6888 9.46307 10.9066 9.6392C11.1244 9.81345 11.3034 10.0275 11.4435 10.2812C11.5856 10.5331 11.6784 10.821 11.7219 11.1449ZM13.364 15H12.239L14.2873 9.18182H15.5884L17.6396 15H16.5146L14.9606 10.375H14.9151L13.364 15ZM13.4009 12.7188H16.4691V13.5653H13.4009V12.7188Z" fill="black"/>
</svg>
