<svg width="24" height="24" viewBox="0 0 24 24" fill="none" xmlns="http://www.w3.org/2000/svg">
<path fill-rule="evenodd" clip-rule="evenodd" d="M19.1694 19.25H19.4194V19V5V4.75H19.1694H5.16937H4.91937V5V19V19.25H5.16937H19.1694ZM9.66937 15.75H9.41937V16V17.75H8.41937V16V15.75H8.16937H6.41937V14.75H8.16937H8.41937V14.5V12.75H9.41937V14.5V14.75H9.66937H11.4194V15.75H9.66937ZM15.8461 7.58678L17.0794 6.35355L17.7858 7.06L16.5526 8.29322L16.3764 8.46938L16.552 8.64615L17.7864 9.88938L17.0794 10.5964L15.8461 9.36322L15.6694 9.18645L15.4926 9.36322L14.2594 10.5964L13.5523 9.88938L14.7868 8.64615L14.9623 8.46938L14.7861 8.29322L13.5529 7.06L14.2594 6.35355L15.4926 7.58678L15.6694 7.76355L15.8461 7.58678ZM5.16937 3.25H19.1694C20.1313 3.25 20.9194 4.03807 20.9194 5V19C20.9194 19.9619 20.1313 20.75 19.1694 20.75H5.16937C4.20744 20.75 3.41937 19.9619 3.41937 19V5C3.41937 4.03807 4.20744 3.25 5.16937 3.25ZM6.66937 7.97H11.1694V8.97H6.66937V7.97ZM17.9194 17V16H13.4194V17H17.9194ZM17.9194 14.5V13.5H13.4194V14.5H17.9194Z" fill="black"/>
</svg>
