<svg width="24" height="24" viewBox="0 0 24 24" fill="none" xmlns="http://www.w3.org/2000/svg">
<path fill-rule="evenodd" clip-rule="evenodd" d="M19.1694 18.25H19.4194V18V8V7.75H19.1694H5.16937H4.91937V8V18V18.25H5.16937H19.1694ZM9.66666 16.3632L10.1298 15.9001L7.62321 13.3936L7.44644 13.2168L7.62321 13.04L10.1298 10.5335L9.66666 10.0704L6.52021 13.2168L9.66666 16.3632ZM16.3768 13.04L13.8702 10.5335L14.3333 10.0704L17.4798 13.2168L14.3333 16.3632L13.8702 15.9001L16.3768 13.3936L16.5535 13.2168L16.3768 13.04ZM5.16937 4.25H19.1694C20.1405 4.25 20.9194 5.03726 20.9194 6V18C20.9194 18.9619 20.1313 19.75 19.1694 19.75H5.16937C4.19826 19.75 3.41937 18.9627 3.41937 18V6C3.41937 5.03726 4.19826 4.25 5.16937 4.25Z" fill="black"/>
</svg>
