<svg width="24" height="24" viewBox="0 0 24 24" fill="none" xmlns="http://www.w3.org/2000/svg">
<rect opacity="0.25" x="2.87903" y="4.75" width="18.2419" height="14.5" rx="2" fill="black"/>
<path fill-rule="evenodd" clip-rule="evenodd" d="M4.00122 6.00006L4.00122 17.75L4.00122 18V6.00006ZM19.9988 18.2499L20.2488 18.2499V17.9999V6V5.75L19.9988 5.75L4.00122 5.75006L3.75122 5.75006V6.00006V18V18.25L4.00122 18.25L19.9988 18.2499ZM4.00122 4.25006L19.9988 4.25C20.9615 4.25 21.75 5.03822 21.75 6V17.9999C21.75 18.9617 20.9615 19.7499 19.9988 19.7499L4.00122 19.75C3.03848 19.75 2.25 18.9618 2.25 18V6.00006C2.25 5.03828 3.03848 4.25006 4.00122 4.25006Z" fill="black"/>
<path d="M11.6087 11.1449H10.5462C10.5159 10.9706 10.46 10.8163 10.3786 10.6818C10.2971 10.5455 10.1958 10.4299 10.0746 10.3352C9.95336 10.2405 9.8151 10.1695 9.6598 10.1222C9.50639 10.0729 9.34067 10.0483 9.16264 10.0483C8.84635 10.0483 8.56605 10.1278 8.32173 10.2869C8.07741 10.4441 7.88613 10.6752 7.74787 10.9801C7.60961 11.2831 7.54048 11.6534 7.54048 12.0909C7.54048 12.536 7.60961 12.911 7.74787 13.2159C7.88802 13.5189 8.07931 13.7481 8.32173 13.9034C8.56605 14.0568 8.84541 14.1335 9.1598 14.1335C9.33404 14.1335 9.49692 14.1108 9.64844 14.0653C9.80185 14.018 9.93916 13.9489 10.0604 13.858C10.1835 13.767 10.2867 13.6553 10.37 13.5227C10.4553 13.3902 10.514 13.2386 10.5462 13.0682L11.6087 13.0739C11.5689 13.3504 11.4827 13.6098 11.3501 13.8523C11.2195 14.0947 11.0481 14.3087 10.8359 14.4943C10.6238 14.678 10.3757 14.822 10.0916 14.9261C9.80753 15.0284 9.49219 15.0795 9.1456 15.0795C8.63423 15.0795 8.17779 14.9612 7.77628 14.7244C7.37476 14.4877 7.05848 14.1458 6.82741 13.6989C6.59635 13.2519 6.48082 12.7159 6.48082 12.0909C6.48082 11.464 6.5973 10.928 6.83026 10.483C7.06321 10.036 7.38045 9.69413 7.78196 9.45739C8.18348 9.22064 8.63802 9.10227 9.1456 9.10227C9.46946 9.10227 9.7706 9.14773 10.049 9.23864C10.3274 9.32955 10.5755 9.46307 10.7933 9.6392C11.0111 9.81345 11.1901 10.0275 11.3303 10.2812C11.4723 10.5331 11.5651 10.821 11.6087 11.1449ZM17.554 11.1449H16.4915C16.4612 10.9706 16.4053 10.8163 16.3239 10.6818C16.2424 10.5455 16.1411 10.4299 16.0199 10.3352C15.8987 10.2405 15.7604 10.1695 15.6051 10.1222C15.4517 10.0729 15.286 10.0483 15.108 10.0483C14.7917 10.0483 14.5114 10.1278 14.267 10.2869C14.0227 10.4441 13.8314 10.6752 13.6932 10.9801C13.5549 11.2831 13.4858 11.6534 13.4858 12.0909C13.4858 12.536 13.5549 12.911 13.6932 13.2159C13.8333 13.5189 14.0246 13.7481 14.267 13.9034C14.5114 14.0568 14.7907 14.1335 15.1051 14.1335C15.2794 14.1335 15.4422 14.1108 15.5938 14.0653C15.7472 14.018 15.8845 13.9489 16.0057 13.858C16.1288 13.767 16.232 13.6553 16.3153 13.5227C16.4006 13.3902 16.4593 13.2386 16.4915 13.0682L17.554 13.0739C17.5142 13.3504 17.428 13.6098 17.2955 13.8523C17.1648 14.0947 16.9934 14.3087 16.7812 14.4943C16.5691 14.678 16.321 14.822 16.0369 14.9261C15.7528 15.0284 15.4375 15.0795 15.0909 15.0795C14.5795 15.0795 14.1231 14.9612 13.7216 14.7244C13.3201 14.4877 13.0038 14.1458 12.7727 13.6989C12.5417 13.2519 12.4261 12.7159 12.4261 12.0909C12.4261 11.464 12.5426 10.928 12.7756 10.483C13.0085 10.036 13.3258 9.69413 13.7273 9.45739C14.1288 9.22064 14.5833 9.10227 15.0909 9.10227C15.4148 9.10227 15.7159 9.14773 15.9943 9.23864C16.2727 9.32955 16.5208 9.46307 16.7386 9.6392C16.9564 9.81345 17.1354 10.0275 17.2756 10.2812C17.4176 10.5331 17.5104 10.821 17.554 11.1449Z" fill="black"/>
</svg>
