<svg width="24" height="24" viewBox="0 0 24 24" fill="none" xmlns="http://www.w3.org/2000/svg">
<rect opacity="0.25" x="2.87903" y="4.75" width="18.2419" height="14.5" rx="2" fill="black"/>
<path fill-rule="evenodd" clip-rule="evenodd" d="M4.00122 6.00006L4.00122 17.75L4.00122 18V6.00006ZM19.9988 18.2499L20.2488 18.2499V17.9999V6V5.75L19.9988 5.75L4.00122 5.75006L3.75122 5.75006V6.00006V18V18.25L4.00122 18.25L19.9988 18.2499ZM4.00122 4.25006L19.9988 4.25C20.9615 4.25 21.75 5.03822 21.75 6V17.9999C21.75 18.9617 20.9615 19.7499 19.9988 19.7499L4.00122 19.75C3.03848 19.75 2.25 18.9618 2.25 18V6.00006C2.25 5.03828 3.03848 4.25006 4.00122 4.25006Z" fill="black"/>
<path d="M12.0071 11.1449H10.9446C10.9143 10.9706 10.8584 10.8163 10.777 10.6818C10.6955 10.5455 10.5942 10.4299 10.473 10.3352C10.3518 10.2405 10.2135 10.1695 10.0582 10.1222C9.90483 10.0729 9.73911 10.0483 9.56108 10.0483C9.24479 10.0483 8.96449 10.1278 8.72017 10.2869C8.47585 10.4441 8.28456 10.6752 8.14631 10.9801C8.00805 11.2831 7.93892 11.6534 7.93892 12.0909C7.93892 12.536 8.00805 12.911 8.14631 13.2159C8.28646 13.5189 8.47775 13.7481 8.72017 13.9034C8.96449 14.0568 9.24384 14.1335 9.55824 14.1335C9.73248 14.1335 9.89536 14.1108 10.0469 14.0653C10.2003 14.018 10.3376 13.9489 10.4588 13.858C10.5819 13.767 10.6851 13.6553 10.7685 13.5227C10.8537 13.3902 10.9124 13.2386 10.9446 13.0682L12.0071 13.0739C11.9673 13.3504 11.8812 13.6098 11.7486 13.8523C11.6179 14.0947 11.4465 14.3087 11.2344 14.4943C11.0223 14.678 10.7741 14.822 10.4901 14.9261C10.206 15.0284 9.89063 15.0795 9.54403 15.0795C9.03267 15.0795 8.57623 14.9612 8.17472 14.7244C7.7732 14.4877 7.45691 14.1458 7.22585 13.6989C6.99479 13.2519 6.87926 12.7159 6.87926 12.0909C6.87926 11.464 6.99574 10.928 7.22869 10.483C7.46165 10.036 7.77888 9.69413 8.1804 9.45739C8.58191 9.22064 9.03646 9.10227 9.54403 9.10227C9.8679 9.10227 10.169 9.14773 10.4474 9.23864C10.7259 9.32955 10.974 9.46307 11.1918 9.6392C11.4096 9.81345 11.5885 10.0275 11.7287 10.2812C11.8707 10.5331 11.9635 10.821 12.0071 11.1449ZM12.9723 15V9.18182H15.1541C15.6011 9.18182 15.9761 9.26515 16.2791 9.43182C16.584 9.59848 16.8142 9.82765 16.9695 10.1193C17.1267 10.4091 17.2053 10.7386 17.2053 11.108C17.2053 11.4811 17.1267 11.8125 16.9695 12.1023C16.8123 12.392 16.5803 12.6203 16.2734 12.7869C15.9666 12.9517 15.5888 13.0341 15.1399 13.0341H13.6939V12.1676H14.9979C15.2592 12.1676 15.4732 12.1222 15.6399 12.0312C15.8066 11.9403 15.9297 11.8153 16.0092 11.6562C16.0907 11.4972 16.1314 11.3144 16.1314 11.108C16.1314 10.9015 16.0907 10.7197 16.0092 10.5625C15.9297 10.4053 15.8056 10.2831 15.6371 10.196C15.4704 10.107 15.2554 10.0625 14.9922 10.0625H14.0263V15H12.9723Z" fill="black"/>
</svg>
