<svg width="24" height="24" viewBox="0 0 24 24" fill="none" xmlns="http://www.w3.org/2000/svg">
<rect opacity="0.1" x="3.75" y="5.74512" width="16.5" height="12.5" fill="black"/>
<path opacity="0.4" fill-rule="evenodd" clip-rule="evenodd" d="M4.00122 6.00006L4.00122 17.75L4.00122 18V6.00006ZM19.9988 18.2499L20.2488 18.2499V17.9999V6V5.75L19.9988 5.75L4.00122 5.75006L3.75122 5.75006V6.00006V18V18.25L4.00122 18.25L19.9988 18.2499ZM4.00122 4.25006L19.9988 4.25C20.9615 4.25 21.75 5.03822 21.75 6V17.9999C21.75 18.9617 20.9615 19.7499 19.9988 19.7499L4.00122 19.75C3.03848 19.75 2.25 18.9618 2.25 18V6.00006C2.25 5.03828 3.03848 4.25006 4.00122 4.25006Z" fill="black"/>
<path opacity="0.4" d="M12.0071 11.14H10.9446C10.9143 10.9658 10.8584 10.8114 10.777 10.6769C10.6955 10.5406 10.5942 10.425 10.473 10.3303C10.3518 10.2356 10.2135 10.1646 10.0582 10.1173C9.90483 10.068 9.73911 10.0434 9.56108 10.0434C9.24479 10.0434 8.96449 10.123 8.72017 10.282C8.47585 10.4392 8.28456 10.6703 8.14631 10.9752C8.00805 11.2783 7.93892 11.6485 7.93892 12.086C7.93892 12.5311 8.00805 12.9061 8.14631 13.211C8.28646 13.5141 8.47775 13.7432 8.72017 13.8985C8.96449 14.0519 9.24384 14.1286 9.55824 14.1286C9.73248 14.1286 9.89536 14.1059 10.0469 14.0605C10.2003 14.0131 10.3376 13.944 10.4588 13.8531C10.5819 13.7622 10.6851 13.6504 10.7685 13.5178C10.8537 13.3853 10.9124 13.2338 10.9446 13.0633L12.0071 13.069C11.9673 13.3455 11.8812 13.605 11.7486 13.8474C11.6179 14.0898 11.4465 14.3038 11.2344 14.4894C11.0223 14.6731 10.7741 14.8171 10.4901 14.9213C10.206 15.0235 9.89063 15.0747 9.54403 15.0747C9.03267 15.0747 8.57623 14.9563 8.17472 14.7195C7.7732 14.4828 7.45691 14.141 7.22585 13.694C6.99479 13.247 6.87926 12.711 6.87926 12.086C6.87926 11.4591 6.99574 10.9231 7.22869 10.4781C7.46165 10.0311 7.77888 9.68925 8.1804 9.4525C8.58191 9.21576 9.03646 9.09739 9.54403 9.09739C9.8679 9.09739 10.169 9.14284 10.4474 9.23375C10.7259 9.32466 10.974 9.45819 11.1918 9.63432C11.4096 9.80856 11.5885 10.0226 11.7287 10.2764C11.8707 10.5283 11.9635 10.8161 12.0071 11.14ZM12.9723 14.9951V9.17694H15.1541C15.6011 9.17694 15.9761 9.26027 16.2791 9.42694C16.584 9.5936 16.8142 9.82277 16.9695 10.1144C17.1267 10.4042 17.2053 10.7338 17.2053 11.1031C17.2053 11.4762 17.1267 11.8076 16.9695 12.0974C16.8123 12.3872 16.5803 12.6154 16.2734 12.782C15.9666 12.9468 15.5888 13.0292 15.1399 13.0292H13.6939V12.1627H14.9979C15.2592 12.1627 15.4732 12.1173 15.6399 12.0264C15.8066 11.9355 15.9297 11.8105 16.0092 11.6514C16.0907 11.4923 16.1314 11.3095 16.1314 11.1031C16.1314 10.8966 16.0907 10.7148 16.0092 10.5576C15.9297 10.4004 15.8056 10.2783 15.6371 10.1911C15.4704 10.1021 15.2554 10.0576 14.9922 10.0576H14.0263V14.9951H12.9723Z" fill="black"/>
</svg>
