<svg width="24" height="24" viewBox="0 0 24 24" fill="none" xmlns="http://www.w3.org/2000/svg">
<path fill-rule="evenodd" clip-rule="evenodd" d="M15.6694 15.75L15.6631 15.9999L15.9194 16.0064V15.75C15.9194 15.276 15.6251 14.8534 15.1887 14.6865L15.1887 14.6865L15.1867 14.6858L9.36671 12.5158L9.32446 12.5H9.27937H7.66937H7.41937V12.75V18.23V18.4202L7.60266 18.4709L14.5727 20.4009L14.6434 20.4205L14.7135 20.3988L20.6435 18.5588L20.9212 18.4726L20.7943 18.2109C20.5932 17.7961 20.1567 17.51 19.6694 17.51H14.3194C13.8074 17.51 13.3041 17.4247 12.8184 17.2628L12.8181 17.2627L10.6753 16.5515L11.148 15.1261L13.2906 15.8373L13.2906 15.8373L13.2926 15.8379C13.3553 15.8582 13.4407 15.8721 13.525 15.8831C13.6146 15.8947 13.7222 15.9053 13.8392 15.9148C14.0736 15.9339 14.3547 15.9497 14.624 15.9622C14.8936 15.9748 15.1533 15.9842 15.3454 15.9905C15.4415 15.9936 15.5208 15.996 15.5762 15.9976L15.6403 15.9993L15.6572 15.9998L15.6616 15.9999L15.6627 15.9999L15.663 15.9999L15.6631 15.9999L15.6694 15.75ZM17.4194 15.75V16H17.6694H19.6694C21.1913 16 22.4194 17.2281 22.4194 18.75V19.5662L14.6651 21.9894L7.73614 20.0691L7.41937 19.9813V20.31V21.5H1.91937V11H9.59422L15.7116 13.2841L15.7118 13.2842C16.7341 13.6676 17.4194 14.6543 17.4194 15.75ZM3.41937 19.75V20H3.66937H5.66937H5.91937V19.75V12.75V12.5H5.66937H3.66937H3.41937V12.75V19.75Z" fill="black"/>
<path d="M16.3808 2.79999H17.6586V3.64476C17.891 3.69191 18.1068 3.76122 18.3062 3.8527C18.72 4.04146 19.0419 4.30404 19.2718 4.64042C19.5017 4.97681 19.6203 5.36643 19.6276 5.8093H18.1211C18.092 5.51648 17.9674 5.28899 17.7472 5.12685C17.527 4.96471 17.2281 4.88364 16.8506 4.88364C16.594 4.88364 16.3774 4.91994 16.2008 4.99254C16.0241 5.06272 15.8886 5.16073 15.7942 5.28657C15.7023 5.41241 15.6563 5.5552 15.6563 5.71492C15.6514 5.84802 15.6793 5.96418 15.7398 6.0634C15.8027 6.16262 15.8886 6.24854 15.9975 6.32114C16.1064 6.39132 16.2322 6.45303 16.375 6.50627C16.5178 6.55709 16.6703 6.60065 16.8324 6.63695L17.5003 6.79667C17.8246 6.86927 18.1223 6.96608 18.3933 7.08708C18.6644 7.20808 18.8991 7.35691 19.0976 7.53357C19.296 7.71024 19.4497 7.91836 19.5586 8.15794C19.6699 8.39753 19.7268 8.6722 19.7292 8.98196C19.7268 9.43693 19.6106 9.8314 19.3807 10.1654C19.1532 10.4969 18.8241 10.7546 18.3933 10.9386C18.172 11.0323 17.9271 11.1019 17.6586 11.1472V12H16.3808V11.1913C15.9705 11.1554 15.602 11.0699 15.2751 10.9349C14.8323 10.751 14.4862 10.4788 14.2369 10.1182C13.9901 9.75516 13.8606 9.30625 13.8485 8.77142H15.3695C15.3864 9.02068 15.4578 9.22881 15.5837 9.39579C15.7119 9.56035 15.8825 9.68498 16.0955 9.76968C16.3109 9.85197 16.5541 9.89311 16.8252 9.89311C17.0914 9.89311 17.3225 9.85439 17.5185 9.77694C17.7169 9.6995 17.8706 9.59181 17.9795 9.45387C18.0884 9.31593 18.1429 9.15742 18.1429 8.97833C18.1429 8.81135 18.0933 8.67099 17.994 8.55725C17.8972 8.44351 17.7544 8.3467 17.5657 8.26684C17.3793 8.18698 17.1506 8.11438 16.8796 8.04904L16.0701 7.84576C15.4433 7.6933 14.9484 7.45492 14.5854 7.13064C14.2224 6.80635 14.0421 6.36954 14.0445 5.82019C14.0421 5.37006 14.1619 4.97681 14.4039 4.64042C14.6483 4.30404 14.9835 4.04146 15.4094 3.8527C15.7052 3.72161 16.029 3.63604 16.3808 3.59599V2.79999Z" fill="black"/>
</svg>
