<svg width="24" height="24" viewBox="0 0 24 24" fill="none" xmlns="http://www.w3.org/2000/svg">
<path d="M12.3157 11.1449H11.2532C11.2229 10.9706 11.167 10.8163 11.0856 10.6818C11.0041 10.5455 10.9028 10.4299 10.7816 10.3352C10.6604 10.2405 10.5221 10.1695 10.3668 10.1222C10.2134 10.0729 10.0477 10.0483 9.86967 10.0483C9.55339 10.0483 9.27308 10.1278 9.02876 10.2869C8.78445 10.4441 8.59316 10.6752 8.4549 10.9801C8.31664 11.2831 8.24751 11.6534 8.24751 12.0909C8.24751 12.536 8.31664 12.911 8.4549 13.2159C8.59505 13.5189 8.78634 13.7481 9.02876 13.9034C9.27308 14.0568 9.55244 14.1335 9.86683 14.1335C10.0411 14.1335 10.204 14.1108 10.3555 14.0653C10.5089 14.018 10.6462 13.9489 10.7674 13.858C10.8905 13.767 10.9937 13.6553 11.0771 13.5227C11.1623 13.3902 11.221 13.2386 11.2532 13.0682L12.3157 13.0739C12.2759 13.3504 12.1897 13.6098 12.0572 13.8523C11.9265 14.0947 11.7551 14.3087 11.543 14.4943C11.3308 14.678 11.0827 14.822 10.7987 14.9261C10.5146 15.0284 10.1992 15.0795 9.85263 15.0795C9.34126 15.0795 8.88482 14.9612 8.48331 14.7244C8.08179 14.4877 7.76551 14.1458 7.53445 13.6989C7.30339 13.2519 7.18786 12.7159 7.18786 12.0909C7.18786 11.464 7.30433 10.928 7.53729 10.483C7.77024 10.036 8.08748 9.69413 8.48899 9.45739C8.89051 9.22064 9.34505 9.10227 9.85263 9.10227C10.1765 9.10227 10.4776 9.14773 10.756 9.23864C11.0344 9.32955 11.2826 9.46307 11.5004 9.6392C11.7182 9.81345 11.8971 10.0275 12.0373 10.2812C12.1793 10.5331 12.2721 10.821 12.3157 11.1449ZM13.2809 15V9.18182H14.3349V14.1165H16.8974V15H13.2809Z" fill="black"/>
</svg>
