<svg width="24" height="24" viewBox="0 0 24 24" fill="none" xmlns="http://www.w3.org/2000/svg">
<path fill-rule="evenodd" clip-rule="evenodd" d="M19.25 15V5V4.75H19H5H4.75V5V19V19.25H5H9V20.75H5C4.03807 20.75 3.25 19.9619 3.25 19V5C3.25 4.03807 4.03807 3.25 5 3.25H19C19.9619 3.25 20.75 4.03807 20.75 5V15H19.25Z" fill="black"/>
<path fill-rule="evenodd" clip-rule="evenodd" d="M1.5 6L1.50001 21.1956C1.50001 22.0241 2.17159 22.6956 3.00001 22.6956L8.32428 22.6956L8.32428 21.6956H3.00001C2.72387 21.6956 2.50001 21.4718 2.50001 21.1956L2.5 6H1.5ZM17.5885 19.4115L16.1 20.9H20V17L18.5115 18.4885L14.4165 14.4L11.8165 17L7.9165 13.1L7 14.0165L11.8165 18.8395L14.4165 16.2395L17.5885 19.4115ZM18 8H6V6.5H18V8ZM6 11H18V9.5H6V11Z" fill="black"/>
</svg>
