<svg width="24" height="24" viewBox="0 0 24 24" fill="none" xmlns="http://www.w3.org/2000/svg">
<path fill-rule="evenodd" clip-rule="evenodd" d="M19.25 15V5V4.75H19H5H4.75V5V19V19.25H5H9V20.75H5C4.03807 20.75 3.25 19.9619 3.25 19V5C3.25 4.03807 4.03807 3.25 5 3.25H19C19.9619 3.25 20.75 4.03807 20.75 5V15H19.25Z" fill="black"/>
<path fill-rule="evenodd" clip-rule="evenodd" d="M16.3797 6.77778H17.1575C17.5852 6.77778 17.9352 7.12778 17.9352 7.55556V7.94444C17.9352 8.93611 17.1886 9.745 16.228 9.86556C15.983 10.4489 15.458 10.8883 14.8241 11.0167V12.2222H16.3797V13H12.4908V12.2222H14.0464V11.0167C13.4125 10.8883 12.8875 10.4489 12.6425 9.86556C11.6819 9.745 10.9352 8.93611 10.9352 7.94444V7.55556C10.9352 7.12778 11.2852 6.77778 11.713 6.77778H12.4908V6H16.3797V6.77778ZM11.713 7.55556V7.94444C11.713 8.45 12.0397 8.87778 12.4908 9.04111V7.55556H11.713ZM13.2686 9.11111C13.2686 9.75278 13.7936 10.2778 14.4352 10.2778C15.0769 10.2778 15.6019 9.75278 15.6019 9.11111V6.77778H13.2686V9.11111ZM16.3797 9.04111C16.8308 8.87778 17.1575 8.45 17.1575 7.94444V7.55556H16.3797V9.04111ZM6 8H9.5V6.5H6V8ZM17.5885 19.4115L16.1 20.9H20V17L18.5115 18.4885L14.4165 14.4L11.8165 17L7.9165 13.1L7 14.0165L11.8165 18.8395L14.4165 16.2395L17.5885 19.4115ZM9.5 11H6V9.5H9.5V11Z" fill="black"/>
<path d="M16.3797 6.77778H16.3297V6.82778H16.3797V6.77778ZM16.228 9.86556L16.2218 9.81594L16.1931 9.81954L16.1819 9.84619L16.228 9.86556ZM14.8241 11.0167L14.8142 10.9677L14.7741 10.9758V11.0167H14.8241ZM14.8241 12.2222H14.7741V12.2722H14.8241V12.2222ZM16.3797 12.2222H16.4297V12.1722H16.3797V12.2222ZM16.3797 13V13.05H16.4297V13H16.3797ZM12.4908 13H12.4408V13.05H12.4908V13ZM12.4908 12.2222V12.1722H12.4408V12.2222H12.4908ZM14.0464 12.2222V12.2722H14.0964V12.2222H14.0464ZM14.0464 11.0167H14.0964V10.9758L14.0563 10.9677L14.0464 11.0167ZM12.6425 9.86556L12.6886 9.84619L12.6774 9.81954L12.6487 9.81594L12.6425 9.86556ZM12.4908 6.77778V6.82778H12.5408V6.77778H12.4908ZM12.4908 6V5.95H12.4408V6H12.4908ZM16.3797 6H16.4297V5.95H16.3797V6ZM11.713 7.55556V7.50556H11.663V7.55556H11.713ZM12.4908 9.04111L12.4738 9.08812L12.5408 9.11239V9.04111H12.4908ZM12.4908 7.55556H12.5408V7.50556H12.4908V7.55556ZM15.6019 6.77778H15.6519V6.72778H15.6019V6.77778ZM13.2686 6.77778V6.72778H13.2186V6.77778H13.2686ZM16.3797 9.04111H16.3297V9.11239L16.3967 9.08812L16.3797 9.04111ZM17.1575 7.55556H17.2075V7.50556H17.1575V7.55556ZM16.3797 7.55556V7.50556H16.3297V7.55556H16.3797ZM9.5 8V8.05H9.55V8H9.5ZM6 8H5.95V8.05H6V8ZM9.5 6.5H9.55V6.45H9.5V6.5ZM6 6.5V6.45H5.95V6.5H6ZM16.1 20.9L16.0646 20.8646L15.9793 20.95H16.1V20.9ZM17.5885 19.4115L17.6239 19.4468L17.6592 19.4115L17.6239 19.3761L17.5885 19.4115ZM20 20.9V20.95H20.05V20.9H20ZM20 17H20.05V16.8793L19.9646 16.9646L20 17ZM18.5115 18.4885L18.4762 18.5239L18.5115 18.5592L18.5469 18.5238L18.5115 18.4885ZM14.4165 14.4L14.4518 14.3646L14.4165 14.3293L14.3811 14.3646L14.4165 14.4ZM11.8165 17L11.7811 17.0353L11.8165 17.0707L11.8519 17.0353L11.8165 17ZM7.9165 13.1L7.95186 13.0646L7.9165 13.0293L7.88114 13.0646L7.9165 13.1ZM7 14.0165L6.96464 13.9811L6.92931 14.0165L6.96462 14.0518L7 14.0165ZM11.8165 18.8395L11.7811 18.8748L11.8165 18.9102L11.8519 18.8748L11.8165 18.8395ZM14.4165 16.2395L14.4519 16.2041L14.4165 16.1688L14.3811 16.2041L14.4165 16.2395ZM6 11H5.95V11.05H6V11ZM9.5 11V11.05H9.55V11H9.5ZM6 9.5V9.45H5.95V9.5H6ZM9.5 9.5H9.55V9.45H9.5V9.5ZM17.1575 6.72778H16.3797V6.82778H17.1575V6.72778ZM17.9852 7.55556C17.9852 7.10016 17.6129 6.72778 17.1575 6.72778V6.82778C17.5576 6.82778 17.8852 7.15539 17.8852 7.55556H17.9852ZM17.9852 7.94444V7.55556H17.8852V7.94444H17.9852ZM16.2342 9.91517C17.219 9.79157 17.9852 8.96213 17.9852 7.94444H17.8852C17.8852 8.91009 17.1582 9.69843 16.2218 9.81594L16.2342 9.91517ZM14.8341 11.0657C15.4844 10.934 16.0228 10.4833 16.2741 9.88492L16.1819 9.84619C15.9432 10.4145 15.4316 10.8427 14.8142 10.9677L14.8341 11.0657ZM14.8741 12.2222V11.0167H14.7741V12.2222H14.8741ZM16.3797 12.1722H14.8241V12.2722H16.3797V12.1722ZM16.4297 13V12.2222H16.3297V13H16.4297ZM12.4908 13.05H16.3797V12.95H12.4908V13.05ZM12.4408 12.2222V13H12.5408V12.2222H12.4408ZM14.0464 12.1722H12.4908V12.2722H14.0464V12.1722ZM13.9964 11.0167V12.2222H14.0964V11.0167H13.9964ZM12.5964 9.88492C12.8477 10.4833 13.3861 10.934 14.0364 11.0657L14.0563 10.9677C13.4388 10.8427 12.9272 10.4145 12.6886 9.84619L12.5964 9.88492ZM10.8852 7.94444C10.8852 8.96213 11.6515 9.79157 12.6362 9.91517L12.6487 9.81594C11.7123 9.69843 10.9852 8.91009 10.9852 7.94444H10.8852ZM10.8852 7.55556V7.94444H10.9852V7.55556H10.8852ZM11.713 6.72778C11.2576 6.72778 10.8852 7.10016 10.8852 7.55556H10.9852C10.9852 7.15539 11.3129 6.82778 11.713 6.82778V6.72778ZM12.4908 6.72778H11.713V6.82778H12.4908V6.72778ZM12.4408 6V6.77778H12.5408V6H12.4408ZM16.3797 5.95H12.4908V6.05H16.3797V5.95ZM16.4297 6.77778V6H16.3297V6.77778H16.4297ZM11.763 7.94444V7.55556H11.663V7.94444H11.763ZM12.5078 8.9941C12.0753 8.8375 11.763 8.42772 11.763 7.94444H11.663C11.663 8.47228 12.0041 8.91805 12.4738 9.08812L12.5078 8.9941ZM12.4408 7.55556V9.04111H12.5408V7.55556H12.4408ZM11.713 7.60556H12.4908V7.50556H11.713V7.60556ZM14.4352 10.2278C13.8212 10.2278 13.3186 9.72516 13.3186 9.11111H13.2186C13.2186 9.78039 13.766 10.3278 14.4352 10.3278V10.2278ZM15.5519 9.11111C15.5519 9.72516 15.0493 10.2278 14.4352 10.2278V10.3278C15.1045 10.3278 15.6519 9.78039 15.6519 9.11111H15.5519ZM15.5519 6.77778V9.11111H15.6519V6.77778H15.5519ZM13.2686 6.82778H15.6019V6.72778H13.2686V6.82778ZM13.3186 9.11111V6.77778H13.2186V9.11111H13.3186ZM17.1075 7.94444C17.1075 8.42772 16.7952 8.8375 16.3627 8.9941L16.3967 9.08812C16.8664 8.91805 17.2075 8.47228 17.2075 7.94444H17.1075ZM17.1075 7.55556V7.94444H17.2075V7.55556H17.1075ZM16.3797 7.60556H17.1575V7.50556H16.3797V7.60556ZM16.4297 9.04111V7.55556H16.3297V9.04111H16.4297ZM9.5 7.95H6V8.05H9.5V7.95ZM9.45 6.5V8H9.55V6.5H9.45ZM6 6.55H9.5V6.45H6V6.55ZM6.05 8V6.5H5.95V8H6.05ZM16.1354 20.9353L17.6239 19.4468L17.5531 19.3761L16.0646 20.8646L16.1354 20.9353ZM20 20.85H16.1V20.95H20V20.85ZM19.95 17V20.9H20.05V17H19.95ZM18.5469 18.5238L20.0354 17.0353L19.9646 16.9646L18.4761 18.4531L18.5469 18.5238ZM14.3812 14.4354L18.4762 18.5239L18.5468 18.4531L14.4518 14.3646L14.3812 14.4354ZM11.8519 17.0353L14.4519 14.4353L14.3811 14.3646L11.7811 16.9646L11.8519 17.0353ZM7.88114 13.1353L11.7811 17.0353L11.8519 16.9646L7.95186 13.0646L7.88114 13.1353ZM7.03536 14.0518L7.95186 13.1353L7.88114 13.0646L6.96464 13.9811L7.03536 14.0518ZM11.8519 18.8041L7.03538 13.9811L6.96462 14.0518L11.7811 18.8748L11.8519 18.8041ZM14.3811 16.2041L11.7811 18.8041L11.8519 18.8748L14.4519 16.2748L14.3811 16.2041ZM17.6239 19.3761L14.4519 16.2041L14.3811 16.2748L17.5531 19.4468L17.6239 19.3761ZM6 11.05H9.5V10.95H6V11.05ZM5.95 9.5V11H6.05V9.5H5.95ZM9.5 9.45H6V9.55H9.5V9.45ZM9.55 11V9.5H9.45V11H9.55Z" fill="black"/>
</svg>
