<svg width="24" height="24" viewBox="0 0 24 24" fill="none" xmlns="http://www.w3.org/2000/svg">
<path fill-rule="evenodd" clip-rule="evenodd" d="M19.25 15V5V4.75H19H5H4.75V5V19V19.25H5H9V20.75H5C4.03807 20.75 3.25 19.9619 3.25 19V5C3.25 4.03807 4.03807 3.25 5 3.25H19C19.9619 3.25 20.75 4.03807 20.75 5V15H19.25Z" fill="black"/>
<path fill-rule="evenodd" clip-rule="evenodd" d="M18 8H6V6.5H18V8ZM16.1 20.9L17.5885 19.4115L14.4165 16.2395L11.8165 18.8395L7 14.0165L7.9165 13.1L11.8165 17L14.4165 14.4L18.5115 18.4885L20 17V20.9H16.1ZM6 11H18V9.5H6V11Z" fill="black"/>
</svg>
