<svg width="24" height="24" viewBox="0 0 24 24" fill="none" xmlns="http://www.w3.org/2000/svg">
<path fill-rule="evenodd" clip-rule="evenodd" d="M14.2949 5H2C1.44772 5 1 5.44772 1 6V16C1 16.5523 1.44772 17 2 17H20C20.5523 17 21 16.5523 21 16V6C21 5.91038 20.9882 5.82352 20.9661 5.74087L19.5 7.20666V15.5H2.5V6.5H12.795L14.2949 5ZM10.795 8.5H4V10H10V9.29501L10.795 8.5ZM16.7061 10H18V8.70634L16.7061 10ZM4 13H8V11.5H4V13Z" fill="black"/>
<path d="M11 9.70922V12H13.2913L20.0465 5.24623L17.7552 2.95387L11 9.70922ZM21.8201 3.47297C21.8771 3.4164 21.9224 3.34911 21.9532 3.27498C21.9841 3.20085 22 3.12134 22 3.04105C22 2.96075 21.9841 2.88124 21.9532 2.80711C21.9224 2.73298 21.8771 2.66569 21.8201 2.60912L20.3905 1.17983C20.334 1.12285 20.2666 1.07762 20.1925 1.04675C20.1184 1.01589 20.0388 1 19.9585 1C19.8782 1 19.7987 1.01589 19.7245 1.04675C19.6504 1.07762 19.5831 1.12285 19.5265 1.17983L18.4111 2.2997L20.7024 4.59049L21.8201 3.47297Z" fill="black"/>
</svg>
