<svg width="24" height="24" viewBox="0 0 24 24" fill="none" xmlns="http://www.w3.org/2000/svg">
<path fill-rule="evenodd" clip-rule="evenodd" d="M12.4194 12.25V12.3924L12.5418 12.465L16.8242 15.0059L16.3351 15.8079L11.4194 12.8585V7.25H12.4194V12.25ZM2.41937 12C2.41937 6.61775 6.77777 2.25 12.1594 2.25C17.5515 2.25 21.9194 6.61823 21.9194 12C21.9194 17.3818 17.5515 21.75 12.1594 21.75C6.77777 21.75 2.41937 17.3823 2.41937 12ZM3.91937 12C3.91937 16.5581 7.6113 20.25 12.1694 20.25C16.7274 20.25 20.4194 16.5581 20.4194 12C20.4194 7.44193 16.7274 3.75 12.1694 3.75C7.6113 3.75 3.91937 7.44193 3.91937 12Z" fill="black"/>
</svg>
