<svg width="24" height="24" viewBox="0 0 24 24" fill="none" xmlns="http://www.w3.org/2000/svg">
<path d="M10.9563 11.1449H9.89382C9.86352 10.9706 9.80765 10.8163 9.72621 10.6818C9.64477 10.5455 9.54344 10.4299 9.42223 10.3352C9.30102 10.2405 9.16276 10.1695 9.00746 10.1222C8.85405 10.0729 8.68833 10.0483 8.5103 10.0483C8.19401 10.0483 7.91371 10.1278 7.66939 10.2869C7.42507 10.4441 7.23378 10.6752 7.09553 10.9801C6.95727 11.2831 6.88814 11.6534 6.88814 12.0909C6.88814 12.536 6.95727 12.911 7.09553 13.2159C7.23568 13.5189 7.42696 13.7481 7.66939 13.9034C7.91371 14.0568 8.19306 14.1335 8.50746 14.1335C8.6817 14.1335 8.84458 14.1108 8.99609 14.0653C9.1495 14.018 9.28681 13.9489 9.40803 13.858C9.53113 13.767 9.63435 13.6553 9.71768 13.5227C9.80291 13.3902 9.86162 13.2386 9.89382 13.0682L10.9563 13.0739C10.9165 13.3504 10.8304 13.6098 10.6978 13.8523C10.5671 14.0947 10.3957 14.3087 10.1836 14.4943C9.97147 14.678 9.72337 14.822 9.43928 14.9261C9.15518 15.0284 8.83984 15.0795 8.49325 15.0795C7.98189 15.0795 7.52545 14.9612 7.12393 14.7244C6.72242 14.4877 6.40613 14.1458 6.17507 13.6989C5.94401 13.2519 5.82848 12.7159 5.82848 12.0909C5.82848 11.464 5.94496 10.928 6.17791 10.483C6.41087 10.036 6.7281 9.69413 7.12962 9.45739C7.53113 9.22064 7.98568 9.10227 8.49325 9.10227C8.81712 9.10227 9.11825 9.14773 9.39666 9.23864C9.67507 9.32955 9.92318 9.46307 10.141 9.6392C10.3588 9.81345 10.5378 10.0275 10.6779 10.2812C10.82 10.5331 10.9128 10.821 10.9563 11.1449ZM11.9215 9.18182H13.2113L14.9386 13.3977H15.0067L16.734 9.18182H18.0238V15H17.0124V11.0028H16.9585L15.3505 14.983H14.5948L12.9869 10.9943H12.9329V15H11.9215V9.18182Z" fill="black"/>
</svg>
