<svg width="24" height="24" viewBox="0 0 24 24" fill="none" xmlns="http://www.w3.org/2000/svg">
<path fill-rule="evenodd" clip-rule="evenodd" d="M17.9194 4V4.25H18.1694H19.1694C20.1313 4.25 20.9194 5.03807 20.9194 6V20C20.9194 20.9619 20.1313 21.75 19.1694 21.75H5.16937C4.19829 21.75 3.41942 20.9628 3.41937 20.0001V20L3.42937 6.00018V6C3.42937 5.03561 4.19989 4.25 5.16937 4.25H6.16937H6.41937V4V2.25H7.91937V4V4.25H8.16937H16.1694H16.4194V4V2.25H17.9194V4ZM19.1694 20.25H19.4194V20V10V9.75H19.1694H5.16937H4.91937V10V20V20.25H5.16937H19.1694ZM19.1694 8.25H19.4194V8V6V5.75H19.1694H5.16937H4.91937V6V8V8.25H5.16937H19.1694ZM7.41937 12.25V13.75H8.91937V12.25H7.41937ZM12.9194 13.75H11.4194V12.25H12.9194V13.75ZM15.4194 12.25V13.75H16.9194V12.25H15.4194ZM7.41937 16.25V17.75H8.91937V16.25H7.41937ZM12.9194 17.75H11.4194V16.25H12.9194V17.75ZM15.4194 16.25V17.75H16.9194V16.25H15.4194Z" fill="black"/>
</svg>
