<svg width="24" height="24" viewBox="0 0 24 24" fill="none" xmlns="http://www.w3.org/2000/svg">
<path fill-rule="evenodd" clip-rule="evenodd" d="M6.16937 2.25H14.0658L19.9194 8.10355V20C19.9194 20.9619 19.1313 21.75 18.1694 21.75H6.15937C5.19912 21.75 4.41946 20.9636 4.41937 20.0002V20L4.42937 4.00016V4C4.42937 3.03644 5.20907 2.25 6.16937 2.25ZM6.16937 3.75H5.91937V4V17.24V20V20.25H6.16937H17.7694H18.3714L17.9465 19.8235L15.0965 16.9635L14.9519 16.8185L14.7813 16.9316C13.9928 17.4541 13.0809 17.72 12.1694 17.72C10.9529 17.72 9.73736 17.2544 8.81615 16.3332L8.81569 16.3328C8.19717 15.7174 7.7852 14.9727 7.57987 14.1846C7.17062 12.6138 7.58233 10.8709 8.81571 9.63722C9.35931 9.0993 9.99616 8.71696 10.6737 8.49171C11.1579 8.33075 11.6628 8.25 12.1694 8.25C13.3853 8.25 14.591 8.7152 15.5126 9.63678C17.1368 11.261 17.3367 13.7593 16.1207 15.6023L16.0084 15.7726L16.1526 15.9168L17.9926 17.7568L18.4194 18.1836V17.58V9V8.89645L18.3461 8.82322L13.3461 3.82322L13.2729 3.75H13.2506H13.1694H6.16937ZM12.1694 16.23C13.037 16.23 13.8498 15.8828 14.4554 15.2775C15.0734 14.6699 15.4094 13.8557 15.4094 12.99C15.4094 12.1224 15.0621 11.3096 14.4569 10.704C13.8493 10.0859 13.035 9.75 12.1694 9.75C11.3041 9.75 10.4901 10.0857 9.88259 10.7032C9.26502 11.3108 8.92937 12.1247 8.92937 12.99C8.92937 13.8576 9.2766 14.6704 9.88184 15.276C10.4895 15.8941 11.3037 16.23 12.1694 16.23Z" fill="black"/>
</svg>
