<svg width="24" height="24" viewBox="0 0 24 24" fill="none" xmlns="http://www.w3.org/2000/svg">
<path fill-rule="evenodd" clip-rule="evenodd" d="M14.2356 8.84322L14.0588 8.66645L13.882 8.84322L4.822 17.9032L4.74878 17.9764V18.08V19V19.25H4.99878H5.91878H6.02233L6.09556 19.1768L15.1556 10.1168L15.3323 9.94L15.1556 9.76322L14.2356 8.84322ZM17.1356 3.46678C17.2769 3.32539 17.4726 3.25 17.6588 3.25C17.8583 3.25 18.0428 3.31761 18.192 3.46678L20.532 5.80678C20.8244 6.09915 20.8244 6.57085 20.532 6.86322L18.8788 8.51645L15.4823 5.12L17.1356 3.46678ZM14.0588 6.54355L3.24878 17.3536V20.75H6.64523L17.4552 9.94L14.0588 6.54355Z" fill="black"/>
</svg>
