<svg width="24" height="24" viewBox="0 0 24 24" fill="none" xmlns="http://www.w3.org/2000/svg">
<path d="M11.9798 11.1449H10.9173C10.887 10.9706 10.8311 10.8163 10.7496 10.6818C10.6682 10.5455 10.5669 10.4299 10.4457 10.3352C10.3245 10.2405 10.1862 10.1695 10.0309 10.1222C9.87749 10.0729 9.71177 10.0483 9.53374 10.0483C9.21745 10.0483 8.93714 10.1278 8.69283 10.2869C8.44851 10.4441 8.25722 10.6752 8.11896 10.9801C7.98071 11.2831 7.91158 11.6534 7.91158 12.0909C7.91158 12.536 7.98071 12.911 8.11896 13.2159C8.25911 13.5189 8.4504 13.7481 8.69283 13.9034C8.93714 14.0568 9.2165 14.1335 9.53089 14.1335C9.70514 14.1335 9.86802 14.1108 10.0195 14.0653C10.1729 14.018 10.3103 13.9489 10.4315 13.858C10.5546 13.767 10.6578 13.6553 10.7411 13.5227C10.8263 13.3902 10.8851 13.2386 10.9173 13.0682L11.9798 13.0739C11.94 13.3504 11.8538 13.6098 11.7212 13.8523C11.5906 14.0947 11.4192 14.3087 11.207 14.4943C10.9949 14.678 10.7468 14.822 10.4627 14.9261C10.1786 15.0284 9.86328 15.0795 9.51669 15.0795C9.00533 15.0795 8.54889 14.9612 8.14737 14.7244C7.74586 14.4877 7.42957 14.1458 7.19851 13.6989C6.96745 13.2519 6.85192 12.7159 6.85192 12.0909C6.85192 11.464 6.96839 10.928 7.20135 10.483C7.4343 10.036 7.75154 9.69413 8.15305 9.45739C8.55457 9.22064 9.00911 9.10227 9.51669 9.10227C9.84055 9.10227 10.1417 9.14773 10.4201 9.23864C10.6985 9.32955 10.9466 9.46307 11.1644 9.6392C11.3822 9.81345 11.5612 10.0275 11.7013 10.2812C11.8434 10.5331 11.9362 10.821 11.9798 11.1449ZM12.945 15V9.18182H15.1268C15.5737 9.18182 15.9487 9.25947 16.2518 9.41477C16.5567 9.57008 16.7868 9.78788 16.9421 10.0682C17.0993 10.3466 17.1779 10.6714 17.1779 11.0426C17.1779 11.4157 17.0984 11.7396 16.9393 12.0142C16.7821 12.2869 16.5501 12.4981 16.2433 12.6477C15.9364 12.7955 15.5595 12.8693 15.1126 12.8693H13.5586V11.9943H14.9705C15.2319 11.9943 15.4459 11.9583 15.6126 11.8864C15.7792 11.8125 15.9023 11.7055 15.9819 11.5653C16.0633 11.4233 16.104 11.2491 16.104 11.0426C16.104 10.8362 16.0633 10.66 15.9819 10.5142C15.9004 10.3665 15.7764 10.2547 15.6097 10.179C15.4431 10.1013 15.2281 10.0625 14.9648 10.0625H13.9989V15H12.945ZM15.9506 12.3636L17.391 15H16.2148L14.8001 12.3636H15.9506Z" fill="black"/>
</svg>
