<svg width="24" height="24" viewBox="0 0 24 24" fill="none" xmlns="http://www.w3.org/2000/svg">
<path fill-rule="evenodd" clip-rule="evenodd" d="M17.8142 15.4333H17.9142V15.3333V8.66664V8.56664H17.8142H6.14754H6.04754V8.66664V15.3333V15.4333H6.14754H17.8142ZM19.3809 8.66664V15.3333C19.3809 16.1947 18.6756 16.9 17.8142 16.9H6.14754C5.2861 16.9 4.58087 16.1947 4.58087 15.3333V8.66664C4.58087 7.8052 5.2861 7.09998 6.14754 7.09998H17.8142C18.6756 7.09998 19.3809 7.8052 19.3809 8.66664Z" fill="black"/>
<path fill-rule="evenodd" clip-rule="evenodd" d="M20.5089 3.47882H13.0141V4.97882H20.5089V6.72882L22.9989 4.22882L20.5089 1.72882V3.47882ZM11.4833 9.12378H12.6833V9.85535C12.7742 9.88085 12.8604 9.91226 12.9418 9.94958C13.1989 10.0675 13.397 10.2337 13.5362 10.4482C13.6769 10.6612 13.7479 10.9105 13.7493 11.196H12.6158C12.6044 11.054 12.5511 10.9432 12.456 10.8636C12.3622 10.7841 12.2195 10.7443 12.0277 10.7443C11.9056 10.7443 11.8054 10.7592 11.7273 10.7891C11.6506 10.8175 11.5938 10.8565 11.5568 10.9063C11.5199 10.956 11.5007 11.0128 11.4993 11.0767C11.4965 11.1293 11.5057 11.1769 11.527 11.2195C11.5497 11.2607 11.5852 11.2983 11.6335 11.3324C11.6818 11.3651 11.7436 11.3949 11.8189 11.4219C11.8942 11.4489 11.9837 11.473 12.0874 11.4943L12.4453 11.571C12.6868 11.6222 12.8935 11.6896 13.0654 11.7734C13.2372 11.8573 13.3779 11.956 13.4872 12.0696C13.5966 12.1818 13.6769 12.3082 13.728 12.4489C13.7806 12.5895 13.8075 12.7429 13.809 12.9091C13.8075 13.196 13.7358 13.4389 13.5938 13.6378C13.4517 13.8367 13.2486 13.9879 12.9844 14.0916C12.8717 14.1361 12.7491 14.171 12.6168 14.1964V14.8762H11.4168V14.1889C11.2842 14.1617 11.1597 14.125 11.0433 14.0788C10.7621 13.9666 10.5433 13.794 10.3871 13.5611C10.2323 13.3267 10.1541 13.027 10.1527 12.6619H11.2777C11.2848 12.7955 11.3182 12.9077 11.3779 12.9986C11.4375 13.0895 11.5213 13.1584 11.6293 13.2053C11.7386 13.2521 11.8686 13.2756 12.0192 13.2756C12.1456 13.2756 12.2514 13.26 12.3367 13.2287C12.4219 13.1975 12.4865 13.1541 12.5306 13.0987C12.5746 13.0433 12.5973 12.9801 12.5987 12.9091C12.5973 12.8423 12.5753 12.7841 12.5327 12.7344C12.4915 12.6832 12.4233 12.6378 12.3281 12.598C12.233 12.5568 12.1044 12.5185 11.9425 12.483L11.5078 12.3892C11.1215 12.3054 10.8168 12.1655 10.5938 11.9695C10.3722 11.772 10.2621 11.5028 10.2635 11.1619C10.2621 10.885 10.3359 10.6428 10.4851 10.4354C10.6357 10.2266 10.8438 10.0639 11.1094 9.94745C11.2265 9.89636 11.3512 9.85648 11.4833 9.8278V9.12378ZM3.50801 19.0611V17.311L1.01801 19.8111L3.50801 22.3111V20.5611H10.9747V19.0611H3.50801Z" fill="black"/>
</svg>
