<svg width="24" height="24" viewBox="0 0 24 24" fill="none" xmlns="http://www.w3.org/2000/svg">
<path fill-rule="evenodd" clip-rule="evenodd" d="M19.1694 18.25H19.4194V18V8V7.75H19.1694H5.16937H4.91937V8V18V18.25H5.16937H19.1694ZM5.16937 4.25H19.1694C20.1405 4.25 20.9194 5.03726 20.9194 6V18C20.9194 18.9619 20.1313 19.75 19.1694 19.75H5.16937C4.19826 19.75 3.41937 18.9627 3.41937 18V6C3.41937 5.03726 4.19826 4.25 5.16937 4.25Z" fill="black"/>
<path d="M11.6807 9.2229H12.6807V9.88403C12.8625 9.92092 13.0314 9.97517 13.1875 10.0468C13.5114 10.1945 13.7632 10.4 13.9432 10.6632C14.1231 10.9265 14.2159 11.2314 14.2216 11.578H13.0426C13.0199 11.3488 12.9223 11.1708 12.75 11.0439C12.5776 10.917 12.3437 10.8536 12.0483 10.8536C11.8475 10.8536 11.678 10.882 11.5398 10.9388C11.4015 10.9937 11.2954 11.0704 11.2216 11.1689C11.1496 11.2674 11.1136 11.3792 11.1136 11.5042C11.1098 11.6083 11.1316 11.6992 11.179 11.7769C11.2282 11.8545 11.2954 11.9218 11.3807 11.9786C11.4659 12.0335 11.5644 12.0818 11.6761 12.1235C11.7879 12.1632 11.9072 12.1973 12.0341 12.2257L12.5568 12.3507C12.8106 12.4076 13.0435 12.4833 13.2557 12.578C13.4678 12.6727 13.6515 12.7892 13.8068 12.9274C13.9621 13.0657 14.0824 13.2286 14.1676 13.4161C14.2547 13.6036 14.2992 13.8185 14.3011 14.061C14.2992 14.417 14.2083 14.7257 14.0284 14.9871C13.8504 15.2466 13.5928 15.4483 13.2557 15.5922C13.0825 15.6656 12.8908 15.72 12.6807 15.7555V16.4229H11.6807V15.79C11.3596 15.7619 11.0711 15.695 10.8153 15.5894C10.4687 15.4454 10.1979 15.2324 10.0028 14.9502C9.80965 14.6661 9.70832 14.3148 9.69885 13.8962H10.8892C10.9025 14.0913 10.9583 14.2542 11.0568 14.3848C11.1572 14.5136 11.2907 14.6112 11.4574 14.6774C11.6259 14.7418 11.8163 14.774 12.0284 14.774C12.2367 14.774 12.4176 14.7437 12.571 14.6831C12.7263 14.6225 12.8466 14.5382 12.9318 14.4303C13.017 14.3223 13.0596 14.1983 13.0596 14.0581C13.0596 13.9274 13.0208 13.8176 12.9432 13.7286C12.8674 13.6396 12.7557 13.5638 12.6079 13.5013C12.4621 13.4388 12.2831 13.382 12.071 13.3309L11.4375 13.1718C10.947 13.0524 10.5596 12.8659 10.2756 12.6121C9.99147 12.3583 9.85037 12.0165 9.85226 11.5865C9.85037 11.2343 9.94412 10.9265 10.1335 10.6632C10.3248 10.4 10.5871 10.1945 10.9204 10.0468C11.1519 9.94417 11.4053 9.8772 11.6807 9.84586V9.2229Z" fill="black"/>
</svg>
