<svg width="24" height="24" viewBox="0 0 24 24" fill="none" xmlns="http://www.w3.org/2000/svg">
<path fill-rule="evenodd" clip-rule="evenodd" d="M9.77735 8.20893L9.7046 8.36709L9.8277 8.49018L20.2056 18.8681V19.3601H18.0225L12.1768 13.5144L12 13.3376L11.8232 13.5144L9.8277 15.5099L9.7046 15.633L9.77735 15.7912C9.95741 16.1826 10.0589 16.6122 10.0589 17.0734C10.0589 18.8041 8.65725 20.2057 6.92662 20.2057C5.196 20.2057 3.79437 18.8041 3.79437 17.0734C3.79437 15.3428 5.196 13.9412 6.92662 13.9412C7.3879 13.9412 7.81743 14.0427 8.20887 14.2227L8.36703 14.2955L8.49012 14.1724L10.4857 12.1768L10.6624 12.0001L10.4857 11.8233L8.49012 9.82776L8.36703 9.70466L8.20887 9.77741C7.81743 9.95747 7.3879 10.0589 6.92662 10.0589C5.196 10.0589 3.79437 8.65731 3.79437 6.92668C3.79437 5.19606 5.196 3.79443 6.92662 3.79443C8.65725 3.79443 10.0589 5.19606 10.0589 6.92668C10.0589 7.38796 9.95741 7.81749 9.77735 8.20893ZM4.9855 6.92668C4.9855 8.00414 5.85925 8.86781 6.92662 8.86781C7.994 8.86781 8.86775 8.00414 8.86775 6.92668C8.86775 5.84923 7.994 4.98556 6.92662 4.98556C5.85925 4.98556 4.9855 5.84923 4.9855 6.92668ZM4.9855 17.0734C4.9855 18.1509 5.85925 19.0146 6.92662 19.0146C7.994 19.0146 8.86775 18.1509 8.86775 17.0734C8.86775 15.996 7.994 15.1323 6.92662 15.1323C5.85925 15.1323 4.9855 15.996 4.9855 17.0734ZM11.3272 12.0001C11.3272 12.3749 11.6252 12.6728 12 12.6728C12.3748 12.6728 12.6728 12.3749 12.6728 12.0001C12.6728 11.6252 12.3748 11.3273 12 11.3273C11.6252 11.3273 11.3272 11.6252 11.3272 12.0001ZM14.1139 11.2237L12.7763 9.88615L18.0225 4.64H20.2056V5.13201L14.1139 11.2237Z" fill="black"/>
</svg>
