<svg width="24" height="24" viewBox="0 0 24 24" fill="none" xmlns="http://www.w3.org/2000/svg">
<path d="M11.647 15H9.67543V9.18182H11.6868C12.2644 9.18182 12.7607 9.2983 13.1754 9.53125C13.5921 9.76231 13.9122 10.0947 14.1357 10.5284C14.3591 10.9621 14.4709 11.4811 14.4709 12.0852C14.4709 12.6913 14.3582 13.2121 14.1328 13.6477C13.9093 14.0833 13.5864 14.4176 13.1641 14.6506C12.7436 14.8835 12.2379 15 11.647 15ZM10.7294 14.0881H11.5959C12.0012 14.0881 12.3393 14.0142 12.6101 13.8665C12.8809 13.7169 13.0845 13.4943 13.2209 13.1989C13.3572 12.9015 13.4254 12.5303 13.4254 12.0852C13.4254 11.6402 13.3572 11.2708 13.2209 10.9773C13.0845 10.6818 12.8828 10.4612 12.6158 10.3153C12.3506 10.1676 12.0211 10.0938 11.6271 10.0938H10.7294V14.0881Z" fill="black"/>
</svg>
