<svg width="24" height="24" viewBox="0 0 24 24" fill="none" xmlns="http://www.w3.org/2000/svg">
<path d="M9.12749 15H7.15589V9.18182H9.16726C9.74491 9.18182 10.2411 9.2983 10.6559 9.53125C11.0726 9.76231 11.3926 10.0947 11.6161 10.5284C11.8396 10.9621 11.9513 11.4811 11.9513 12.0852C11.9513 12.6913 11.8387 13.2121 11.6133 13.6477C11.3898 14.0833 11.0669 14.4176 10.6445 14.6506C10.2241 14.8835 9.71839 15 9.12749 15ZM8.20987 14.0881H9.07635C9.48165 14.0881 9.81972 14.0142 10.0906 13.8665C10.3614 13.7169 10.565 13.4943 10.7013 13.1989C10.8377 12.9015 10.9059 12.5303 10.9059 12.0852C10.9059 11.6402 10.8377 11.2708 10.7013 10.9773C10.565 10.6818 10.3633 10.4612 10.0962 10.3153C9.83108 10.1676 9.50154 10.0938 9.1076 10.0938H8.20987V14.0881ZM12.9528 15V9.18182H13.9812V11.358H14.0238C14.0768 11.2519 14.1516 11.1392 14.2482 11.0199C14.3448 10.8987 14.4755 10.7955 14.6403 10.7102C14.805 10.6231 15.0153 10.5795 15.271 10.5795C15.6081 10.5795 15.9121 10.6657 16.1829 10.8381C16.4556 11.0085 16.6715 11.2614 16.8306 11.5966C16.9916 11.9299 17.0721 12.339 17.0721 12.8239C17.0721 13.303 16.9935 13.7102 16.8363 14.0455C16.6791 14.3807 16.4651 14.6364 16.1942 14.8125C15.9234 14.9886 15.6166 15.0767 15.2738 15.0767C15.0238 15.0767 14.8164 15.035 14.6516 14.9517C14.4869 14.8684 14.3543 14.768 14.2539 14.6506C14.1554 14.5312 14.0787 14.4186 14.0238 14.3125H13.9641V15H12.9528ZM13.9613 12.8182C13.9613 13.1004 14.0011 13.3475 14.0806 13.5597C14.1621 13.7718 14.2785 13.9375 14.43 14.0568C14.5835 14.1742 14.7691 14.233 14.9869 14.233C15.2141 14.233 15.4045 14.1723 15.5579 14.0511C15.7113 13.928 15.8268 13.7604 15.9045 13.5483C15.984 13.3343 16.0238 13.0909 16.0238 12.8182C16.0238 12.5473 15.985 12.3068 15.9073 12.0966C15.8297 11.8864 15.7141 11.7216 15.5607 11.6023C15.4073 11.483 15.216 11.4233 14.9869 11.4233C14.7672 11.4233 14.5806 11.4811 14.4272 11.5966C14.2738 11.7121 14.1573 11.8741 14.0778 12.0824C14.0001 12.2907 13.9613 12.536 13.9613 12.8182Z" fill="black"/>
</svg>
