<svg width="24" height="24" viewBox="0 0 24 24" fill="none" xmlns="http://www.w3.org/2000/svg">
<path d="M9.33842 15H7.36683V9.18182H9.3782C9.95585 9.18182 10.4521 9.2983 10.8668 9.53125C11.2835 9.76231 11.6036 10.0947 11.8271 10.5284C12.0505 10.9621 12.1623 11.4811 12.1623 12.0852C12.1623 12.6913 12.0496 13.2121 11.8242 13.6477C11.6007 14.0833 11.2778 14.4176 10.8555 14.6506C10.435 14.8835 9.92933 15 9.33842 15ZM8.42081 14.0881H9.28729C9.69259 14.0881 10.0307 14.0142 10.3015 13.8665C10.5723 13.7169 10.7759 13.4943 10.9123 13.1989C11.0487 12.9015 11.1168 12.5303 11.1168 12.0852C11.1168 11.6402 11.0487 11.2708 10.9123 10.9773C10.7759 10.6818 10.5742 10.4612 10.3072 10.3153C10.042 10.1676 9.71248 10.0938 9.31854 10.0938H8.42081V14.0881ZM15.0217 15.0852C14.5861 15.0852 14.212 14.9896 13.8995 14.7983C13.5889 14.607 13.3493 14.3428 13.1808 14.0057C13.0141 13.6667 12.9308 13.2765 12.9308 12.8352C12.9308 12.392 13.016 12.0009 13.1864 11.6619C13.3569 11.321 13.5974 11.0559 13.908 10.8665C14.2205 10.6752 14.5898 10.5795 15.016 10.5795C15.3701 10.5795 15.6836 10.6449 15.9563 10.7756C16.2309 10.9044 16.4497 11.0871 16.6126 11.3239C16.7754 11.5587 16.8683 11.8333 16.891 12.1477H15.908C15.8683 11.9375 15.7736 11.7623 15.6239 11.6222C15.4762 11.4801 15.2783 11.4091 15.0302 11.4091C14.82 11.4091 14.6353 11.4659 14.4762 11.5795C14.3171 11.6913 14.1931 11.8523 14.104 12.0625C14.0169 12.2727 13.9734 12.5246 13.9734 12.8182C13.9734 13.1155 14.0169 13.3712 14.104 13.5852C14.1912 13.7973 14.3133 13.9612 14.4705 14.0767C14.6296 14.1903 14.8162 14.2472 15.0302 14.2472C15.1817 14.2472 15.3171 14.2187 15.4364 14.1619C15.5576 14.1032 15.659 14.0189 15.7404 13.9091C15.8219 13.7992 15.8777 13.6657 15.908 13.5085H16.891C16.8664 13.8172 16.7754 14.0909 16.6183 14.3295C16.4611 14.5663 16.247 14.7519 15.9762 14.8864C15.7054 15.0189 15.3872 15.0852 15.0217 15.0852Z" fill="black"/>
</svg>
