<svg width="24" height="24" viewBox="0 0 24 24" fill="none" xmlns="http://www.w3.org/2000/svg">
<path d="M9.21733 15H7.24574V9.18182H9.2571C9.83475 9.18182 10.331 9.2983 10.7457 9.53125C11.1624 9.76231 11.4825 10.0947 11.706 10.5284C11.9295 10.9621 12.0412 11.4811 12.0412 12.0852C12.0412 12.6913 11.9285 13.2121 11.7031 13.6477C11.4796 14.0833 11.1567 14.4176 10.7344 14.6506C10.3139 14.8835 9.80824 15 9.21733 15ZM8.29972 14.0881H9.16619C9.5715 14.0881 9.90956 14.0142 10.1804 13.8665C10.4512 13.7169 10.6548 13.4943 10.7912 13.1989C10.9276 12.9015 10.9957 12.5303 10.9957 12.0852C10.9957 11.6402 10.9276 11.2708 10.7912 10.9773C10.6548 10.6818 10.4531 10.4612 10.1861 10.3153C9.92093 10.1676 9.59138 10.0938 9.19744 10.0938H8.29972V14.0881ZM13.0426 15V9.18182H16.8267V10.0653H14.0966V11.6449H16.6307V12.5284H14.0966V14.1165H16.8494V15H13.0426Z" fill="black"/>
</svg>
