<svg width="24" height="24" viewBox="0 0 24 24" fill="none" xmlns="http://www.w3.org/2000/svg">
<path fill-rule="evenodd" clip-rule="evenodd" d="M12 19.5C16.1421 19.5 19.5 16.1421 19.5 12C19.5 7.85786 16.1421 4.5 12 4.5C7.85786 4.5 4.5 7.85786 4.5 12C4.5 16.1421 7.85786 19.5 12 19.5ZM12 18.5C15.5899 18.5 18.5 15.5899 18.5 12C18.5 8.41015 15.5899 5.5 12 5.5C8.41015 5.5 5.5 8.41015 5.5 12C5.5 15.5899 8.41015 18.5 12 18.5Z" fill="#FE0123"/>
<path fill-rule="evenodd" clip-rule="evenodd" d="M12 17C14.7614 17 17 14.7614 17 12C17 9.23858 14.7614 7 12 7C9.23858 7 7 9.23858 7 12C7 14.7614 9.23858 17 12 17ZM14.8536 10.0035L14.6768 10.1803L12.8571 12L14.6768 13.8196L14.8536 13.9964L14.6768 14.1732L14.1732 14.6768L13.9964 14.8535L13.8197 14.6768L12 12.8571L10.1803 14.6768L10.0036 14.8535L9.82679 14.6768L9.32322 14.1732L9.14645 13.9964L9.32322 13.8196L11.1429 12L9.32322 10.1803L9.14645 10.0035L9.32322 9.82677L9.82679 9.3232L10.0036 9.14642L10.1803 9.3232L12 11.1429L13.8197 9.3232L13.9964 9.14642L14.1732 9.3232L14.6768 9.82677L14.8536 10.0035Z" fill="#D0011B"/>
</svg>
