<svg width="24" height="24" viewBox="0 0 24 24" fill="none" xmlns="http://www.w3.org/2000/svg">
<path fill-rule="evenodd" clip-rule="evenodd" d="M13.2332 12.1768L16.6464 15.59L15.59 16.6464L12.1768 13.2332L12 13.0564L11.8232 13.2332L8.41 16.6464L7.35355 15.59L10.7668 12.1768L10.9436 12L10.7668 11.8232L7.35355 8.41L8.41 7.35355L11.8232 10.7668L12 10.9436L12.1768 10.7668L15.59 7.35355L16.6464 8.41L13.2332 11.8232L13.0564 12L13.2332 12.1768ZM2.25 12C2.25 6.60807 6.60807 2.25 12 2.25C17.3919 2.25 21.75 6.60807 21.75 12C21.75 17.3919 17.3919 21.75 12 21.75C6.60807 21.75 2.25 17.3919 2.25 12ZM3.75 12C3.75 16.5481 7.45193 20.25 12 20.25C16.5481 20.25 20.25 16.5481 20.25 12C20.25 7.45193 16.5481 3.75 12 3.75C7.45193 3.75 3.75 7.45193 3.75 12Z" fill="black"/>
</svg>
