<svg width="24" height="24" viewBox="0 0 24 24" fill="none" xmlns="http://www.w3.org/2000/svg">
<path fill-rule="evenodd" clip-rule="evenodd" d="M13.25 8.04138C13.25 8.73174 12.6904 9.29138 12 9.29138C11.3096 9.29138 10.75 8.73174 10.75 8.04138C10.75 7.35103 11.3096 6.79138 12 6.79138C12.6904 6.79138 13.25 7.35103 13.25 8.04138ZM17 11.25V12.75H7V11.25H17ZM12 17.209C12.6904 17.209 13.25 16.6493 13.25 15.959C13.25 15.2686 12.6904 14.709 12 14.709C11.3096 14.709 10.75 15.2686 10.75 15.959C10.75 16.6493 11.3096 17.209 12 17.209Z" fill="black"/>
</svg>
