<svg width="24" height="24" viewBox="0 0 24 24" fill="none" xmlns="http://www.w3.org/2000/svg">
<path d="M9.21342 15H7.24183V9.18182H9.2532C9.83085 9.18182 10.3271 9.2983 10.7418 9.53125C11.1585 9.76231 11.4786 10.0947 11.7021 10.5284C11.9255 10.9621 12.0373 11.4811 12.0373 12.0852C12.0373 12.6913 11.9246 13.2121 11.6992 13.6477C11.4757 14.0833 11.1528 14.4176 10.7305 14.6506C10.31 14.8835 9.80433 15 9.21342 15ZM8.29581 14.0881H9.16229C9.56759 14.0881 9.90566 14.0142 10.1765 13.8665C10.4473 13.7169 10.6509 13.4943 10.7873 13.1989C10.9237 12.9015 10.9918 12.5303 10.9918 12.0852C10.9918 11.6402 10.9237 11.2708 10.7873 10.9773C10.6509 10.6818 10.4492 10.4612 10.1822 10.3153C9.91702 10.1676 9.58748 10.0938 9.19354 10.0938H8.29581V14.0881ZM14.8967 15.0852C14.4705 15.0852 14.1012 14.9915 13.7887 14.804C13.4762 14.6165 13.2338 14.3542 13.0614 14.017C12.891 13.6799 12.8058 13.286 12.8058 12.8352C12.8058 12.3845 12.891 11.9896 13.0614 11.6506C13.2338 11.3116 13.4762 11.0483 13.7887 10.8608C14.1012 10.6733 14.4705 10.5795 14.8967 10.5795C15.3228 10.5795 15.6921 10.6733 16.0046 10.8608C16.3171 11.0483 16.5586 11.3116 16.729 11.6506C16.9014 11.9896 16.9876 12.3845 16.9876 12.8352C16.9876 13.286 16.9014 13.6799 16.729 14.017C16.5586 14.3542 16.3171 14.6165 16.0046 14.804C15.6921 14.9915 15.3228 15.0852 14.8967 15.0852ZM14.9023 14.2614C15.1334 14.2614 15.3266 14.1979 15.4819 14.071C15.6372 13.9422 15.7527 13.7699 15.8285 13.554C15.9061 13.3381 15.945 13.0975 15.945 12.8324C15.945 12.5653 15.9061 12.3239 15.8285 12.108C15.7527 11.8902 15.6372 11.7169 15.4819 11.5881C15.3266 11.4593 15.1334 11.3949 14.9023 11.3949C14.6656 11.3949 14.4686 11.4593 14.3114 11.5881C14.1561 11.7169 14.0397 11.8902 13.962 12.108C13.8862 12.3239 13.8484 12.5653 13.8484 12.8324C13.8484 13.0975 13.8862 13.3381 13.962 13.554C14.0397 13.7699 14.1561 13.9422 14.3114 14.071C14.4686 14.1979 14.6656 14.2614 14.9023 14.2614Z" fill="black"/>
</svg>
