<svg width="24" height="24" viewBox="0 0 24 24" fill="none" xmlns="http://www.w3.org/2000/svg">
<path fill-rule="evenodd" clip-rule="evenodd" d="M17.9194 12V12.25H18.1694H19.1694C20.6913 12.25 21.9194 13.4781 21.9194 15V19.75H2.41937V15C2.41937 13.4781 3.64744 12.25 5.16937 12.25H6.16937H6.41937V12V4.25H17.9194V12ZM8.16937 5.75H7.91937V6V12V12.25H8.16937H16.1694H16.4194V12V6V5.75H16.1694H8.16937ZM20.1694 18.25H20.4194V18V15C20.4194 14.3119 19.8574 13.75 19.1694 13.75H5.16937C4.4813 13.75 3.91937 14.3119 3.91937 15V18V18.25H4.16937H20.1694ZM18.9194 16C18.9194 16.4142 18.5836 16.75 18.1694 16.75C17.7552 16.75 17.4194 16.4142 17.4194 16C17.4194 15.5858 17.7552 15.25 18.1694 15.25C18.5836 15.25 18.9194 15.5858 18.9194 16Z" fill="black"/>
<path d="M10.3793 8.25949V7.30494H14.1719V8.25949H12.8594V11.6686H11.6918V8.25949H10.3793Z" fill="black"/>
</svg>
