<svg width="24" height="24" viewBox="0 0 24 24" fill="none" xmlns="http://www.w3.org/2000/svg">
<path d="M9.0728 15H7.10121V9.18182H9.11257C9.69022 9.18182 10.1864 9.2983 10.6012 9.53125C11.0179 9.76231 11.338 10.0947 11.5614 10.5284C11.7849 10.9621 11.8967 11.4811 11.8967 12.0852C11.8967 12.6913 11.784 13.2121 11.5586 13.6477C11.3351 14.0833 11.0122 14.4176 10.5898 14.6506C10.1694 14.8835 9.66371 15 9.0728 15ZM8.15518 14.0881H9.02166C9.42696 14.0881 9.76503 14.0142 10.0359 13.8665C10.3067 13.7169 10.5103 13.4943 10.6467 13.1989C10.783 12.9015 10.8512 12.5303 10.8512 12.0852C10.8512 11.6402 10.783 11.2708 10.6467 10.9773C10.5103 10.6818 10.3086 10.4612 10.0415 10.3153C9.7764 10.1676 9.44685 10.0938 9.05291 10.0938H8.15518V14.0881ZM12.8981 15V9.18182H15.0799C15.5269 9.18182 15.9019 9.26515 16.2049 9.43182C16.5098 9.59848 16.7399 9.82765 16.8952 10.1193C17.0524 10.4091 17.131 10.7386 17.131 11.108C17.131 11.4811 17.0524 11.8125 16.8952 12.1023C16.738 12.392 16.506 12.6203 16.1992 12.7869C15.8924 12.9517 15.5146 13.0341 15.0657 13.0341H13.6197V12.1676H14.9237C15.185 12.1676 15.399 12.1222 15.5657 12.0312C15.7324 11.9403 15.8555 11.8153 15.935 11.6562C16.0165 11.4972 16.0572 11.3144 16.0572 11.108C16.0572 10.9015 16.0165 10.7197 15.935 10.5625C15.8555 10.4053 15.7314 10.2831 15.5629 10.196C15.3962 10.107 15.1812 10.0625 14.918 10.0625H13.9521V15H12.8981Z" fill="black"/>
</svg>
