<svg width="24" height="24" viewBox="0 0 24 24" fill="none" xmlns="http://www.w3.org/2000/svg">
<path d="M9.04545 15H7.07386V9.18182H9.08523C9.66288 9.18182 10.1591 9.2983 10.5739 9.53125C10.9905 9.76231 11.3106 10.0947 11.5341 10.5284C11.7576 10.9621 11.8693 11.4811 11.8693 12.0852C11.8693 12.6913 11.7566 13.2121 11.5312 13.6477C11.3078 14.0833 10.9848 14.4176 10.5625 14.6506C10.142 14.8835 9.63636 15 9.04545 15ZM8.12784 14.0881H8.99432C9.39962 14.0881 9.73769 14.0142 10.0085 13.8665C10.2794 13.7169 10.483 13.4943 10.6193 13.1989C10.7557 12.9015 10.8239 12.5303 10.8239 12.0852C10.8239 11.6402 10.7557 11.2708 10.6193 10.9773C10.483 10.6818 10.2813 10.4612 10.0142 10.3153C9.74905 10.1676 9.41951 10.0938 9.02557 10.0938H8.12784V14.0881ZM12.8707 15V9.18182H15.0526C15.4995 9.18182 15.8745 9.25947 16.1776 9.41477C16.4825 9.57008 16.7126 9.78788 16.8679 10.0682C17.0251 10.3466 17.1037 10.6714 17.1037 11.0426C17.1037 11.4157 17.0241 11.7396 16.8651 12.0142C16.7079 12.2869 16.4759 12.4981 16.169 12.6477C15.8622 12.7955 15.4853 12.8693 15.0384 12.8693H13.4844V11.9943H14.8963C15.1577 11.9943 15.3717 11.9583 15.5384 11.8864C15.705 11.8125 15.8281 11.7055 15.9077 11.5653C15.9891 11.4233 16.0298 11.2491 16.0298 11.0426C16.0298 10.8362 15.9891 10.66 15.9077 10.5142C15.8262 10.3665 15.7022 10.2547 15.5355 10.179C15.3688 10.1013 15.1539 10.0625 14.8906 10.0625H13.9247V15H12.8707ZM15.8764 12.3636L17.3168 15H16.1406L14.7259 12.3636H15.8764Z" fill="black"/>
</svg>
