<svg width="24" height="24" viewBox="0 0 24 24" fill="none" xmlns="http://www.w3.org/2000/svg">
<path d="M7.54652 15V9.18182H11.3306V10.0653H8.6005V11.6449H11.1346V12.5284H8.6005V14.1165H11.3533V15H7.54652ZM15.5678 10.7812C15.5413 10.5331 15.4296 10.34 15.2326 10.2017C15.0375 10.0634 14.7837 9.99432 14.4712 9.99432C14.2515 9.99432 14.0631 10.0275 13.9059 10.0938C13.7487 10.16 13.6284 10.25 13.5451 10.3636C13.4618 10.4773 13.4192 10.607 13.4173 10.7528C13.4173 10.8741 13.4447 10.9792 13.4996 11.0682C13.5565 11.1572 13.6332 11.233 13.7298 11.2955C13.8263 11.3561 13.9334 11.4072 14.0508 11.4489C14.1682 11.4905 14.2866 11.5256 14.4059 11.554L14.9513 11.6903C15.171 11.7415 15.3822 11.8106 15.5849 11.8977C15.7894 11.9848 15.9722 12.0947 16.1332 12.2273C16.296 12.3598 16.4248 12.5199 16.5195 12.7074C16.6142 12.8949 16.6616 13.1146 16.6616 13.3665C16.6616 13.7074 16.5745 14.0076 16.4002 14.267C16.226 14.5246 15.9741 14.7263 15.6445 14.8722C15.3169 15.0161 14.9201 15.0881 14.4542 15.0881C14.0015 15.0881 13.6085 15.018 13.2752 14.8778C12.9438 14.7377 12.6843 14.5331 12.4968 14.2642C12.3112 13.9953 12.2108 13.6676 12.1957 13.2812H13.2326C13.2478 13.4839 13.3103 13.6525 13.4201 13.7869C13.5299 13.9214 13.6729 14.0218 13.8491 14.0881C14.0271 14.1544 14.226 14.1875 14.4457 14.1875C14.6748 14.1875 14.8756 14.1534 15.0479 14.0852C15.2222 14.0152 15.3585 13.9186 15.457 13.7955C15.5555 13.6705 15.6057 13.5246 15.6076 13.358C15.6057 13.2064 15.5612 13.0814 15.4741 12.983C15.387 12.8826 15.2648 12.7992 15.1076 12.733C14.9523 12.6648 14.7705 12.6042 14.5621 12.5511L13.9002 12.3807C13.421 12.2576 13.0423 12.071 12.7638 11.821C12.4873 11.5691 12.3491 11.2348 12.3491 10.8182C12.3491 10.4754 12.4419 10.1752 12.6275 9.91761C12.815 9.66004 13.0697 9.46023 13.3917 9.31818C13.7137 9.17424 14.0782 9.10227 14.4854 9.10227C14.8983 9.10227 15.2601 9.17424 15.5707 9.31818C15.8832 9.46023 16.1284 9.65814 16.3065 9.91193C16.4845 10.1638 16.5763 10.4536 16.582 10.7812H15.5678Z" fill="black"/>
</svg>
