<svg width="24" height="24" viewBox="0 0 24 24" fill="none" xmlns="http://www.w3.org/2000/svg">
<path fill-rule="evenodd" clip-rule="evenodd" d="M10.6587 9.854C10.6587 10.5744 11.3179 10.858 12.6821 11.3102C14.5216 11.9464 14.9891 12.8814 14.9891 13.9467C14.9891 15.921 13.151 16.3292 12.7874 16.41L12.7664 16.4146V17.365H11.2336V16.3763C10.7584 16.2383 9.49378 15.7862 9.01093 14.1077L10.2832 13.5942C10.3292 13.7628 10.7277 15.196 12.1226 15.196C12.8354 15.196 13.6402 14.8281 13.6402 13.9621C13.6402 13.2263 13.1037 12.8354 11.8927 12.4062C11.8384 12.3865 11.7805 12.366 11.7196 12.3444C10.8347 12.0313 9.32516 11.4971 9.32516 9.86933C9.32516 9.79269 9.33283 8.0299 11.2336 7.6007V6.635H12.7664V7.58537C14.0847 7.83063 14.5982 8.95728 14.7132 9.30217L13.5022 9.81568C13.4179 9.54743 13.05 8.78866 12.046 8.78866C11.5095 8.78866 10.6587 9.07224 10.6587 9.854ZM12 20.4318C16.5726 20.4318 20.2959 16.7906 20.4282 12.25H21.7469C21.6145 17.5234 17.3056 21.75 12 21.75C8.703 21.75 5.78679 20.1106 4.02244 17.6104L3.56818 16.9667V17.7545V19.9318H2.25V14.9773H7.20455V16.2955H5.2H4.73233L4.99212 16.6843C6.5002 18.9418 9.07669 20.4318 12 20.4318ZM20.4318 6.24545V4.06818H21.75V9.02273H16.7955V7.70455H18.8H19.2677L19.0079 7.31567C17.4998 5.05824 14.9233 3.56818 12 3.56818C7.42737 3.56818 3.70408 7.20935 3.57182 11.75H2.25313C2.38552 6.47658 6.69438 2.25 12 2.25C15.297 2.25 18.2132 3.88936 19.9776 6.3896L20.4318 7.03333V6.24545Z" fill="black"/>
</svg>
