<svg width="24" height="24" viewBox="0 0 24 24" fill="none" xmlns="http://www.w3.org/2000/svg">
<path fill-rule="evenodd" clip-rule="evenodd" d="M14.005 13L13.8075 12.8468L13.8076 12.8466L13.8081 12.846L13.8101 12.8434L13.8182 12.833L13.8497 12.7923L13.9712 12.6355L14.4203 12.0563C14.8006 11.5659 15.3287 10.8849 15.92 10.123C17.1024 8.59942 18.5373 6.75199 19.5475 5.45675C19.9296 4.96165 19.5779 4.25 18.955 4.25H5.04502C4.42217 4.25 4.07045 4.96162 4.45252 5.45672C5.46262 6.75185 6.90001 8.59921 8.08487 10.1228C8.67738 10.8847 9.20677 11.5656 9.58803 12.0561L10.0382 12.6353L10.16 12.7921L10.1917 12.8327L10.1997 12.8431L10.2017 12.8457L10.2023 12.8464L10.2024 12.8465L10.005 13L10.2024 12.8466L10.255 12.9143V13V19C10.255 19.4119 10.5931 19.75 11.005 19.75H13.005C13.417 19.75 13.755 19.4119 13.755 19V13V12.9145L13.8074 12.8469L14.005 13ZM7.00502 5.75H6.48809L6.80905 6.15522L11.799 12.4552L11.9946 12.7022L12.1907 12.4556L17.2007 6.15561L17.5232 5.75H17.005H7.00502Z" fill="black"/>
</svg>
