<svg width="24" height="24" viewBox="0 0 24 24" fill="none" xmlns="http://www.w3.org/2000/svg">
<path fill-rule="evenodd" clip-rule="evenodd" d="M14.965 14.505H15.6513L20.3916 19.2548L19.2548 20.3916L14.505 15.6513V14.965V14.8641L14.435 14.7915L14.165 14.5115L14.0011 14.3415L13.822 14.4954C12.7256 15.438 11.3029 16.005 9.755 16.005C6.30308 16.005 3.505 13.2069 3.505 9.755C3.505 6.30308 6.30308 3.505 9.755 3.505C13.2069 3.505 16.005 6.30308 16.005 9.755C16.005 11.3029 15.438 12.7256 14.4954 13.822L14.3415 14.0011L14.5115 14.165L14.7915 14.435L14.8641 14.505H14.965ZM5.005 9.755C5.005 12.3831 7.12693 14.505 9.755 14.505C12.3831 14.505 14.505 12.3831 14.505 9.755C14.505 7.12693 12.3831 5.005 9.755 5.005C7.12693 5.005 5.005 7.12693 5.005 9.755Z" fill="black"/>
</svg>
