<svg width="24" height="24" viewBox="0 0 24 24" fill="none" xmlns="http://www.w3.org/2000/svg">
<path d="M7.65589 15V9.18182H11.3832V10.0653H8.70987V11.6449H11.1275V12.5284H8.70987V15H7.65589ZM12.3434 15V9.18182H14.5252C14.9722 9.18182 15.3472 9.26515 15.6502 9.43182C15.9551 9.59848 16.1853 9.82765 16.3406 10.1193C16.4978 10.4091 16.5763 10.7386 16.5763 11.108C16.5763 11.4811 16.4978 11.8125 16.3406 12.1023C16.1834 12.392 15.9513 12.6203 15.6445 12.7869C15.3377 12.9517 14.9599 13.0341 14.511 13.0341H13.065V12.1676H14.369C14.6303 12.1676 14.8443 12.1222 15.011 12.0312C15.1777 11.9403 15.3008 11.8153 15.3803 11.6562C15.4618 11.4972 15.5025 11.3144 15.5025 11.108C15.5025 10.9015 15.4618 10.7197 15.3803 10.5625C15.3008 10.4053 15.1767 10.2831 15.0082 10.196C14.8415 10.107 14.6265 10.0625 14.3633 10.0625H13.3974V15H12.3434Z" fill="black"/>
</svg>
