<svg width="24" height="24" viewBox="0 0 24 24" fill="none" xmlns="http://www.w3.org/2000/svg">
<path d="M13.4521 11.0398C13.4047 10.8864 13.3394 10.7491 13.256 10.6278C13.1746 10.5047 13.0761 10.3996 12.9606 10.3125C12.8469 10.2254 12.7163 10.16 12.5685 10.1165C12.4208 10.071 12.2598 10.0483 12.0856 10.0483C11.7731 10.0483 11.4947 10.1269 11.2504 10.2841C11.006 10.4413 10.8138 10.6723 10.6737 10.9773C10.5354 11.2803 10.4663 11.6496 10.4663 12.0852C10.4663 12.5246 10.5354 12.8968 10.6737 13.2017C10.8119 13.5066 11.0041 13.7386 11.2504 13.8977C11.4966 14.0549 11.7826 14.1335 12.1083 14.1335C12.4038 14.1335 12.6594 14.0767 12.8754 13.9631C13.0932 13.8494 13.2608 13.6884 13.3782 13.4801C13.4956 13.2699 13.5543 13.0237 13.5543 12.7415L13.793 12.7784H12.2134V11.9545H14.5742V12.6534C14.5742 13.1515 14.4682 13.5824 14.256 13.946C14.0439 14.3097 13.7522 14.59 13.381 14.7869C13.0098 14.982 12.5837 15.0795 12.1026 15.0795C11.5666 15.0795 11.096 14.9593 10.6907 14.7188C10.2873 14.4763 9.97195 14.1326 9.74467 13.6875C9.51929 13.2405 9.40661 12.7102 9.40661 12.0966C9.40661 11.6269 9.47289 11.2074 9.60547 10.8381C9.73994 10.4688 9.92744 10.1553 10.168 9.89773C10.4085 9.63826 10.6907 9.44129 11.0146 9.30682C11.3384 9.17045 11.6907 9.10227 12.0714 9.10227C12.3933 9.10227 12.6935 9.14962 12.9719 9.24432C13.2504 9.33712 13.4975 9.4697 13.7134 9.64205C13.9312 9.81439 14.1102 10.0189 14.2504 10.2557C14.3905 10.4924 14.4824 10.7538 14.5259 11.0398H13.4521Z" fill="black"/>
</svg>
