<svg width="24" height="24" viewBox="0 0 24 24" fill="none" xmlns="http://www.w3.org/2000/svg">
<rect opacity="0.25" x="2.87903" y="4.75" width="18.2419" height="14.5" rx="2" fill="black"/>
<path fill-rule="evenodd" clip-rule="evenodd" d="M4.00122 6.00006L4.00122 17.75L4.00122 18V6.00006ZM19.9988 18.2499L20.2488 18.2499V17.9999V6V5.75L19.9988 5.75L4.00122 5.75006L3.75122 5.75006V6.00006V18V18.25L4.00122 18.25L19.9988 18.2499ZM4.00122 4.25006L19.9988 4.25C20.9615 4.25 21.75 5.03822 21.75 6V17.9999C21.75 18.9617 20.9615 19.7499 19.9988 19.7499L4.00122 19.75C3.03848 19.75 2.25 18.9618 2.25 18V6.00006C2.25 5.03828 3.03848 4.25006 4.00122 4.25006Z" fill="black"/>
<path d="M7.02308 15V9.18182H8.07706V11.6449H10.7731V9.18182H11.8299V15H10.7731V12.5284H8.07706V15H7.02308ZM12.9762 15V9.18182H15.158C15.605 9.18182 15.98 9.26515 16.283 9.43182C16.588 9.59848 16.8181 9.82765 16.9734 10.1193C17.1306 10.4091 17.2092 10.7386 17.2092 11.108C17.2092 11.4811 17.1306 11.8125 16.9734 12.1023C16.8162 12.392 16.5842 12.6203 16.2773 12.7869C15.9705 12.9517 15.5927 13.0341 15.1438 13.0341H13.6978V12.1676H15.0018C15.2631 12.1676 15.4772 12.1222 15.6438 12.0312C15.8105 11.9403 15.9336 11.8153 16.0131 11.6562C16.0946 11.4972 16.1353 11.3144 16.1353 11.108C16.1353 10.9015 16.0946 10.7197 16.0131 10.5625C15.9336 10.4053 15.8095 10.2831 15.641 10.196C15.4743 10.107 15.2594 10.0625 14.9961 10.0625H14.0302V15H12.9762Z" fill="black"/>
</svg>
