<svg width="24" height="24" viewBox="0 0 24 24" fill="none" xmlns="http://www.w3.org/2000/svg">
<path d="M9.90128 9.18182V15H8.8473V9.18182H9.90128ZM11.0426 15V9.18182H13.2699C13.6903 9.18182 14.0398 9.24811 14.3182 9.38068C14.5985 9.51136 14.8078 9.69034 14.946 9.91761C15.0862 10.1449 15.1562 10.4025 15.1562 10.6903C15.1562 10.9271 15.1108 11.1297 15.0199 11.2983C14.929 11.465 14.8068 11.6004 14.6534 11.7045C14.5 11.8087 14.3286 11.8835 14.1392 11.929V11.9858C14.3456 11.9972 14.5436 12.0606 14.733 12.1761C14.9242 12.2898 15.0805 12.4508 15.2017 12.6591C15.3229 12.8674 15.3835 13.1193 15.3835 13.4148C15.3835 13.7159 15.3106 13.9867 15.1648 14.2273C15.0189 14.4659 14.7992 14.6544 14.5057 14.7926C14.2121 14.9309 13.8428 15 13.3977 15H11.0426ZM12.0966 14.1193H13.2301C13.6127 14.1193 13.8883 14.0464 14.0568 13.9006C14.2273 13.7528 14.3125 13.5634 14.3125 13.3324C14.3125 13.16 14.2699 13.0047 14.1847 12.8665C14.0994 12.7263 13.9782 12.6165 13.821 12.5369C13.6638 12.4555 13.4763 12.4148 13.2585 12.4148H12.0966V14.1193ZM12.0966 11.6562H13.1392C13.321 11.6562 13.4848 11.6231 13.6307 11.5568C13.7765 11.4886 13.8911 11.393 13.9744 11.2699C14.0597 11.1449 14.1023 10.9972 14.1023 10.8267C14.1023 10.6013 14.0227 10.4157 13.8636 10.2699C13.7064 10.1241 13.4725 10.0511 13.1619 10.0511H12.0966V11.6562Z" fill="black"/>
</svg>
