<svg width="24" height="24" viewBox="0 0 24 24" fill="none" xmlns="http://www.w3.org/2000/svg">
<path d="M7.63565 9.18182V15H6.58168V9.18182H7.63565ZM8.77699 15V9.18182H11.0043C11.4247 9.18182 11.7741 9.24811 12.0526 9.38068C12.3329 9.51136 12.5421 9.69034 12.6804 9.91761C12.8205 10.1449 12.8906 10.4025 12.8906 10.6903C12.8906 10.9271 12.8452 11.1297 12.7543 11.2983C12.6634 11.465 12.5412 11.6004 12.3878 11.7045C12.2344 11.8087 12.063 11.8835 11.8736 11.929V11.9858C12.08 11.9972 12.2779 12.0606 12.4673 12.1761C12.6586 12.2898 12.8149 12.4508 12.9361 12.6591C13.0573 12.8674 13.1179 13.1193 13.1179 13.4148C13.1179 13.7159 13.045 13.9867 12.8991 14.2273C12.7533 14.4659 12.5336 14.6544 12.2401 14.7926C11.9465 14.9309 11.5772 15 11.1321 15H8.77699ZM9.83097 14.1193H10.9645C11.3471 14.1193 11.6226 14.0464 11.7912 13.9006C11.9616 13.7528 12.0469 13.5634 12.0469 13.3324C12.0469 13.16 12.0043 13.0047 11.919 12.8665C11.8338 12.7263 11.7126 12.6165 11.5554 12.5369C11.3982 12.4555 11.2107 12.4148 10.9929 12.4148H9.83097V14.1193ZM9.83097 11.6562H10.8736C11.0554 11.6562 11.2192 11.6231 11.3651 11.5568C11.5109 11.4886 11.6255 11.393 11.7088 11.2699C11.794 11.1449 11.8366 10.9972 11.8366 10.8267C11.8366 10.6013 11.7571 10.4157 11.598 10.2699C11.4408 10.1241 11.2069 10.0511 10.8963 10.0511H9.83097V11.6562ZM14.0348 15V9.18182H15.0888V14.1165H17.6513V15H14.0348Z" fill="black"/>
</svg>
