<svg width="24" height="24" viewBox="0 0 24 24" fill="none" xmlns="http://www.w3.org/2000/svg">
<path d="M9.55753 9.18182V15H8.50355V9.18182H9.55753ZM15.679 11.1449H14.6165C14.5862 10.9706 14.5303 10.8163 14.4489 10.6818C14.3674 10.5455 14.2661 10.4299 14.1449 10.3352C14.0237 10.2405 13.8854 10.1695 13.7301 10.1222C13.5767 10.0729 13.411 10.0483 13.233 10.0483C12.9167 10.0483 12.6364 10.1278 12.392 10.2869C12.1477 10.4441 11.9564 10.6752 11.8182 10.9801C11.6799 11.2831 11.6108 11.6534 11.6108 12.0909C11.6108 12.536 11.6799 12.911 11.8182 13.2159C11.9583 13.5189 12.1496 13.7481 12.392 13.9034C12.6364 14.0568 12.9157 14.1335 13.2301 14.1335C13.4044 14.1335 13.5672 14.1108 13.7188 14.0653C13.8722 14.018 14.0095 13.9489 14.1307 13.858C14.2538 13.767 14.357 13.6553 14.4403 13.5227C14.5256 13.3902 14.5843 13.2386 14.6165 13.0682L15.679 13.0739C15.6392 13.3504 15.553 13.6098 15.4205 13.8523C15.2898 14.0947 15.1184 14.3087 14.9062 14.4943C14.6941 14.678 14.446 14.822 14.1619 14.9261C13.8778 15.0284 13.5625 15.0795 13.2159 15.0795C12.7045 15.0795 12.2481 14.9612 11.8466 14.7244C11.4451 14.4877 11.1288 14.1458 10.8977 13.6989C10.6667 13.2519 10.5511 12.7159 10.5511 12.0909C10.5511 11.464 10.6676 10.928 10.9006 10.483C11.1335 10.036 11.4508 9.69413 11.8523 9.45739C12.2538 9.22064 12.7083 9.10227 13.2159 9.10227C13.5398 9.10227 13.8409 9.14773 14.1193 9.23864C14.3977 9.32955 14.6458 9.46307 14.8636 9.6392C15.0814 9.81345 15.2604 10.0275 15.4006 10.2812C15.5426 10.5331 15.6354 10.821 15.679 11.1449Z" fill="black"/>
</svg>
