<svg width="24" height="24" viewBox="0 0 24 24" fill="none" xmlns="http://www.w3.org/2000/svg">
<rect opacity="0.1" x="3.75" y="5.74512" width="16.5" height="12.5" fill="black"/>
<path opacity="0.4" fill-rule="evenodd" clip-rule="evenodd" d="M4.00122 6.00006L4.00122 17.75L4.00122 18V6.00006ZM19.9988 18.2499L20.2488 18.2499V17.9999V6V5.75L19.9988 5.75L4.00122 5.75006L3.75122 5.75006V6.00006V18V18.25L4.00122 18.25L19.9988 18.2499ZM4.00122 4.25006L19.9988 4.25C20.9615 4.25 21.75 5.03822 21.75 6V17.9999C21.75 18.9617 20.9615 19.7499 19.9988 19.7499L4.00122 19.75C3.03848 19.75 2.25 18.9618 2.25 18V6.00006C2.25 5.03828 3.03848 4.25006 4.00122 4.25006Z" fill="black"/>
<path opacity="0.4" d="M6.538 9.17694V14.9951H5.48402V9.17694H6.538ZM11.5771 11.0349C11.5297 10.8815 11.4644 10.7442 11.381 10.623C11.2996 10.4999 11.2011 10.3947 11.0856 10.3076C10.9719 10.2205 10.8413 10.1552 10.6935 10.1116C10.5458 10.0661 10.3848 10.0434 10.2106 10.0434C9.89808 10.0434 9.61967 10.122 9.37536 10.2792C9.13104 10.4364 8.9388 10.6675 8.79865 10.9724C8.66039 11.2754 8.59126 11.6447 8.59126 12.0803C8.59126 12.5197 8.66039 12.8919 8.79865 13.1968C8.93691 13.5017 9.12914 13.7338 9.37536 13.8928C9.62157 14.05 9.90755 14.1286 10.2333 14.1286C10.5288 14.1286 10.7844 14.0718 11.0004 13.9582C11.2182 13.8445 11.3858 13.6836 11.5032 13.4752C11.6206 13.265 11.6793 13.0188 11.6793 12.7366L11.918 12.7735H10.3384V11.9497H12.6992V12.6485C12.6992 13.1466 12.5932 13.5775 12.381 13.9411C12.1689 14.3048 11.8772 14.5851 11.506 14.782C11.1348 14.9771 10.7087 15.0747 10.2276 15.0747C9.69164 15.0747 9.221 14.9544 8.8157 14.7139C8.41229 14.4714 8.09695 14.1277 7.86967 13.6826C7.64429 13.2356 7.53161 12.7053 7.53161 12.0917C7.53161 11.622 7.59789 11.2025 7.73047 10.8332C7.86494 10.4639 8.05244 10.1504 8.29297 9.89284C8.5335 9.63337 8.8157 9.4364 9.13956 9.30194C9.46342 9.16557 9.8157 9.09739 10.1964 9.09739C10.5183 9.09739 10.8185 9.14474 11.0969 9.23944C11.3754 9.33224 11.6225 9.46481 11.8384 9.63716C12.0562 9.80951 12.2352 10.0141 12.3754 10.2508C12.5155 10.4875 12.6074 10.7489 12.6509 11.0349H11.5771ZM18.6985 11.14H17.636C17.6057 10.9658 17.5498 10.8114 17.4684 10.6769C17.387 10.5406 17.2856 10.425 17.1644 10.3303C17.0432 10.2356 16.9049 10.1646 16.7496 10.1173C16.5962 10.068 16.4305 10.0434 16.2525 10.0434C15.9362 10.0434 15.6559 10.123 15.4116 10.282C15.1673 10.4392 14.976 10.6703 14.8377 10.9752C14.6995 11.2783 14.6303 11.6485 14.6303 12.086C14.6303 12.5311 14.6995 12.9061 14.8377 13.211C14.9779 13.5141 15.1692 13.7432 15.4116 13.8985C15.6559 14.0519 15.9353 14.1286 16.2496 14.1286C16.4239 14.1286 16.5868 14.1059 16.7383 14.0605C16.8917 14.0131 17.029 13.944 17.1502 13.8531C17.2733 13.7622 17.3765 13.6504 17.4599 13.5178C17.5451 13.3853 17.6038 13.2338 17.636 13.0633L18.6985 13.069C18.6587 13.3455 18.5726 13.605 18.44 13.8474C18.3093 14.0898 18.1379 14.3038 17.9258 14.4894C17.7137 14.6731 17.4656 14.8171 17.1815 14.9213C16.8974 15.0235 16.582 15.0747 16.2354 15.0747C15.7241 15.0747 15.2676 14.9563 14.8661 14.7195C14.4646 14.4828 14.1483 14.141 13.9173 13.694C13.6862 13.247 13.5707 12.711 13.5707 12.086C13.5707 11.4591 13.6871 10.9231 13.9201 10.4781C14.1531 10.0311 14.4703 9.68925 14.8718 9.4525C15.2733 9.21576 15.7279 9.09739 16.2354 9.09739C16.5593 9.09739 16.8604 9.14284 17.1388 9.23375C17.4173 9.32466 17.6654 9.45819 17.8832 9.63432C18.101 9.80856 18.2799 10.0226 18.4201 10.2764C18.5621 10.5283 18.6549 10.8161 18.6985 11.14Z" fill="black"/>
</svg>
