<svg width="24" height="24" viewBox="0 0 24 24" fill="none" xmlns="http://www.w3.org/2000/svg">
<rect opacity="0.25" x="2.87903" y="4.75" width="18.2419" height="14.5" rx="2" fill="black"/>
<path fill-rule="evenodd" clip-rule="evenodd" d="M4.00122 6.00006L4.00122 17.75L4.00122 18V6.00006ZM19.9988 18.2499L20.2488 18.2499V17.9999V6V5.75L19.9988 5.75L4.00122 5.75006L3.75122 5.75006V6.00006V18V18.25L4.00122 18.25L19.9988 18.2499ZM4.00122 4.25006L19.9988 4.25C20.9615 4.25 21.75 5.03822 21.75 6V17.9999C21.75 18.9617 20.9615 19.7499 19.9988 19.7499L4.00122 19.75C3.03848 19.75 2.25 18.9618 2.25 18V6.00006C2.25 5.03828 3.03848 4.25006 4.00122 4.25006Z" fill="black"/>
<path d="M6.538 9.18182V15H5.48402V9.18182H6.538ZM11.5771 11.0398C11.5297 10.8864 11.4644 10.7491 11.381 10.6278C11.2996 10.5047 11.2011 10.3996 11.0856 10.3125C10.9719 10.2254 10.8413 10.16 10.6935 10.1165C10.5458 10.071 10.3848 10.0483 10.2106 10.0483C9.89808 10.0483 9.61967 10.1269 9.37536 10.2841C9.13104 10.4413 8.9388 10.6723 8.79865 10.9773C8.66039 11.2803 8.59126 11.6496 8.59126 12.0852C8.59126 12.5246 8.66039 12.8968 8.79865 13.2017C8.93691 13.5066 9.12914 13.7386 9.37536 13.8977C9.62157 14.0549 9.90755 14.1335 10.2333 14.1335C10.5288 14.1335 10.7844 14.0767 11.0004 13.9631C11.2182 13.8494 11.3858 13.6884 11.5032 13.4801C11.6206 13.2699 11.6793 13.0237 11.6793 12.7415L11.918 12.7784H10.3384V11.9545H12.6992V12.6534C12.6992 13.1515 12.5932 13.5824 12.381 13.946C12.1689 14.3097 11.8772 14.59 11.506 14.7869C11.1348 14.982 10.7087 15.0795 10.2276 15.0795C9.69164 15.0795 9.221 14.9593 8.8157 14.7188C8.41229 14.4763 8.09695 14.1326 7.86967 13.6875C7.64429 13.2405 7.53161 12.7102 7.53161 12.0966C7.53161 11.6269 7.59789 11.2074 7.73047 10.8381C7.86494 10.4688 8.05244 10.1553 8.29297 9.89773C8.5335 9.63826 8.8157 9.44129 9.13956 9.30682C9.46342 9.17045 9.8157 9.10227 10.1964 9.10227C10.5183 9.10227 10.8185 9.14962 11.0969 9.24432C11.3754 9.33712 11.6225 9.4697 11.8384 9.64205C12.0562 9.81439 12.2352 10.0189 12.3754 10.2557C12.5155 10.4924 12.6074 10.7538 12.6509 11.0398H11.5771ZM18.6985 11.1449H17.636C17.6057 10.9706 17.5498 10.8163 17.4684 10.6818C17.387 10.5455 17.2856 10.4299 17.1644 10.3352C17.0432 10.2405 16.9049 10.1695 16.7496 10.1222C16.5962 10.0729 16.4305 10.0483 16.2525 10.0483C15.9362 10.0483 15.6559 10.1278 15.4116 10.2869C15.1673 10.4441 14.976 10.6752 14.8377 10.9801C14.6995 11.2831 14.6303 11.6534 14.6303 12.0909C14.6303 12.536 14.6995 12.911 14.8377 13.2159C14.9779 13.5189 15.1692 13.7481 15.4116 13.9034C15.6559 14.0568 15.9353 14.1335 16.2496 14.1335C16.4239 14.1335 16.5868 14.1108 16.7383 14.0653C16.8917 14.018 17.029 13.9489 17.1502 13.858C17.2733 13.767 17.3765 13.6553 17.4599 13.5227C17.5451 13.3902 17.6038 13.2386 17.636 13.0682L18.6985 13.0739C18.6587 13.3504 18.5726 13.6098 18.44 13.8523C18.3093 14.0947 18.1379 14.3087 17.9258 14.4943C17.7137 14.678 17.4656 14.822 17.1815 14.9261C16.8974 15.0284 16.582 15.0795 16.2354 15.0795C15.7241 15.0795 15.2676 14.9612 14.8661 14.7244C14.4646 14.4877 14.1483 14.1458 13.9173 13.6989C13.6862 13.2519 13.5707 12.7159 13.5707 12.0909C13.5707 11.464 13.6871 10.928 13.9201 10.483C14.1531 10.036 14.4703 9.69413 14.8718 9.45739C15.2733 9.22064 15.7279 9.10227 16.2354 9.10227C16.5593 9.10227 16.8604 9.14773 17.1388 9.23864C17.4173 9.32955 17.6654 9.46307 17.8832 9.6392C18.101 9.81345 18.2799 10.0275 18.4201 10.2812C18.5621 10.5331 18.6549 10.821 18.6985 11.1449Z" fill="black"/>
</svg>
