<svg width="24" height="24" viewBox="0 0 24 24" fill="none" xmlns="http://www.w3.org/2000/svg">
<path fill-rule="evenodd" clip-rule="evenodd" d="M12.75 8.75V7.25H11.25V8.75H12.75ZM12.75 16.75V11.25H11.25V16.75H12.75ZM2.25 12C2.25 6.61807 6.61807 2.25 12 2.25C17.3819 2.25 21.75 6.61807 21.75 12C21.75 17.3819 17.3819 21.75 12 21.75C6.61807 21.75 2.25 17.3819 2.25 12ZM3.75 12C3.75 16.5481 7.45193 20.25 12 20.25C16.5481 20.25 20.25 16.5481 20.25 12C20.25 7.45193 16.5481 3.75 12 3.75C7.45193 3.75 3.75 7.45193 3.75 12Z" fill="black"/>
</svg>
