<svg width="24" height="24" viewBox="0 0 24 24" fill="none" xmlns="http://www.w3.org/2000/svg">
<path fill-rule="evenodd" clip-rule="evenodd" d="M8.21552 8.25L8.39642 7.8882L9.89642 4.8882L9.96552 4.75H10.12H11.88H12.0345L12.1036 4.8882L13.6036 7.8882L13.7845 8.25H13.38H8.62002H8.21552ZM10.25 9.75V10V16.68V17.3711L9.80788 16.8399L4.24788 10.1599L3.90667 9.75H4.44003H10H10.25ZM11.75 9.75H12H17.56H18.0934L17.7522 10.1599L17.1534 10.8793H19.1085L20.7033 8.96556L17.8455 3.25H4.15453L1.29675 8.96556L11 20.6095L13.6572 17.4209L12.6566 16.282L12.1922 16.8399L11.75 17.3711V16.68V15.2502L11.7068 15.201L11.75 15.119V10V9.75ZM13.6064 15.1408L14.6077 16.2803L14.6184 16.2674L13.643 15.0969L13.6064 15.1408ZM18.6645 8.25H18.26H15.61H15.4555L15.3864 8.1118L13.8864 5.1118L13.7055 4.75H14.11H16.76H16.9145L16.9836 4.8882L18.4836 7.8882L18.6645 8.25ZM5.08552 4.75H5.24002H7.89003H8.29453L8.11363 5.1118L6.61363 8.1118L6.54453 8.25H6.39003H3.74002H3.33552L3.51642 7.8882L5.01642 4.8882L5.08552 4.75Z" fill="black"/>
<path d="M21.5616 12.0601H14.912L13.4871 14.9099L18.2368 20.6095L22.9865 14.9099L21.5616 12.0601ZM17.1064 14.4349L17.8188 13.01H18.6548L19.3672 14.4349H17.1064ZM17.7618 15.3848V18.5576L15.121 15.3848H17.7618ZM18.7118 15.3848H21.3526L18.7118 18.5576V15.3848ZM21.6851 14.4349H20.4264L19.714 13.01H20.9726L21.6851 14.4349ZM15.501 13.01H16.7597L16.0472 14.4349H14.7885L15.501 13.01Z" fill="black"/>
</svg>
