<svg width="24" height="24" viewBox="0 0 24 24" fill="none" xmlns="http://www.w3.org/2000/svg">
<path fill-rule="evenodd" clip-rule="evenodd" d="M8.21552 8.25L8.39642 7.8882L9.89642 4.8882L9.96552 4.75H10.12H11.88H12.0345L12.1036 4.8882L13.6036 7.8882L13.7845 8.25H13.38H8.62002H8.21552ZM10.25 9.75V10V16.68V17.3711L9.80788 16.8399L4.24788 10.1599L3.90667 9.75H4.44003H10H10.25ZM11.75 9.75H12H17.56H18.0934L17.7522 10.1599L16.4901 11.6763C16.9746 11.561 17.4802 11.5 18 11.5C18.1923 11.5 18.3826 11.5083 18.5707 11.5247L20.7033 8.96556L17.8455 3.25H4.15453L1.29675 8.96556L11 20.6095L11.7328 19.7301C11.5811 19.1793 11.5 18.5991 11.5 18C11.5 17.3786 11.5872 16.7776 11.75 16.2086V10V9.75ZM18.6645 8.25H18.26H15.61H15.4555L15.3864 8.1118L13.8864 5.1118L13.7055 4.75H14.11H16.76H16.9145L16.9836 4.8882L18.4836 7.8882L18.6645 8.25ZM5.08552 4.75H5.24002H7.89003H8.29453L8.11363 5.1118L6.61363 8.1118L6.54453 8.25H6.39003H3.74002H3.33552L3.51642 7.8882L5.01642 4.8882L5.08552 4.75Z" fill="black"/>
<path fill-rule="evenodd" clip-rule="evenodd" d="M18 23C20.7614 23 23 20.7614 23 18C23 15.2386 20.7614 13 18 13C15.2386 13 13 15.2386 13 18C13 20.7614 15.2386 23 18 23ZM18.925 16.7394C18.978 16.8151 19.0168 16.9032 19.0415 17.0036H20.6381C20.6078 16.7119 20.5225 16.4439 20.3824 16.1996C20.2422 15.9553 20.0576 15.7441 19.8284 15.5661C19.6011 15.3861 19.3388 15.2479 19.0415 15.1513C18.746 15.0528 18.4259 15.0036 18.0812 15.0036C17.6892 15.0036 17.3218 15.0698 16.979 15.2024C16.6362 15.3331 16.3341 15.5272 16.0727 15.7848C15.8114 16.0405 15.6068 16.3539 15.4591 16.7252C15.3133 17.0964 15.2403 17.5225 15.2403 18.0036C15.2403 18.6172 15.3597 19.1466 15.5983 19.5916C15.8388 20.0367 16.1731 20.3795 16.6011 20.62C17.0292 20.8606 17.5263 20.9808 18.0926 20.9808C18.6002 20.9808 19.05 20.8814 19.442 20.6825C19.836 20.4818 20.1447 20.1939 20.3682 19.8189C20.5936 19.442 20.7062 18.9884 20.7062 18.4581V17.6513H18.1267V18.7763H19.1832C19.179 18.9386 19.1394 19.0807 19.0642 19.2024C18.9847 19.3312 18.8644 19.4306 18.7034 19.5007C18.5443 19.5708 18.3445 19.6058 18.104 19.6058C17.8312 19.6058 17.603 19.5414 17.4193 19.4127C17.2356 19.2839 17.0973 19.0983 17.0045 18.8558C16.9117 18.6134 16.8653 18.3217 16.8653 17.9808C16.8653 17.6437 16.9136 17.3558 17.0102 17.1172C17.1087 16.8786 17.2508 16.6958 17.4364 16.5689C17.6239 16.442 17.8502 16.3786 18.1153 16.3786C18.2384 16.3786 18.3511 16.3928 18.4534 16.4212C18.5576 16.4477 18.6485 16.4884 18.7261 16.5433C18.8057 16.5964 18.872 16.6617 18.925 16.7394Z" fill="black"/>
</svg>
