<svg width="24" height="24" viewBox="0 0 24 24" fill="none" xmlns="http://www.w3.org/2000/svg">
<rect opacity="0.25" x="2.87903" y="4.75" width="18.2419" height="14.5" rx="2" fill="black"/>
<path fill-rule="evenodd" clip-rule="evenodd" d="M4.00122 6.00006L4.00122 17.75L4.00122 18V6.00006ZM19.9988 18.2499L20.2488 18.2499V17.9999V6V5.75L19.9988 5.75L4.00122 5.75006L3.75122 5.75006V6.00006V18V18.25L4.00122 18.25L19.9988 18.2499ZM4.00122 4.25006L19.9988 4.25C20.9615 4.25 21.75 5.03822 21.75 6V17.9999C21.75 18.9617 20.9615 19.7499 19.9988 19.7499L4.00122 19.75C3.03848 19.75 2.25 18.9618 2.25 18V6.00006C2.25 5.03828 3.03848 4.25006 4.00122 4.25006Z" fill="black"/>
<path d="M9.95597 9.18182V15H8.90199V9.18182H9.95597ZM11.0973 15V9.18182H13.2791C13.7261 9.18182 14.1011 9.26515 14.4041 9.43182C14.709 9.59848 14.9392 9.82765 15.0945 10.1193C15.2517 10.4091 15.3303 10.7386 15.3303 11.108C15.3303 11.4811 15.2517 11.8125 15.0945 12.1023C14.9373 12.392 14.7053 12.6203 14.3984 12.7869C14.0916 12.9517 13.7138 13.0341 13.2649 13.0341H11.8189V12.1676H13.1229C13.3842 12.1676 13.5982 12.1222 13.7649 12.0312C13.9316 11.9403 14.0547 11.8153 14.1342 11.6562C14.2157 11.4972 14.2564 11.3144 14.2564 11.108C14.2564 10.9015 14.2157 10.7197 14.1342 10.5625C14.0547 10.4053 13.9306 10.2831 13.7621 10.196C13.5954 10.107 13.3804 10.0625 13.1172 10.0625H12.1513V15H11.0973Z" fill="black"/>
</svg>
