<svg width="24" height="24" viewBox="0 0 24 24" fill="none" xmlns="http://www.w3.org/2000/svg">
<path d="M9.92862 9.18182V15H8.87464V9.18182H9.92862ZM11.07 15V9.18182H13.2518C13.6987 9.18182 14.0737 9.25947 14.3768 9.41477C14.6817 9.57008 14.9118 9.78788 15.0671 10.0682C15.2243 10.3466 15.3029 10.6714 15.3029 11.0426C15.3029 11.4157 15.2234 11.7396 15.0643 12.0142C14.9071 12.2869 14.6751 12.4981 14.3683 12.6477C14.0614 12.7955 13.6845 12.8693 13.2376 12.8693H11.6836V11.9943H13.0955C13.3569 11.9943 13.5709 11.9583 13.7376 11.8864C13.9042 11.8125 14.0273 11.7055 14.1069 11.5653C14.1883 11.4233 14.229 11.2491 14.229 11.0426C14.229 10.8362 14.1883 10.66 14.1069 10.5142C14.0254 10.3665 13.9014 10.2547 13.7347 10.179C13.5681 10.1013 13.3531 10.0625 13.0898 10.0625H12.1239V15H11.07ZM14.0756 12.3636L15.516 15H14.3398L12.9251 12.3636H14.0756Z" fill="black"/>
</svg>
