<svg width="24" height="24" viewBox="0 0 24 24" fill="none" xmlns="http://www.w3.org/2000/svg">
<rect opacity="0.25" x="2.87903" y="4.75" width="18.2419" height="14.5" rx="2" fill="black"/>
<path fill-rule="evenodd" clip-rule="evenodd" d="M4.00122 6.00006L4.00122 17.75L4.00122 18V6.00006ZM19.9988 18.2499L20.2488 18.2499V17.9999V6V5.75L19.9988 5.75L4.00122 5.75006L3.75122 5.75006V6.00006V18V18.25L4.00122 18.25L19.9988 18.2499ZM4.00122 4.25006L19.9988 4.25C20.9615 4.25 21.75 5.03822 21.75 6V17.9999C21.75 18.9617 20.9615 19.7499 19.9988 19.7499L4.00122 19.75C3.03848 19.75 2.25 18.9618 2.25 18V6.00006C2.25 5.03828 3.03848 4.25006 4.00122 4.25006Z" fill="black"/>
<path d="M9.65447 9.18182H10.6999V13.2727C10.698 13.6477 10.6185 13.9706 10.4613 14.2415C10.3041 14.5104 10.0844 14.7178 9.8022 14.8636C9.5219 15.0076 9.19519 15.0795 8.82209 15.0795C8.48118 15.0795 8.17436 15.0189 7.90163 14.8977C7.6308 14.7746 7.41584 14.5928 7.25675 14.3523C7.09766 14.1117 7.01811 13.8125 7.01811 13.4545H8.06641C8.0683 13.6117 8.10239 13.7472 8.16868 13.8608C8.23686 13.9744 8.33061 14.0616 8.44993 14.1222C8.56925 14.1828 8.70656 14.2131 8.86186 14.2131C9.03042 14.2131 9.17341 14.178 9.29084 14.108C9.40826 14.036 9.49728 13.9299 9.55788 13.7898C9.62038 13.6496 9.65258 13.4773 9.65447 13.2727V9.18182ZM16.8235 11.1449H15.761C15.7307 10.9706 15.6748 10.8163 15.5934 10.6818C15.512 10.5455 15.4106 10.4299 15.2894 10.3352C15.1682 10.2405 15.0299 10.1695 14.8746 10.1222C14.7212 10.0729 14.5555 10.0483 14.3775 10.0483C14.0612 10.0483 13.7809 10.1278 13.5366 10.2869C13.2923 10.4441 13.101 10.6752 12.9627 10.9801C12.8245 11.2831 12.7553 11.6534 12.7553 12.0909C12.7553 12.536 12.8245 12.911 12.9627 13.2159C13.1029 13.5189 13.2942 13.7481 13.5366 13.9034C13.7809 14.0568 14.0603 14.1335 14.3746 14.1335C14.5489 14.1335 14.7118 14.1108 14.8633 14.0653C15.0167 14.018 15.154 13.9489 15.2752 13.858C15.3983 13.767 15.5015 13.6553 15.5849 13.5227C15.6701 13.3902 15.7288 13.2386 15.761 13.0682L16.8235 13.0739C16.7837 13.3504 16.6976 13.6098 16.565 13.8523C16.4343 14.0947 16.2629 14.3087 16.0508 14.4943C15.8387 14.678 15.5906 14.822 15.3065 14.9261C15.0224 15.0284 14.707 15.0795 14.3604 15.0795C13.8491 15.0795 13.3926 14.9612 12.9911 14.7244C12.5896 14.4877 12.2733 14.1458 12.0423 13.6989C11.8112 13.2519 11.6957 12.7159 11.6957 12.0909C11.6957 11.464 11.8121 10.928 12.0451 10.483C12.2781 10.036 12.5953 9.69413 12.9968 9.45739C13.3983 9.22064 13.8529 9.10227 14.3604 9.10227C14.6843 9.10227 14.9854 9.14773 15.2638 9.23864C15.5423 9.32955 15.7904 9.46307 16.0082 9.6392C16.226 9.81345 16.4049 10.0275 16.5451 10.2812C16.6871 10.5331 16.7799 10.821 16.8235 11.1449Z" fill="black"/>
</svg>
