<svg width="24" height="24" viewBox="0 0 24 24" fill="none" xmlns="http://www.w3.org/2000/svg">
<path d="M7.2848 15V9.18182H8.33878V11.8551H8.4098L10.6797 9.18182H11.9666L9.71662 11.7926L11.9865 15H10.7195L8.98366 12.5057L8.33878 13.267V15H7.2848ZM15.8295 10.7812C15.803 10.5331 15.6913 10.34 15.4943 10.2017C15.2992 10.0634 15.0455 9.99432 14.733 9.99432C14.5133 9.99432 14.3248 10.0275 14.1676 10.0938C14.0104 10.16 13.8902 10.25 13.8068 10.3636C13.7235 10.4773 13.6809 10.607 13.679 10.7528C13.679 10.8741 13.7064 10.9792 13.7614 11.0682C13.8182 11.1572 13.8949 11.233 13.9915 11.2955C14.0881 11.3561 14.1951 11.4072 14.3125 11.4489C14.4299 11.4905 14.5483 11.5256 14.6676 11.554L15.2131 11.6903C15.4328 11.7415 15.6439 11.8106 15.8466 11.8977C16.0511 11.9848 16.2339 12.0947 16.3949 12.2273C16.5578 12.3598 16.6866 12.5199 16.7812 12.7074C16.8759 12.8949 16.9233 13.1146 16.9233 13.3665C16.9233 13.7074 16.8362 14.0076 16.6619 14.267C16.4877 14.5246 16.2358 14.7263 15.9062 14.8722C15.5786 15.0161 15.1818 15.0881 14.7159 15.0881C14.2633 15.0881 13.8703 15.018 13.5369 14.8778C13.2055 14.7377 12.946 14.5331 12.7585 14.2642C12.5729 13.9953 12.4725 13.6676 12.4574 13.2812H13.4943C13.5095 13.4839 13.572 13.6525 13.6818 13.7869C13.7917 13.9214 13.9347 14.0218 14.1108 14.0881C14.2888 14.1544 14.4877 14.1875 14.7074 14.1875C14.9366 14.1875 15.1373 14.1534 15.3097 14.0852C15.4839 14.0152 15.6203 13.9186 15.7188 13.7955C15.8172 13.6705 15.8674 13.5246 15.8693 13.358C15.8674 13.2064 15.8229 13.0814 15.7358 12.983C15.6487 12.8826 15.5265 12.7992 15.3693 12.733C15.214 12.6648 15.0322 12.6042 14.8239 12.5511L14.1619 12.3807C13.6828 12.2576 13.304 12.071 13.0256 11.821C12.7491 11.5691 12.6108 11.2348 12.6108 10.8182C12.6108 10.4754 12.7036 10.1752 12.8892 9.91761C13.0767 9.66004 13.3314 9.46023 13.6534 9.31818C13.9754 9.17424 14.34 9.10227 14.7472 9.10227C15.16 9.10227 15.5218 9.17424 15.8324 9.31818C16.1449 9.46023 16.3902 9.65814 16.5682 9.91193C16.7462 10.1638 16.8381 10.4536 16.8438 10.7812H15.8295Z" fill="black"/>
</svg>
