<svg width="24" height="24" viewBox="0 0 24 24" fill="none" xmlns="http://www.w3.org/2000/svg">
<rect opacity="0.25" x="2.87903" y="4.75" width="18.2419" height="14.5" rx="2" fill="black"/>
<path fill-rule="evenodd" clip-rule="evenodd" d="M4.00122 6.00006L4.00122 17.75L4.00122 18V6.00006ZM19.9988 18.2499L20.2488 18.2499V17.9999V6V5.75L19.9988 5.75L4.00122 5.75006L3.75122 5.75006V6.00006V18V18.25L4.00122 18.25L19.9988 18.2499ZM4.00122 4.25006L19.9988 4.25C20.9615 4.25 21.75 5.03822 21.75 6V17.9999C21.75 18.9617 20.9615 19.7499 19.9988 19.7499L4.00122 19.75C3.03848 19.75 2.25 18.9618 2.25 18V6.00006C2.25 5.03828 3.03848 4.25006 4.00122 4.25006Z" fill="black"/>
<path d="M6.05433 9.18182H7.34411L9.07138 13.3977H9.13956L10.8668 9.18182H12.1566V15H11.1452V11.0028H11.0913L9.48331 14.983H8.72763L7.11967 10.9943H7.0657V15H6.05433V9.18182ZM14.0515 15H12.9265L14.9748 9.18182H16.2759L18.3271 15H17.2021L15.6481 10.375H15.6026L14.0515 15ZM14.0884 12.7188H17.1566V13.5653H14.0884V12.7188Z" fill="black"/>
</svg>
