<svg width="24" height="24" viewBox="0 0 24 24" fill="none" xmlns="http://www.w3.org/2000/svg">
<path fill-rule="evenodd" clip-rule="evenodd" d="M19.75 11H20V10.75V4.75V4.5H19.75H15.75H11.75H11.5V4.75V10.75V11H11.75H19.75ZM11.75 3H19.75C20.7119 3 21.5 3.78807 21.5 4.75V10.75C21.5 11.7119 20.7119 12.5 19.75 12.5H11.75C10.7881 12.5 10 11.7119 10 10.75V4.75C10 3.78807 10.7881 3 11.75 3Z" fill="black"/>
<path fill-rule="evenodd" clip-rule="evenodd" d="M15.5315 8.58567L10.5315 4.58567L11.4685 3.41437L16 7.03955L20.5315 3.41437L21.4685 4.58567L16.4685 8.58567L16 8.96049L15.5315 8.58567ZM12.6736 20.6753L3.92664 20.6753C2.96014 20.6753 2.17664 19.8918 2.17664 18.9253V12.0896H3.67664L3.67664 18.9253C3.67664 19.0634 3.78856 19.1753 3.92664 19.1753L12.6736 19.1753V20.6753ZM7.92664 16.6753L16.6736 16.6753L16.6736 15.1753L7.92664 15.1753C7.78856 15.1753 7.67664 15.0634 7.67664 14.9253V8.08956H6.17664L6.17664 14.9253C6.17664 15.8918 6.96014 16.6753 7.92664 16.6753Z" fill="black"/>
</svg>
