<svg width="24" height="24" viewBox="0 0 24 24" fill="none" xmlns="http://www.w3.org/2000/svg">
<path fill-rule="evenodd" clip-rule="evenodd" d="M10.5 14.0201V4.02014H19.5V14.0201H10.5ZM9.00001 3.52014C9.00001 2.96786 9.44772 2.52014 10 2.52014H20C20.5523 2.52014 21 2.96786 21 3.52014V14.5201C21 15.0724 20.5523 15.5201 20 15.5201H10C9.44772 15.5201 9.00001 15.0724 9.00001 14.5201V3.52014ZM13.9714 9.42857H11.5714L15 6L18.4286 9.42857H16.0843V12H13.9714V9.42857ZM3.17664 19.9253V9.99949H4.67664L4.67664 19.9253C4.67664 20.0634 4.78857 20.1753 4.92664 20.1753L13.6736 20.1753V21.6753L4.92664 21.6753C3.96014 21.6753 3.17664 20.8918 3.17664 19.9253ZM6.17664 6.98547L6.17662 16.9253C6.17662 17.8918 6.96012 18.6753 7.92662 18.6753L16.6736 18.6753V17.1753L7.92662 17.1753C7.78855 17.1753 7.67662 17.0634 7.67662 16.9253L7.67664 6.98548L6.17664 6.98547Z" fill="black"/>
</svg>
