<svg width="24" height="24" viewBox="0 0 24 24" fill="none" xmlns="http://www.w3.org/2000/svg">
<path fill-rule="evenodd" clip-rule="evenodd" d="M8.90869 11.25H3.41937V12.75H8.90869V11.25ZM16.1744 12.75H20.9194V11.25H17.6744L16.1744 12.75ZM12.7749 6.25H3.41937V7.75H11.2749L12.7749 6.25ZM20.9194 16.25H3.41937V17.75H20.9194V16.25Z" fill="black"/>
<path d="M9.95312 11.3525V14.0598H12.661L20.6444 6.07809L17.9366 3.36894L9.95312 11.3525ZM22.7406 3.98242C22.8079 3.91556 22.8614 3.83604 22.8979 3.74843C22.9343 3.66082 22.9531 3.56686 22.9531 3.47196C22.9531 3.37706 22.9343 3.2831 22.8979 3.19549C22.8614 3.10788 22.8079 3.02836 22.7406 2.9615L21.051 1.27234C20.9842 1.205 20.9046 1.15154 20.817 1.11507C20.7294 1.07859 20.6354 1.05981 20.5405 1.05981C20.4455 1.05981 20.3516 1.07859 20.2639 1.11507C20.1763 1.15154 20.0968 1.205 20.0299 1.27234L18.7117 2.59583L21.4196 5.30312L22.7406 3.98242Z" fill="black"/>
</svg>
