<svg width="24" height="24" viewBox="0 0 24 24" fill="none" xmlns="http://www.w3.org/2000/svg">
<path d="M11.4176 9.18182V15H10.4801L7.73864 11.0369H7.69034V15H6.63636V9.18182H7.57955L10.3182 13.1477H10.3693V9.18182H11.4176ZM17.5462 11.1449H16.4837C16.4534 10.9706 16.3975 10.8163 16.3161 10.6818C16.2346 10.5455 16.1333 10.4299 16.0121 10.3352C15.8909 10.2405 15.7526 10.1695 15.5973 10.1222C15.4439 10.0729 15.2782 10.0483 15.1001 10.0483C14.7839 10.0483 14.5036 10.1278 14.2592 10.2869C14.0149 10.4441 13.8236 10.6752 13.6854 10.9801C13.5471 11.2831 13.478 11.6534 13.478 12.0909C13.478 12.536 13.5471 12.911 13.6854 13.2159C13.8255 13.5189 14.0168 13.7481 14.2592 13.9034C14.5036 14.0568 14.7829 14.1335 15.0973 14.1335C15.2715 14.1335 15.4344 14.1108 15.5859 14.0653C15.7393 14.018 15.8767 13.9489 15.9979 13.858C16.121 13.767 16.2242 13.6553 16.3075 13.5227C16.3928 13.3902 16.4515 13.2386 16.4837 13.0682L17.5462 13.0739C17.5064 13.3504 17.4202 13.6098 17.2876 13.8523C17.157 14.0947 16.9856 14.3087 16.7734 14.4943C16.5613 14.678 16.3132 14.822 16.0291 14.9261C15.745 15.0284 15.4297 15.0795 15.0831 15.0795C14.5717 15.0795 14.1153 14.9612 13.7138 14.7244C13.3123 14.4877 12.996 14.1458 12.7649 13.6989C12.5339 13.2519 12.4183 12.7159 12.4183 12.0909C12.4183 11.464 12.5348 10.928 12.7678 10.483C13.0007 10.036 13.3179 9.69413 13.7195 9.45739C14.121 9.22064 14.5755 9.10227 15.0831 9.10227C15.407 9.10227 15.7081 9.14773 15.9865 9.23864C16.2649 9.32955 16.513 9.46307 16.7308 9.6392C16.9486 9.81345 17.1276 10.0275 17.2678 10.2812C17.4098 10.5331 17.5026 10.821 17.5462 11.1449Z" fill="black"/>
</svg>
