<svg width="24" height="24" viewBox="0 0 24 24" fill="none" xmlns="http://www.w3.org/2000/svg">
<g clip-path="url(#clip0_644_1267)">
<path fill-rule="evenodd" clip-rule="evenodd" d="M19 4.25C19.9619 4.25 20.75 5.03807 20.75 6V19C20.75 19.9619 19.9619 20.75 19 20.75H5C4.03807 20.75 3.25 19.9619 3.25 19V6C3.25 5.03807 4.03807 4.25 5 4.25H6H6.25V4V2.5V2.25H6.5H7.5H7.75V2.5V4V4.25H8H16H16.25V4V2.5V2.25H16.5H17.5H17.75V2.5V4V4.25H18H19ZM19.25 19.25H19H5H4.75V19V10V9.75H5H19H19.25V10V19V19.25ZM4.75 8.25V8V6V5.75H5H19H19.25V6V8V8.25H19H5H4.75ZM16.75 11.7337H16.5H7.5H7.25V11.9837V12.9837V13.2337H7.5H16.5H16.75V12.9837V11.9837V11.7337ZM13.75 15.7337H13.5H7.5H7.25V15.9837V16.9837V17.2337H7.5H13.5H13.75V16.9837V15.9837V15.7337Z" fill="black"/>
<path d="M1.5 4.97144L1.5 21.3725C1.5 21.9248 1.94771 22.3725 2.5 22.3725L19.0143 22.3725" stroke="black" stroke-width="1.5"/>
</g>
<defs>
<clipPath id="clip0_644_1267">
<rect width="24" height="24" fill="white"/>
</clipPath>
</defs>
</svg>
