<svg width="24" height="24" viewBox="0 0 24 24" fill="none" xmlns="http://www.w3.org/2000/svg">
<path fill-rule="evenodd" clip-rule="evenodd" d="M17.75 2.25V4.25H19C19.9619 4.25 20.75 5.03807 20.75 6V20C20.75 20.9619 19.9619 21.75 19 21.75H5C4.03807 21.75 3.25 20.9619 3.25 20V6C3.25 5.03807 4.03807 4.25 5 4.25H6.25V2.25H7.75V4.25H16.25V2.25H17.75ZM4.75 20.25H19.25V9.75H4.75V20.25ZM4.75 5.75V8.25H19.25V5.75H4.75ZM7.25 12.25H16.75V13.75H7.25V12.25ZM7.25 16.25H13.75V17.75H7.25V16.25Z" fill="black"/>
</svg>
