<svg width="24" height="24" viewBox="0 0 24 24" fill="none" xmlns="http://www.w3.org/2000/svg">
<path fill-rule="evenodd" clip-rule="evenodd" d="M11.9991 2.25C11.1707 2.25 10.4991 2.92157 10.4991 3.75V4.32876C7.90965 4.99494 5.99183 7.34401 5.99183 10.1397V15.2444L4.01433 17.8H4V17.8185L3.99371 17.8266H4V18.8H20V17.8266H20.0047L20 17.8206V17.8H19.984L18.0082 15.2465V11.8452C17.5451 12.034 17.0388 12.1385 16.5082 12.1396V17.3H7.49183V10.1397C7.49183 7.65703 9.51206 5.63965 12 5.63965C12.4316 5.63965 12.8492 5.70037 13.2446 5.81371C13.5745 5.35293 13.9998 4.96513 14.4916 4.67918C14.1745 4.53452 13.8428 4.4166 13.4991 4.32832V3.75C13.4991 2.92157 12.8276 2.25 11.9991 2.25ZM9.99926 19.7283L9.99915 19.75C9.99915 20.8545 10.8946 21.75 11.9991 21.75C13.1037 21.75 13.9991 20.8545 13.9991 19.75L13.999 19.7283H9.99926Z" fill="black"/>
<circle cx="16.4991" cy="8.09839" r="2.5" fill="black"/>
</svg>
