<svg width="24" height="24" viewBox="0 0 24 24" fill="none" xmlns="http://www.w3.org/2000/svg">
<path fill-rule="evenodd" clip-rule="evenodd" d="M10.4991 3.75C10.4991 2.92157 11.1707 2.25 11.9991 2.25C12.8276 2.25 13.4991 2.92157 13.4991 3.75V4.32832C16.0895 4.9939 18.0082 7.34339 18.0082 10.1396V15.2465L19.984 17.8H20V17.8206L20.0047 17.8266H20V18.8H4V17.8266H3.99371L4 17.8185V17.8H4.01433L5.99183 15.2444V10.1397C5.99183 7.34401 7.90965 4.99494 10.4991 4.32876V3.75ZM16.5082 17.3V10.1396C16.5082 7.65703 14.4879 5.63965 12 5.63965C9.51206 5.63965 7.49183 7.65703 7.49183 10.1397V17.3H16.5082ZM9.99926 19.7283L9.99915 19.75C9.99915 20.8545 10.8946 21.75 11.9991 21.75C13.1037 21.75 13.9991 20.8545 13.9991 19.75L13.999 19.7283H9.99926Z" fill="black"/>
</svg>
