<svg width="24" height="24" viewBox="0 0 24 24" fill="none" xmlns="http://www.w3.org/2000/svg">
<path d="M11.8161 9.18182V15H10.8786L8.13707 11.0369H8.08878V15H7.0348V9.18182H7.97798L10.7166 13.1477H10.7678V9.18182H11.8161ZM12.9645 15V9.18182H15.1463C15.5933 9.18182 15.9683 9.26515 16.2713 9.43182C16.5762 9.59848 16.8063 9.82765 16.9616 10.1193C17.1188 10.4091 17.1974 10.7386 17.1974 11.108C17.1974 11.4811 17.1188 11.8125 16.9616 12.1023C16.8045 12.392 16.5724 12.6203 16.2656 12.7869C15.9588 12.9517 15.581 13.0341 15.1321 13.0341H13.6861V12.1676H14.9901C15.2514 12.1676 15.4654 12.1222 15.6321 12.0312C15.7988 11.9403 15.9219 11.8153 16.0014 11.6562C16.0829 11.4972 16.1236 11.3144 16.1236 11.108C16.1236 10.9015 16.0829 10.7197 16.0014 10.5625C15.9219 10.4053 15.7978 10.2831 15.6293 10.196C15.4626 10.107 15.2476 10.0625 14.9844 10.0625H14.0185V15H12.9645Z" fill="black"/>
</svg>
