<svg width="24" height="24" viewBox="0 0 24 24" fill="none" xmlns="http://www.w3.org/2000/svg">
<rect opacity="0.25" x="2.87903" y="4.75" width="18.2419" height="14.5" rx="2" fill="black"/>
<path fill-rule="evenodd" clip-rule="evenodd" d="M4.00122 6.00006L4.00122 17.75L4.00122 18V6.00006ZM19.9988 18.2499L20.2488 18.2499V17.9999V6V5.75L19.9988 5.75L4.00122 5.75006L3.75122 5.75006V6.00006V18V18.25L4.00122 18.25L19.9988 18.2499ZM4.00122 4.25006L19.9988 4.25C20.9615 4.25 21.75 5.03822 21.75 6V17.9999C21.75 18.9617 20.9615 19.7499 19.9988 19.7499L4.00122 19.75C3.03848 19.75 2.25 18.9618 2.25 18V6.00006C2.25 5.03828 3.03848 4.25006 4.00122 4.25006Z" fill="black"/>
<path d="M12.0462 12.0909C12.0462 12.7178 11.9287 13.2547 11.6939 13.7017C11.4609 14.1468 11.1428 14.4877 10.7393 14.7244C10.3378 14.9612 9.88234 15.0795 9.37287 15.0795C8.8634 15.0795 8.40696 14.9612 8.00355 14.7244C7.60204 14.4858 7.28385 14.1439 7.04901 13.6989C6.81605 13.2519 6.69957 12.7159 6.69957 12.0909C6.69957 11.464 6.81605 10.928 7.04901 10.483C7.28385 10.036 7.60204 9.69413 8.00355 9.45739C8.40696 9.22064 8.8634 9.10227 9.37287 9.10227C9.88234 9.10227 10.3378 9.22064 10.7393 9.45739C11.1428 9.69413 11.4609 10.036 11.6939 10.483C11.9287 10.928 12.0462 11.464 12.0462 12.0909ZM10.9865 12.0909C10.9865 11.6496 10.9174 11.2775 10.7791 10.9744C10.6428 10.6695 10.4534 10.4394 10.2109 10.2841C9.96851 10.1269 9.68916 10.0483 9.37287 10.0483C9.05658 10.0483 8.77723 10.1269 8.5348 10.2841C8.29238 10.4394 8.10204 10.6695 7.96378 10.9744C7.82741 11.2775 7.75923 11.6496 7.75923 12.0909C7.75923 12.5322 7.82741 12.9053 7.96378 13.2102C8.10204 13.5133 8.29238 13.7434 8.5348 13.9006C8.77723 14.0559 9.05658 14.1335 9.37287 14.1335C9.68916 14.1335 9.96851 14.0559 10.2109 13.9006C10.4534 13.7434 10.6428 13.5133 10.7791 13.2102C10.9174 12.9053 10.9865 12.5322 10.9865 12.0909ZM13.0426 15V9.18182H15.2699C15.6903 9.18182 16.0398 9.24811 16.3182 9.38068C16.5985 9.51136 16.8078 9.69034 16.946 9.91761C17.0862 10.1449 17.1562 10.4025 17.1562 10.6903C17.1562 10.9271 17.1108 11.1297 17.0199 11.2983C16.929 11.465 16.8068 11.6004 16.6534 11.7045C16.5 11.8087 16.3286 11.8835 16.1392 11.929V11.9858C16.3456 11.9972 16.5436 12.0606 16.733 12.1761C16.9242 12.2898 17.0805 12.4508 17.2017 12.6591C17.3229 12.8674 17.3835 13.1193 17.3835 13.4148C17.3835 13.7159 17.3106 13.9867 17.1648 14.2273C17.0189 14.4659 16.7992 14.6544 16.5057 14.7926C16.2121 14.9309 15.8428 15 15.3977 15H13.0426ZM14.0966 14.1193H15.2301C15.6127 14.1193 15.8883 14.0464 16.0568 13.9006C16.2273 13.7528 16.3125 13.5634 16.3125 13.3324C16.3125 13.16 16.2699 13.0047 16.1847 12.8665C16.0994 12.7263 15.9782 12.6165 15.821 12.5369C15.6638 12.4555 15.4763 12.4148 15.2585 12.4148H14.0966V14.1193ZM14.0966 11.6562H15.1392C15.321 11.6562 15.4848 11.6231 15.6307 11.5568C15.7765 11.4886 15.8911 11.393 15.9744 11.2699C16.0597 11.1449 16.1023 10.9972 16.1023 10.8267C16.1023 10.6013 16.0227 10.4157 15.8636 10.2699C15.7064 10.1241 15.4725 10.0511 15.1619 10.0511H14.0966V11.6562Z" fill="black"/>
</svg>
