<svg width="24" height="24" viewBox="0 0 24 24" fill="none" xmlns="http://www.w3.org/2000/svg">
<rect opacity="0.25" x="2.87903" y="4.75" width="18.2419" height="14.5" rx="2" fill="black"/>
<path fill-rule="evenodd" clip-rule="evenodd" d="M4.00122 6.00006L4.00122 17.75L4.00122 18V6.00006ZM19.9988 18.2499L20.2488 18.2499V17.9999V6V5.75L19.9988 5.75L4.00122 5.75006L3.75122 5.75006V6.00006V18V18.25L4.00122 18.25L19.9988 18.2499ZM4.00122 4.25006L19.9988 4.25C20.9615 4.25 21.75 5.03822 21.75 6V17.9999C21.75 18.9617 20.9615 19.7499 19.9988 19.7499L4.00122 19.75C3.03848 19.75 2.25 18.9618 2.25 18V6.00006C2.25 5.03828 3.03848 4.25006 4.00122 4.25006Z" fill="black"/>
<path d="M11.7024 12.0909C11.7024 12.7178 11.585 13.2547 11.3501 13.7017C11.1172 14.1468 10.799 14.4877 10.3956 14.7244C9.99408 14.9612 9.53859 15.0795 9.02912 15.0795C8.51965 15.0795 8.06321 14.9612 7.6598 14.7244C7.25829 14.4858 6.9401 14.1439 6.70526 13.6989C6.4723 13.2519 6.35582 12.7159 6.35582 12.0909C6.35582 11.464 6.4723 10.928 6.70526 10.483C6.9401 10.036 7.25829 9.69413 7.6598 9.45739C8.06321 9.22064 8.51965 9.10227 9.02912 9.10227C9.53859 9.10227 9.99408 9.22064 10.3956 9.45739C10.799 9.69413 11.1172 10.036 11.3501 10.483C11.585 10.928 11.7024 11.464 11.7024 12.0909ZM10.6428 12.0909C10.6428 11.6496 10.5736 11.2775 10.4354 10.9744C10.299 10.6695 10.1096 10.4394 9.86719 10.2841C9.62476 10.1269 9.34541 10.0483 9.02912 10.0483C8.71283 10.0483 8.43348 10.1269 8.19105 10.2841C7.94863 10.4394 7.75829 10.6695 7.62003 10.9744C7.48366 11.2775 7.41548 11.6496 7.41548 12.0909C7.41548 12.5322 7.48366 12.9053 7.62003 13.2102C7.75829 13.5133 7.94863 13.7434 8.19105 13.9006C8.43348 14.0559 8.71283 14.1335 9.02912 14.1335C9.34541 14.1335 9.62476 14.0559 9.86719 13.9006C10.1096 13.7434 10.299 13.5133 10.4354 13.2102C10.5736 12.9053 10.6428 12.5322 10.6428 12.0909ZM17.679 11.1449H16.6165C16.5862 10.9706 16.5303 10.8163 16.4489 10.6818C16.3674 10.5455 16.2661 10.4299 16.1449 10.3352C16.0237 10.2405 15.8854 10.1695 15.7301 10.1222C15.5767 10.0729 15.411 10.0483 15.233 10.0483C14.9167 10.0483 14.6364 10.1278 14.392 10.2869C14.1477 10.4441 13.9564 10.6752 13.8182 10.9801C13.6799 11.2831 13.6108 11.6534 13.6108 12.0909C13.6108 12.536 13.6799 12.911 13.8182 13.2159C13.9583 13.5189 14.1496 13.7481 14.392 13.9034C14.6364 14.0568 14.9157 14.1335 15.2301 14.1335C15.4044 14.1335 15.5672 14.1108 15.7188 14.0653C15.8722 14.018 16.0095 13.9489 16.1307 13.858C16.2538 13.767 16.357 13.6553 16.4403 13.5227C16.5256 13.3902 16.5843 13.2386 16.6165 13.0682L17.679 13.0739C17.6392 13.3504 17.553 13.6098 17.4205 13.8523C17.2898 14.0947 17.1184 14.3087 16.9062 14.4943C16.6941 14.678 16.446 14.822 16.1619 14.9261C15.8778 15.0284 15.5625 15.0795 15.2159 15.0795C14.7045 15.0795 14.2481 14.9612 13.8466 14.7244C13.4451 14.4877 13.1288 14.1458 12.8977 13.6989C12.6667 13.2519 12.5511 12.7159 12.5511 12.0909C12.5511 11.464 12.6676 10.928 12.9006 10.483C13.1335 10.036 13.4508 9.69413 13.8523 9.45739C14.2538 9.22064 14.7083 9.10227 15.2159 9.10227C15.5398 9.10227 15.8409 9.14773 16.1193 9.23864C16.3977 9.32955 16.6458 9.46307 16.8636 9.6392C17.0814 9.81345 17.2604 10.0275 17.4006 10.2812C17.5426 10.5331 17.6354 10.821 17.679 11.1449Z" fill="black"/>
</svg>
