<svg width="24" height="24" viewBox="0 0 24 24" fill="none" xmlns="http://www.w3.org/2000/svg">
<rect opacity="0.25" x="2.87903" y="4.75" width="18.2419" height="14.5" rx="2" fill="black"/>
<path fill-rule="evenodd" clip-rule="evenodd" d="M4.00122 6.00006L4.00122 17.75L4.00122 18V6.00006ZM19.9988 18.2499L20.2488 18.2499V17.9999V6V5.75L19.9988 5.75L4.00122 5.75006L3.75122 5.75006V6.00006V18V18.25L4.00122 18.25L19.9988 18.2499ZM4.00122 4.25006L19.9988 4.25C20.9615 4.25 21.75 5.03822 21.75 6V17.9999C21.75 18.9617 20.9615 19.7499 19.9988 19.7499L4.00122 19.75C3.03848 19.75 2.25 18.9618 2.25 18V6.00006C2.25 5.03828 3.03848 4.25006 4.00122 4.25006Z" fill="black"/>
<path d="M7.42933 15V9.18182H9.61115C10.0581 9.18182 10.4331 9.26515 10.7362 9.43182C11.0411 9.59848 11.2712 9.82765 11.4265 10.1193C11.5837 10.4091 11.6623 10.7386 11.6623 11.108C11.6623 11.4811 11.5837 11.8125 11.4265 12.1023C11.2693 12.392 11.0373 12.6203 10.7305 12.7869C10.4237 12.9517 10.0458 13.0341 9.59695 13.0341H8.15092V12.1676H9.4549C9.71626 12.1676 9.93028 12.1222 10.0969 12.0312C10.2636 11.9403 10.3867 11.8153 10.4663 11.6562C10.5477 11.4972 10.5884 11.3144 10.5884 11.108C10.5884 10.9015 10.5477 10.7197 10.4663 10.5625C10.3867 10.4053 10.2627 10.2831 10.0941 10.196C9.92744 10.107 9.71248 10.0625 9.44922 10.0625H8.48331V15H7.42933ZM12.6765 15H11.5515L13.5998 9.18182H14.9009L16.9521 15H15.8271L14.2731 10.375H14.2276L12.6765 15ZM12.7134 12.7188H15.7816V13.5653H12.7134V12.7188Z" fill="black"/>
</svg>
