<svg width="24" height="24" viewBox="0 0 24 24" fill="none" xmlns="http://www.w3.org/2000/svg">
<path fill-rule="evenodd" clip-rule="evenodd" d="M16.75 8.5V8.75H17H18C18.9619 8.75 19.75 9.53807 19.75 10.5V19.5C19.75 20.4619 18.9619 21.25 18 21.25H6C5.03807 21.25 4.25 20.4619 4.25 19.5V10.5C4.25 9.53807 5.03807 8.75 6 8.75H7H7.25V8.5V6.5C7.25 3.87807 9.37807 1.75 12 1.75C14.6219 1.75 16.75 3.87807 16.75 6.5V8.5ZM15 8.75H15.25V8.5V6.5C15.25 4.70193 13.7981 3.25 12 3.25C10.2019 3.25 8.75 4.70193 8.75 6.5V8.5V8.75H9H15ZM18 19.75H18.25V19.5V10.5V10.25H18H6H5.75V10.5V19.5V19.75H6H18ZM13.75 14.9648C13.75 15.9267 12.9619 16.7148 12 16.7148C11.0381 16.7148 10.25 15.9267 10.25 14.9648C10.25 14.0029 11.0381 13.2148 12 13.2148C12.9619 13.2148 13.75 14.0029 13.75 14.9648Z" fill="black"/>
</svg>
