<svg width="24" height="24" viewBox="0 0 24 24" fill="none" xmlns="http://www.w3.org/2000/svg">
<path d="M7.46524 12.0508C7.46524 10.9294 7.62816 9.87988 7.95401 8.90234C8.28409 7.9248 8.75805 7.06787 9.37589 6.33154H10.9628C10.3661 7.14827 9.91544 8.04541 9.61075 9.02295C9.30606 10.0005 9.15372 11.0055 9.15372 12.0381C9.15372 13.0749 9.30818 14.0778 9.6171 15.0469C9.93025 16.0117 10.3746 16.8856 10.9501 17.6685H9.37589C8.75381 16.9491 8.27986 16.109 7.95401 15.1484C7.62816 14.1878 7.46524 13.1553 7.46524 12.0508Z" fill="black"/>
<path d="M16.5348 12.0508C16.5348 13.1637 16.3697 14.2005 16.0397 15.1611C15.7138 16.1217 15.242 16.9575 14.6241 17.6685H13.0499C13.6212 16.8898 14.0634 16.0181 14.3766 15.0532C14.6897 14.0841 14.8463 13.0791 14.8463 12.0381C14.8463 11.0055 14.694 10.0005 14.3893 9.02295C14.0846 8.04541 13.6339 7.14827 13.0372 6.33154H14.6241C15.2462 7.0721 15.7202 7.93327 16.046 8.91504C16.3718 9.89258 16.5348 10.9378 16.5348 12.0508Z" fill="black"/>
</svg>
