<svg width="24" height="24" viewBox="0 0 24 24" fill="none" xmlns="http://www.w3.org/2000/svg">
<path fill-rule="evenodd" clip-rule="evenodd" d="M13 4C13 3.45 12.55 3 12 3C11.45 3 11 3.45 11 4C11 4.55 11.45 5 12 5C12.55 5 13 4.55 13 4ZM14.5849 3.08511L14.6446 3.25H14.82H19C19.9619 3.25 20.75 4.03807 20.75 5V21C20.75 21.9619 19.9619 22.75 19 22.75H5C4.03807 22.75 3.25 21.9619 3.25 21V5C3.25 4.03807 4.03807 3.25 5 3.25H9.18H9.35537L9.41507 3.08511C9.80137 2.01817 10.8114 1.25 12 1.25C13.1886 1.25 14.1986 2.01817 14.5849 3.08511ZM19 21.25H19.25V21V5V4.75H19H17H16.75V5V7.75H7.25V5V4.75H7H5H4.75V5V21V21.25H5H19Z" fill="black"/>
</svg>
