<svg width="24" height="24" viewBox="0 0 24 24" fill="none" xmlns="http://www.w3.org/2000/svg">
<path d="M7.02699 15V9.18182H9.20881C9.65578 9.18182 10.0308 9.26515 10.3338 9.43182C10.6387 9.59848 10.8688 9.82765 11.0241 10.1193C11.1813 10.4091 11.2599 10.7386 11.2599 11.108C11.2599 11.4811 11.1813 11.8125 11.0241 12.1023C10.867 12.392 10.6349 12.6203 10.3281 12.7869C10.0213 12.9517 9.64347 13.0341 9.1946 13.0341H7.74858V12.1676H9.05256C9.31392 12.1676 9.52794 12.1222 9.6946 12.0312C9.86127 11.9403 9.98438 11.8153 10.0639 11.6562C10.1454 11.4972 10.1861 11.3144 10.1861 11.108C10.1861 10.9015 10.1454 10.7197 10.0639 10.5625C9.98438 10.4053 9.86032 10.2831 9.69176 10.196C9.52509 10.107 9.31013 10.0625 9.04688 10.0625H8.08097V15H7.02699ZM17.1555 11.1449H16.093C16.0627 10.9706 16.0069 10.8163 15.9254 10.6818C15.844 10.5455 15.7427 10.4299 15.6214 10.3352C15.5002 10.2405 15.362 10.1695 15.2067 10.1222C15.0533 10.0729 14.8875 10.0483 14.7095 10.0483C14.3932 10.0483 14.1129 10.1278 13.8686 10.2869C13.6243 10.4441 13.433 10.6752 13.2947 10.9801C13.1565 11.2831 13.0874 11.6534 13.0874 12.0909C13.0874 12.536 13.1565 12.911 13.2947 13.2159C13.4349 13.5189 13.6262 13.7481 13.8686 13.9034C14.1129 14.0568 14.3923 14.1335 14.7067 14.1335C14.8809 14.1335 15.0438 14.1108 15.1953 14.0653C15.3487 14.018 15.486 13.9489 15.6072 13.858C15.7304 13.767 15.8336 13.6553 15.9169 13.5227C16.0021 13.3902 16.0608 13.2386 16.093 13.0682L17.1555 13.0739C17.1158 13.3504 17.0296 13.6098 16.897 13.8523C16.7663 14.0947 16.5949 14.3087 16.3828 14.4943C16.1707 14.678 15.9226 14.822 15.6385 14.9261C15.3544 15.0284 15.0391 15.0795 14.6925 15.0795C14.1811 15.0795 13.7247 14.9612 13.3232 14.7244C12.9216 14.4877 12.6054 14.1458 12.3743 13.6989C12.1432 13.2519 12.0277 12.7159 12.0277 12.0909C12.0277 11.464 12.1442 10.928 12.3771 10.483C12.6101 10.036 12.9273 9.69413 13.3288 9.45739C13.7304 9.22064 14.1849 9.10227 14.6925 9.10227C15.0163 9.10227 15.3175 9.14773 15.5959 9.23864C15.8743 9.32955 16.1224 9.46307 16.3402 9.6392C16.558 9.81345 16.737 10.0275 16.8771 10.2812C17.0192 10.5331 17.112 10.821 17.1555 11.1449Z" fill="black"/>
</svg>
