<svg width="24" height="24" viewBox="0 0 24 24" fill="none" xmlns="http://www.w3.org/2000/svg">
<path d="M7.10121 15V9.18182H9.28303C9.73 9.18182 10.105 9.26515 10.408 9.43182C10.713 9.59848 10.9431 9.82765 11.0984 10.1193C11.2556 10.4091 11.3342 10.7386 11.3342 11.108C11.3342 11.4811 11.2556 11.8125 11.0984 12.1023C10.9412 12.392 10.7092 12.6203 10.4023 12.7869C10.0955 12.9517 9.71768 13.0341 9.26882 13.0341H7.8228V12.1676H9.12678C9.38814 12.1676 9.60215 12.1222 9.76882 12.0312C9.93549 11.9403 10.0586 11.8153 10.1381 11.6562C10.2196 11.4972 10.2603 11.3144 10.2603 11.108C10.2603 10.9015 10.2196 10.7197 10.1381 10.5625C10.0586 10.4053 9.93454 10.2831 9.76598 10.196C9.59931 10.107 9.38435 10.0625 9.12109 10.0625H8.15518V15H7.10121ZM14.2212 15H12.2496V9.18182H14.261C14.8387 9.18182 15.3349 9.2983 15.7496 9.53125C16.1663 9.76231 16.4864 10.0947 16.7099 10.5284C16.9334 10.9621 17.0451 11.4811 17.0451 12.0852C17.0451 12.6913 16.9324 13.2121 16.707 13.6477C16.4835 14.0833 16.1606 14.4176 15.7383 14.6506C15.3178 14.8835 14.8121 15 14.2212 15ZM13.3036 14.0881H14.1701C14.5754 14.0881 14.9135 14.0142 15.1843 13.8665C15.4551 13.7169 15.6587 13.4943 15.7951 13.1989C15.9315 12.9015 15.9996 12.5303 15.9996 12.0852C15.9996 11.6402 15.9315 11.2708 15.7951 10.9773C15.6587 10.6818 15.457 10.4612 15.19 10.3153C14.9248 10.1676 14.5953 10.0938 14.2013 10.0938H13.3036V14.0881Z" fill="black"/>
</svg>
