<svg width="24" height="24" viewBox="0 0 24 24" fill="none" xmlns="http://www.w3.org/2000/svg">
<rect opacity="0.25" x="2.87903" y="4.75" width="18.2419" height="14.5" rx="2" fill="black"/>
<path fill-rule="evenodd" clip-rule="evenodd" d="M4.00122 6.00006L4.00122 17.75L4.00122 18V6.00006ZM19.9988 18.2499L20.2488 18.2499V17.9999V6V5.75L19.9988 5.75L4.00122 5.75006L3.75122 5.75006V6.00006V18V18.25L4.00122 18.25L19.9988 18.2499ZM4.00122 4.25006L19.9988 4.25C20.9615 4.25 21.75 5.03822 21.75 6V17.9999C21.75 18.9617 20.9615 19.7499 19.9988 19.7499L4.00122 19.75C3.03848 19.75 2.25 18.9618 2.25 18V6.00006C2.25 5.03828 3.03848 4.25006 4.00122 4.25006Z" fill="black"/>
<path d="M7.56996 15V9.18182H9.75178C10.1987 9.18182 10.5737 9.26515 10.8768 9.43182C11.1817 9.59848 11.4118 9.82765 11.5671 10.1193C11.7243 10.4091 11.8029 10.7386 11.8029 11.108C11.8029 11.4811 11.7243 11.8125 11.5671 12.1023C11.4099 12.392 11.1779 12.6203 10.8711 12.7869C10.5643 12.9517 10.1864 13.0341 9.73757 13.0341H8.29155V12.1676H9.59553C9.85689 12.1676 10.0709 12.1222 10.2376 12.0312C10.4042 11.9403 10.5273 11.8153 10.6069 11.6562C10.6883 11.4972 10.729 11.3144 10.729 11.108C10.729 10.9015 10.6883 10.7197 10.6069 10.5625C10.5273 10.4053 10.4033 10.2831 10.2347 10.196C10.0681 10.107 9.8531 10.0625 9.58984 10.0625H8.62393V15H7.56996ZM12.7184 15V9.18182H16.5025V10.0653H13.7724V11.6449H16.3065V12.5284H13.7724V14.1165H16.5252V15H12.7184Z" fill="black"/>
</svg>
