<svg width="24" height="24" viewBox="0 0 24 24" fill="none" xmlns="http://www.w3.org/2000/svg">
<path fill-rule="evenodd" clip-rule="evenodd" d="M2.25 12C2.25 6.61807 6.61807 2.25 12 2.25C17.3819 2.25 21.75 6.61807 21.75 12C21.75 17.3819 17.3819 21.75 12 21.75C6.61807 21.75 2.25 17.3819 2.25 12ZM3.75 12C3.75 16.5581 7.44193 20.25 12 20.25C16.5581 20.25 20.25 16.5581 20.25 12C20.25 7.44193 16.5581 3.75 12 3.75C7.44193 3.75 3.75 7.44193 3.75 12ZM8.25 12C8.25 12.6904 7.69036 13.25 7 13.25C6.30964 13.25 5.75 12.6904 5.75 12C5.75 11.3096 6.30964 10.75 7 10.75C7.69036 10.75 8.25 11.3096 8.25 12ZM13.25 12C13.25 12.6904 12.6904 13.25 12 13.25C11.3096 13.25 10.75 12.6904 10.75 12C10.75 11.3096 11.3096 10.75 12 10.75C12.6904 10.75 13.25 11.3096 13.25 12ZM18.25 12C18.25 12.6904 17.6904 13.25 17 13.25C16.3096 13.25 15.75 12.6904 15.75 12C15.75 11.3096 16.3096 10.75 17 10.75C17.6904 10.75 18.25 11.3096 18.25 12Z" fill="black"/>
</svg>
