<svg width="24" height="24" viewBox="0 0 24 24" fill="none" xmlns="http://www.w3.org/2000/svg">
<path d="M7.65589 15V9.18182H9.83771C10.2847 9.18182 10.6597 9.26515 10.9627 9.43182C11.2676 9.59848 11.4978 9.82765 11.6531 10.1193C11.8103 10.4091 11.8888 10.7386 11.8888 11.108C11.8888 11.4811 11.8103 11.8125 11.6531 12.1023C11.4959 12.392 11.2638 12.6203 10.957 12.7869C10.6502 12.9517 10.2724 13.0341 9.82351 13.0341H8.37749V12.1676H9.68146C9.94283 12.1676 10.1568 12.1222 10.3235 12.0312C10.4902 11.9403 10.6133 11.8153 10.6928 11.6562C10.7743 11.4972 10.815 11.3144 10.815 11.108C10.815 10.9015 10.7743 10.7197 10.6928 10.5625C10.6133 10.4053 10.4892 10.2831 10.3207 10.196C10.154 10.107 9.93904 10.0625 9.67578 10.0625H8.70987V15H7.65589ZM12.8043 15V9.18182H16.5316V10.0653H13.8583V11.6449H16.2759V12.5284H13.8583V15H12.8043Z" fill="black"/>
</svg>
