<svg width="24" height="24" viewBox="0 0 24 24" fill="none" xmlns="http://www.w3.org/2000/svg">
<rect opacity="0.25" x="2.87903" y="4.75" width="18.2419" height="14.5" rx="2" fill="black"/>
<path fill-rule="evenodd" clip-rule="evenodd" d="M4.00122 6.00006L4.00122 17.75L4.00122 18V6.00006ZM19.9988 18.2499L20.2488 18.2499V17.9999V6V5.75L19.9988 5.75L4.00122 5.75006L3.75122 5.75006V6.00006V18V18.25L4.00122 18.25L19.9988 18.2499ZM4.00122 4.25006L19.9988 4.25C20.9615 4.25 21.75 5.03822 21.75 6V17.9999C21.75 18.9617 20.9615 19.7499 19.9988 19.7499L4.00122 19.75C3.03848 19.75 2.25 18.9618 2.25 18V6.00006C2.25 5.03828 3.03848 4.25006 4.00122 4.25006Z" fill="black"/>
<path d="M7.73402 15V9.18182H9.91584C10.3628 9.18182 10.7378 9.26515 11.0408 9.43182C11.3458 9.59848 11.5759 9.82765 11.7312 10.1193C11.8884 10.4091 11.967 10.7386 11.967 11.108C11.967 11.4811 11.8884 11.8125 11.7312 12.1023C11.574 12.392 11.342 12.6203 11.0352 12.7869C10.7283 12.9517 10.3505 13.0341 9.90163 13.0341H8.45561V12.1676H9.75959C10.021 12.1676 10.235 12.1222 10.4016 12.0312C10.5683 11.9403 10.6914 11.8153 10.771 11.6562C10.8524 11.4972 10.8931 11.3144 10.8931 11.108C10.8931 10.9015 10.8524 10.7197 10.771 10.5625C10.6914 10.4053 10.5674 10.2831 10.3988 10.196C10.2321 10.107 10.0172 10.0625 9.75391 10.0625H8.788V15H7.73402ZM12.8825 15V9.18182H13.9364V14.1165H16.4989V15H12.8825Z" fill="black"/>
</svg>
