<svg width="24" height="24" viewBox="0 0 24 24" fill="none" xmlns="http://www.w3.org/2000/svg">
<path d="M6.21839 15V9.18182H8.40021C8.84718 9.18182 9.22218 9.26515 9.52521 9.43182C9.83014 9.59848 10.0603 9.82765 10.2156 10.1193C10.3728 10.4091 10.4513 10.7386 10.4513 11.108C10.4513 11.4811 10.3728 11.8125 10.2156 12.1023C10.0584 12.392 9.82635 12.6203 9.51953 12.7869C9.21271 12.9517 8.83487 13.0341 8.38601 13.0341H6.93999V12.1676H8.24396C8.50533 12.1676 8.71934 12.1222 8.88601 12.0312C9.05268 11.9403 9.17578 11.8153 9.25533 11.6562C9.33677 11.4972 9.37749 11.3144 9.37749 11.108C9.37749 10.9015 9.33677 10.7197 9.25533 10.5625C9.17578 10.4053 9.05173 10.2831 8.88317 10.196C8.7165 10.107 8.50154 10.0625 8.23828 10.0625H7.27237V15H6.21839ZM13.6964 8.90909L11.8214 15.875H10.9208L12.7958 8.90909H13.6964ZM14.3981 15V9.18182H15.4521V14.1165H18.0146V15H14.3981Z" fill="black"/>
</svg>
