<svg width="24" height="24" viewBox="0 0 24 24" fill="none" xmlns="http://www.w3.org/2000/svg">
<path d="M6.37464 15V9.18182H8.55646C9.00343 9.18182 9.37843 9.26515 9.68146 9.43182C9.98639 9.59848 10.2165 9.82765 10.3718 10.1193C10.529 10.4091 10.6076 10.7386 10.6076 11.108C10.6076 11.4811 10.529 11.8125 10.3718 12.1023C10.2146 12.392 9.9826 12.6203 9.67578 12.7869C9.36896 12.9517 8.99112 13.0341 8.54226 13.0341H7.09624V12.1676H8.40021C8.66158 12.1676 8.87559 12.1222 9.04226 12.0312C9.20893 11.9403 9.33203 11.8153 9.41158 11.6562C9.49302 11.4972 9.53374 11.3144 9.53374 11.108C9.53374 10.9015 9.49302 10.7197 9.41158 10.5625C9.33203 10.4053 9.20798 10.2831 9.03942 10.196C8.87275 10.107 8.65779 10.0625 8.39453 10.0625H7.42862V15H6.37464ZM11.5231 9.18182H12.8129L14.5401 13.3977H14.6083L16.3356 9.18182H17.6254V15H16.614V11.0028H16.56L14.9521 14.983H14.1964L12.5884 10.9943H12.5344V15H11.5231V9.18182Z" fill="black"/>
</svg>
