<svg width="24" height="24" viewBox="0 0 24 24" fill="none" xmlns="http://www.w3.org/2000/svg">
<path d="M6.90199 15V9.18182H9.08381C9.53078 9.18182 9.90578 9.26515 10.2088 9.43182C10.5137 9.59848 10.7438 9.82765 10.8991 10.1193C11.0563 10.4091 11.1349 10.7386 11.1349 11.108C11.1349 11.4811 11.0563 11.8125 10.8991 12.1023C10.742 12.392 10.5099 12.6203 10.2031 12.7869C9.89631 12.9517 9.51847 13.0341 9.0696 13.0341H7.62358V12.1676H8.92756C9.18892 12.1676 9.40294 12.1222 9.5696 12.0312C9.73627 11.9403 9.85938 11.8153 9.93892 11.6562C10.0204 11.4972 10.0611 11.3144 10.0611 11.108C10.0611 10.9015 10.0204 10.7197 9.93892 10.5625C9.85938 10.4053 9.73532 10.2831 9.56676 10.196C9.40009 10.107 9.18513 10.0625 8.92188 10.0625H7.95597V15H6.90199ZM17.2493 12.0909C17.2493 12.7178 17.1319 13.2547 16.897 13.7017C16.6641 14.1468 16.3459 14.4877 15.9425 14.7244C15.541 14.9612 15.0855 15.0795 14.576 15.0795C14.0665 15.0795 13.6101 14.9612 13.2067 14.7244C12.8052 14.4858 12.487 14.1439 12.2521 13.6989C12.0192 13.2519 11.9027 12.7159 11.9027 12.0909C11.9027 11.464 12.0192 10.928 12.2521 10.483C12.487 10.036 12.8052 9.69413 13.2067 9.45739C13.6101 9.22064 14.0665 9.10227 14.576 9.10227C15.0855 9.10227 15.541 9.22064 15.9425 9.45739C16.3459 9.69413 16.6641 10.036 16.897 10.483C17.1319 10.928 17.2493 11.464 17.2493 12.0909ZM16.1896 12.0909C16.1896 11.6496 16.1205 11.2775 15.9822 10.9744C15.8459 10.6695 15.6565 10.4394 15.4141 10.2841C15.1716 10.1269 14.8923 10.0483 14.576 10.0483C14.2597 10.0483 13.9804 10.1269 13.7379 10.2841C13.4955 10.4394 13.3052 10.6695 13.1669 10.9744C13.0305 11.2775 12.9624 11.6496 12.9624 12.0909C12.9624 12.5322 13.0305 12.9053 13.1669 13.2102C13.3052 13.5133 13.4955 13.7434 13.7379 13.9006C13.9804 14.0559 14.2597 14.1335 14.576 14.1335C14.8923 14.1335 15.1716 14.0559 15.4141 13.9006C15.6565 13.7434 15.8459 13.5133 15.9822 13.2102C16.1205 12.9053 16.1896 12.5322 16.1896 12.0909Z" fill="black"/>
</svg>
