<svg width="24" height="24" viewBox="0 0 24 24" fill="none" xmlns="http://www.w3.org/2000/svg">
<path d="M7.42543 15V9.18182H9.60724C10.0542 9.18182 10.4292 9.26515 10.7322 9.43182C11.0372 9.59848 11.2673 9.82765 11.4226 10.1193C11.5798 10.4091 11.6584 10.7386 11.6584 11.108C11.6584 11.4811 11.5798 11.8125 11.4226 12.1023C11.2654 12.392 11.0334 12.6203 10.7266 12.7869C10.4197 12.9517 10.0419 13.0341 9.59304 13.0341H8.14702V12.1676H9.45099C9.71236 12.1676 9.92637 12.1222 10.093 12.0312C10.2597 11.9403 10.3828 11.8153 10.4624 11.6562C10.5438 11.4972 10.5845 11.3144 10.5845 11.108C10.5845 10.9015 10.5438 10.7197 10.4624 10.5625C10.3828 10.4053 10.2588 10.2831 10.0902 10.196C9.92353 10.107 9.70857 10.0625 9.44531 10.0625H8.4794V15H7.42543ZM12.5739 15V9.18182H14.7557C15.2027 9.18182 15.5777 9.26515 15.8807 9.43182C16.1856 9.59848 16.4157 9.82765 16.571 10.1193C16.7282 10.4091 16.8068 10.7386 16.8068 11.108C16.8068 11.4811 16.7282 11.8125 16.571 12.1023C16.4138 12.392 16.1818 12.6203 15.875 12.7869C15.5682 12.9517 15.1903 13.0341 14.7415 13.0341H13.2955V12.1676H14.5994C14.8608 12.1676 15.0748 12.1222 15.2415 12.0312C15.4081 11.9403 15.5313 11.8153 15.6108 11.6562C15.6922 11.4972 15.733 11.3144 15.733 11.108C15.733 10.9015 15.6922 10.7197 15.6108 10.5625C15.5313 10.4053 15.4072 10.2831 15.2386 10.196C15.072 10.107 14.857 10.0625 14.5938 10.0625H13.6278V15H12.5739Z" fill="black"/>
</svg>
