<svg width="24" height="24" viewBox="0 0 24 24" fill="none" xmlns="http://www.w3.org/2000/svg">
<path d="M7.39808 15V9.18182H9.5799C10.0269 9.18182 10.4019 9.26515 10.7049 9.43182C11.0098 9.59848 11.2399 9.82765 11.3952 10.1193C11.5524 10.4091 11.631 10.7386 11.631 11.108C11.631 11.4811 11.5524 11.8125 11.3952 12.1023C11.238 12.392 11.006 12.6203 10.6992 12.7869C10.3924 12.9517 10.0146 13.0341 9.5657 13.0341H8.11967V12.1676H9.42365C9.68501 12.1676 9.89903 12.1222 10.0657 12.0312C10.2324 11.9403 10.3555 11.8153 10.435 11.6562C10.5165 11.4972 10.5572 11.3144 10.5572 11.108C10.5572 10.9015 10.5165 10.7197 10.435 10.5625C10.3555 10.4053 10.2314 10.2831 10.0629 10.196C9.89619 10.107 9.68123 10.0625 9.41797 10.0625H8.45206V15H7.39808ZM12.5465 15V9.18182H14.7283C15.1753 9.18182 15.5503 9.25947 15.8533 9.41477C16.1583 9.57008 16.3884 9.78788 16.5437 10.0682C16.7009 10.3466 16.7795 10.6714 16.7795 11.0426C16.7795 11.4157 16.6999 11.7396 16.5408 12.0142C16.3836 12.2869 16.1516 12.4981 15.8448 12.6477C15.538 12.7955 15.1611 12.8693 14.7141 12.8693H13.1602V11.9943H14.5721C14.8335 11.9943 15.0475 11.9583 15.2141 11.8864C15.3808 11.8125 15.5039 11.7055 15.5835 11.5653C15.6649 11.4233 15.7056 11.2491 15.7056 11.0426C15.7056 10.8362 15.6649 10.66 15.5835 10.5142C15.502 10.3665 15.378 10.2547 15.2113 10.179C15.0446 10.1013 14.8297 10.0625 14.5664 10.0625H13.6005V15H12.5465ZM15.5522 12.3636L16.9925 15H15.8164L14.4016 12.3636H15.5522Z" fill="black"/>
</svg>
