<svg width="24" height="24" viewBox="0 0 24 24" fill="none" xmlns="http://www.w3.org/2000/svg">
<path fill-rule="evenodd" clip-rule="evenodd" d="M17.75 3.25V8.25H19C20.5219 8.25 21.75 9.47807 21.75 11V16.75H17.75V20.75H6.25V16.75H2.25V11C2.25 9.47807 3.47807 8.25 5 8.25H6.25V3.25H17.75ZM16.25 4.75H7.75V8.25H16.25V4.75ZM7.75 19.25H16.25V14.75H7.75V19.25ZM17.75 13.25V15.25H20.25V11C20.25 10.3119 19.6881 9.75 19 9.75H5C4.31193 9.75 3.75 10.3119 3.75 11V15.25H6.25V13.25H17.75ZM18.75 11.5C18.75 11.9142 18.4142 12.25 18 12.25C17.5858 12.25 17.25 11.9142 17.25 11.5C17.25 11.0858 17.5858 10.75 18 10.75C18.4142 10.75 18.75 11.0858 18.75 11.5Z" fill="black"/>
</svg>
