<svg width="24" height="24" viewBox="0 0 24 24" fill="none" xmlns="http://www.w3.org/2000/svg">
<path fill-rule="evenodd" clip-rule="evenodd" d="M6 2.25H13.8964L19.75 8.10355V20C19.75 20.9619 18.9619 21.75 18 21.75H5.99C5.02975 21.75 4.25008 20.9636 4.25 20.0002V20L4.26 4.00016V4C4.26 3.03644 5.0397 2.25 6 2.25ZM18 20.25H18.25V20V9V8.75H18H13.25V4V3.75H13.0813H13H6H5.75V4V17.24V20V20.25H6H18ZM12.75 14.84V18.75H11.25V14.84V14.2391L10.8238 14.6627L9.41056 16.067L8.35355 15.01L12.0096 11.354L15.6475 15.0102L14.5894 16.0758L13.1768 14.6632L12.75 14.2364V14.84Z" fill="black"/>
</svg>
