<svg width="24" height="24" viewBox="0 0 24 24" fill="none" xmlns="http://www.w3.org/2000/svg">
<path d="M7.35902 15V9.18182H9.54084C9.98781 9.18182 10.3628 9.26515 10.6658 9.43182C10.9708 9.59848 11.2009 9.82765 11.3562 10.1193C11.5134 10.4091 11.592 10.7386 11.592 11.108C11.592 11.4811 11.5134 11.8125 11.3562 12.1023C11.199 12.392 10.967 12.6203 10.6602 12.7869C10.3533 12.9517 9.9755 13.0341 9.52663 13.0341H8.08061V12.1676H9.38459C9.64595 12.1676 9.85997 12.1222 10.0266 12.0312C10.1933 11.9403 10.3164 11.8153 10.396 11.6562C10.4774 11.4972 10.5181 11.3144 10.5181 11.108C10.5181 10.9015 10.4774 10.7197 10.396 10.5625C10.3164 10.4053 10.1924 10.2831 10.0238 10.196C9.85713 10.107 9.64216 10.0625 9.37891 10.0625H8.413V15H7.35902ZM12.2518 10.0653V9.18182H16.8938V10.0653H15.0955V15H14.0501V10.0653H12.2518Z" fill="black"/>
</svg>
