<svg width="24" height="24" viewBox="0 0 24 24" fill="none" xmlns="http://www.w3.org/2000/svg">
<rect opacity="0.1" x="3.75" y="5.74512" width="16.5" height="12.5" fill="black"/>
<path opacity="0.4" fill-rule="evenodd" clip-rule="evenodd" d="M4.00122 6.00006L4.00122 17.75L4.00122 18V6.00006ZM19.9988 18.2499L20.2488 18.2499V17.9999V6V5.75L19.9988 5.75L4.00122 5.75006L3.75122 5.75006V6.00006V18V18.25L4.00122 18.25L19.9988 18.2499ZM4.00122 4.25006L19.9988 4.25C20.9615 4.25 21.75 5.03822 21.75 6V17.9999C21.75 18.9617 20.9615 19.7499 19.9988 19.7499L4.00122 19.75C3.03848 19.75 2.25 18.9618 2.25 18V6.00006C2.25 5.03828 3.03848 4.25006 4.00122 4.25006Z" fill="black"/>
<path opacity="0.4" d="M7.35902 14.9951V9.17694H9.54084C9.98781 9.17694 10.3628 9.26027 10.6658 9.42694C10.9708 9.5936 11.2009 9.82277 11.3562 10.1144C11.5134 10.4042 11.592 10.7338 11.592 11.1031C11.592 11.4762 11.5134 11.8076 11.3562 12.0974C11.199 12.3872 10.967 12.6154 10.6602 12.782C10.3533 12.9468 9.9755 13.0292 9.52663 13.0292H8.08061V12.1627H9.38459C9.64595 12.1627 9.85997 12.1173 10.0266 12.0264C10.1933 11.9355 10.3164 11.8105 10.396 11.6514C10.4774 11.4923 10.5181 11.3095 10.5181 11.1031C10.5181 10.8966 10.4774 10.7148 10.396 10.5576C10.3164 10.4004 10.1924 10.2783 10.0238 10.1911C9.85713 10.1021 9.64216 10.0576 9.37891 10.0576H8.413V14.9951H7.35902ZM12.2518 10.0605V9.17694H16.8938V10.0605H15.0955V14.9951H14.0501V10.0605H12.2518Z" fill="black"/>
</svg>
