<svg width="24" height="24" viewBox="0 0 24 24" fill="none" xmlns="http://www.w3.org/2000/svg">
<path d="M9.9723 15V9.18182H12.1541C12.6011 9.18182 12.9761 9.25947 13.2791 9.41477C13.584 9.57008 13.8142 9.78788 13.9695 10.0682C14.1267 10.3466 14.2053 10.6714 14.2053 11.0426C14.2053 11.4157 14.1257 11.7396 13.9666 12.0142C13.8094 12.2869 13.5774 12.4981 13.2706 12.6477C12.9638 12.7955 12.5869 12.8693 12.1399 12.8693H10.5859V11.9943H11.9979C12.2592 11.9943 12.4732 11.9583 12.6399 11.8864C12.8066 11.8125 12.9297 11.7055 13.0092 11.5653C13.0907 11.4233 13.1314 11.2491 13.1314 11.0426C13.1314 10.8362 13.0907 10.66 13.0092 10.5142C12.9278 10.3665 12.8037 10.2547 12.6371 10.179C12.4704 10.1013 12.2554 10.0625 11.9922 10.0625H11.0263V15H9.9723ZM12.978 12.3636L14.4183 15H13.2422L11.8274 12.3636H12.978Z" fill="black"/>
</svg>
