<svg width="24" height="24" viewBox="0 0 24 24" fill="none" xmlns="http://www.w3.org/2000/svg">
<path d="M7.34339 15V9.18182H9.52521C9.97218 9.18182 10.3472 9.25947 10.6502 9.41477C10.9551 9.57008 11.1853 9.78788 11.3406 10.0682C11.4978 10.3466 11.5763 10.6714 11.5763 11.0426C11.5763 11.4157 11.4968 11.7396 11.3377 12.0142C11.1805 12.2869 10.9485 12.4981 10.6417 12.6477C10.3349 12.7955 9.95798 12.8693 9.51101 12.8693H7.95703V11.9943H9.36896C9.63033 11.9943 9.84434 11.9583 10.011 11.8864C10.1777 11.8125 10.3008 11.7055 10.3803 11.5653C10.4618 11.4233 10.5025 11.2491 10.5025 11.0426C10.5025 10.8362 10.4618 10.66 10.3803 10.5142C10.2989 10.3665 10.1748 10.2547 10.0082 10.179C9.8415 10.1013 9.62654 10.0625 9.36328 10.0625H8.39737V15H7.34339ZM10.3491 12.3636L11.7894 15H10.6133L9.19851 12.3636H10.3491ZM12.5465 15V9.18182H14.7738C15.1942 9.18182 15.5437 9.24811 15.8221 9.38068C16.1024 9.51136 16.3117 9.69034 16.4499 9.91761C16.5901 10.1449 16.6602 10.4025 16.6602 10.6903C16.6602 10.9271 16.6147 11.1297 16.5238 11.2983C16.4329 11.465 16.3107 11.6004 16.1573 11.7045C16.0039 11.8087 15.8325 11.8835 15.6431 11.929V11.9858C15.8496 11.9972 16.0475 12.0606 16.2369 12.1761C16.4281 12.2898 16.5844 12.4508 16.7056 12.6591C16.8268 12.8674 16.8874 13.1193 16.8874 13.4148C16.8874 13.7159 16.8145 13.9867 16.6687 14.2273C16.5228 14.4659 16.3031 14.6544 16.0096 14.7926C15.716 14.9309 15.3467 15 14.9016 15H12.5465ZM13.6005 14.1193H14.734C15.1166 14.1193 15.3922 14.0464 15.5607 13.9006C15.7312 13.7528 15.8164 13.5634 15.8164 13.3324C15.8164 13.16 15.7738 13.0047 15.6886 12.8665C15.6033 12.7263 15.4821 12.6165 15.3249 12.5369C15.1677 12.4555 14.9802 12.4148 14.7624 12.4148H13.6005V14.1193ZM13.6005 11.6562H14.6431C14.8249 11.6562 14.9888 11.6231 15.1346 11.5568C15.2804 11.4886 15.395 11.393 15.4783 11.2699C15.5636 11.1449 15.6062 10.9972 15.6062 10.8267C15.6062 10.6013 15.5266 10.4157 15.3675 10.2699C15.2103 10.1241 14.9764 10.0511 14.6658 10.0511H13.6005V11.6562Z" fill="black"/>
</svg>
