<svg width="24" height="24" viewBox="0 0 24 24" fill="none" xmlns="http://www.w3.org/2000/svg">
<path fill-rule="evenodd" clip-rule="evenodd" d="M19 19.25H19.25V19V5V4.75H19H5H4.75V5V19V19.25H5H19ZM5 3.25H19C19.9619 3.25 20.75 4.03807 20.75 5V19C20.75 19.9619 19.9619 20.75 19 20.75H5C4.03807 20.75 3.25 19.9619 3.25 19V5C3.25 4.03807 4.03807 3.25 5 3.25Z" fill="black"/>
<path d="M14.094 10.578C13.986 8.904 13.308 7.272 12.036 6C10.752 7.284 10.044 8.916 9.906 10.578C10.674 10.986 11.382 11.514 12 12.156C12.618 11.52 13.326 10.992 14.094 10.578ZM12.03 7.914C12.408 8.532 12.672 9.222 12.81 9.942C12.528 10.122 12.264 10.32 12.006 10.53C11.754 10.326 11.484 10.128 11.208 9.948C11.358 9.228 11.634 8.538 12.03 7.914ZM12 14.07C11.508 13.32 10.884 12.666 10.164 12.15C10.086 12.096 10.002 12.054 9.924 11.994C10.002 12.048 10.086 12.096 10.158 12.144C8.988 11.298 7.554 10.8 6 10.8C6 13.992 8.016 16.692 10.818 17.694C11.196 17.832 11.592 17.934 12 18C12.408 17.928 12.798 17.826 13.182 17.694C15.984 16.692 18 13.992 18 10.8C15.492 10.8 13.29 12.102 12 14.07ZM12.792 16.56C12.528 16.65 12.264 16.722 11.994 16.782C11.73 16.728 11.472 16.656 11.226 16.566C9.252 15.858 7.806 14.172 7.356 12.156C8.016 12.312 8.646 12.582 9.228 12.954L9.216 12.96C9.294 13.014 9.372 13.068 9.45 13.11L9.492 13.134C10.086 13.566 10.596 14.1 10.998 14.724L12 16.26L13.002 14.73C13.416 14.1 13.932 13.56 14.52 13.134L14.562 13.104C14.616 13.074 14.67 13.038 14.724 13.002L14.718 12.99C15.306 12.6 15.96 12.312 16.644 12.15C16.194 14.172 14.754 15.858 12.792 16.56ZM10.194 12.168C10.182 12.162 10.17 12.15 10.164 12.144C10.164 12.144 10.17 12.144 10.17 12.15C10.176 12.156 10.182 12.162 10.194 12.168Z" fill="black"/>
</svg>
