<svg width="24" height="24" viewBox="0 0 24 24" fill="none" xmlns="http://www.w3.org/2000/svg">
<path fill-rule="evenodd" clip-rule="evenodd" d="M19 19.25H19.25V19V5V4.75H19H5H4.75V5V19V19.25H5H19ZM5 3.25H19C19.9619 3.25 20.75 4.03807 20.75 5V19C20.75 19.9619 19.9619 20.75 19 20.75H5C4.03807 20.75 3.25 19.9619 3.25 19V5C3.25 4.03807 4.03807 3.25 5 3.25Z" fill="black"/>
<path fill-rule="evenodd" clip-rule="evenodd" d="M0.75 4.97144V21.3725C0.75 22.339 1.5335 23.1225 2.5 23.1225H19.0143V21.6225L2.5 21.6225C2.36193 21.6225 2.25 21.5106 2.25 21.3725L2.25 4.97144H0.75ZM11.5 14V12.5H8V14H9V17H6V14H7V12.5V12V11.5H11.5V10H10.5V7H11.5H12.5H13.5V10H12.5V11.5H17V12V12.5V14H18V17H15V14H16V12.5H12.5V14H13.5V17H10.5V14H11.5Z" fill="black"/>
</svg>
