<svg width="24" height="24" viewBox="0 0 24 24" fill="none" xmlns="http://www.w3.org/2000/svg">
<path fill-rule="evenodd" clip-rule="evenodd" d="M19 19.25H19.25V19V5V4.75H19H5H4.75V5V19V19.25H5H19ZM5 3.25H19C19.9619 3.25 20.75 4.03807 20.75 5V19C20.75 19.9619 19.9619 20.75 19 20.75H5C4.03807 20.75 3.25 19.9619 3.25 19V5C3.25 4.03807 4.03807 3.25 5 3.25Z" fill="black"/>
<path fill-rule="evenodd" clip-rule="evenodd" d="M16 7.5C16 8.32843 15.3284 9 14.5 9C14.2876 9 14.0855 8.95585 13.9024 8.87623L13.0063 10.4046C13.3607 10.673 13.6229 11.0568 13.737 11.5H15.3853C15.5913 10.9174 16.1469 10.5 16.8 10.5C17.6284 10.5 18.3 11.1716 18.3 12C18.3 12.8284 17.6284 13.5 16.8 13.5C16.1469 13.5 15.5913 13.0826 15.3853 12.5H13.737C13.6405 12.8747 13.4382 13.207 13.1638 13.4629L14.0848 15.0582C14.2167 15.0203 14.356 15 14.5 15C15.3284 15 16 15.6716 16 16.5C16 17.3284 15.3284 18 14.5 18C13.6716 18 13 17.3284 13 16.5C13 16.1817 13.0991 15.8866 13.2682 15.6438L12.285 13.9408C12.1297 13.9795 11.9672 14 11.8 14C10.8681 14 10.085 13.3626 9.863 12.5H8.71463C8.50872 13.0826 7.9531 13.5 7.29999 13.5C6.47156 13.5 5.79999 12.8284 5.79999 12C5.79999 11.1716 6.47156 10.5 7.29999 10.5C7.9531 10.5 8.50872 10.9174 8.71463 11.5H9.863C10.085 10.6374 10.8681 10 11.8 10C11.8928 10 11.9841 10.0063 12.0735 10.0185L13.1574 8.1697C13.0567 7.96812 13 7.74068 13 7.5C13 6.67157 13.6716 6 14.5 6C15.3284 6 16 6.67157 16 7.5Z" fill="black"/>
</svg>
