<svg width="24" height="24" viewBox="0 0 24 24" fill="none" xmlns="http://www.w3.org/2000/svg">
<path fill-rule="evenodd" clip-rule="evenodd" d="M19 19.25H19.25V19V5V4.75H19H5H4.75V5V19V19.25H5H19ZM5 3.25H19C19.9619 3.25 20.75 4.03807 20.75 5V19C20.75 19.9619 19.9619 20.75 19 20.75H5C4.03807 20.75 3.25 19.9619 3.25 19V5C3.25 4.03807 4.03807 3.25 5 3.25Z" fill="black"/>
<path fill-rule="evenodd" clip-rule="evenodd" d="M11.5 12.5V14H10.5V17H13.5V14H12.5V12.5H16V14H15V17H18V14H17V12.5V12V11.5H12.5V10H13.5V7H12.5H11.5H10.5V10H11.5V11.5H7V12V12.5V14H6V17H9V14H8V12.5H11.5Z" fill="black"/>
</svg>
