<svg width="24" height="24" viewBox="0 0 24 24" fill="none" xmlns="http://www.w3.org/2000/svg">
<path fill-rule="evenodd" clip-rule="evenodd" d="M19 19.25H19.25V19V5V4.75H19H5H4.75V5V19V19.25H5H19ZM5 3.25H19C19.9619 3.25 20.75 4.03807 20.75 5V19C20.75 19.9619 19.9619 20.75 19 20.75H5C4.03807 20.75 3.25 19.9619 3.25 19V5C3.25 4.03807 4.03807 3.25 5 3.25Z" fill="black"/>
<path d="M8.66667 16C9.58714 16 10.3333 15.2837 10.3333 14.4C10.3333 13.5163 9.58714 12.8 8.66667 12.8C7.74619 12.8 7 13.5163 7 14.4C7 15.2837 7.74619 16 8.66667 16Z" fill="black"/>
<path d="M12 11.2C12.9205 11.2 13.6667 10.4837 13.6667 9.6C13.6667 8.71634 12.9205 8 12 8C11.0795 8 10.3333 8.71634 10.3333 9.6C10.3333 10.4837 11.0795 11.2 12 11.2Z" fill="black"/>
<path d="M15.3333 16C16.2538 16 17 15.2837 17 14.4C17 13.5163 16.2538 12.8 15.3333 12.8C14.4129 12.8 13.6667 13.5163 13.6667 14.4C13.6667 15.2837 14.4129 16 15.3333 16Z" fill="black"/>
</svg>
