<svg width="24" height="24" viewBox="0 0 24 24" fill="none" xmlns="http://www.w3.org/2000/svg">
<path fill-rule="evenodd" clip-rule="evenodd" d="M19 19.25H19.25V19V5V4.75H19H5H4.75V5V19V19.25H5H19ZM5 3.25H19C19.9619 3.25 20.75 4.03807 20.75 5V19C20.75 19.9619 19.9619 20.75 19 20.75H5C4.03807 20.75 3.25 19.9619 3.25 19V5C3.25 4.03807 4.03807 3.25 5 3.25Z" fill="black"/>
<path fill-rule="evenodd" clip-rule="evenodd" d="M0.75 4.97144V21.3725C0.75 22.339 1.5335 23.1225 2.5 23.1225H19.0143V21.6225L2.5 21.6225C2.36193 21.6225 2.25 21.5106 2.25 21.3725L2.25 4.97144H0.75ZM12.036 6C13.308 7.272 13.986 8.904 14.094 10.578C13.326 10.992 12.618 11.52 12 12.156C11.382 11.514 10.674 10.986 9.906 10.578C10.044 8.916 10.752 7.284 12.036 6ZM12.81 9.942C12.672 9.222 12.408 8.532 12.03 7.914C11.634 8.538 11.358 9.228 11.208 9.948C11.484 10.128 11.754 10.326 12.006 10.53C12.264 10.32 12.528 10.122 12.81 9.942ZM10.164 12.15C10.884 12.666 11.508 13.32 12 14.07C13.29 12.102 15.492 10.8 18 10.8C18 13.992 15.984 16.692 13.182 17.694C12.798 17.826 12.408 17.928 12 18C11.592 17.934 11.196 17.832 10.818 17.694C8.016 16.692 6 13.992 6 10.8C7.554 10.8 8.988 11.298 10.158 12.144C10.1268 12.1232 10.0932 12.1023 10.059 12.081C10.0142 12.0532 9.96815 12.0246 9.924 11.994C9.96928 12.0288 10.0166 12.0576 10.0635 12.0862C10.0975 12.1068 10.1313 12.1273 10.164 12.15ZM11.994 16.782C12.264 16.722 12.528 16.65 12.792 16.56C14.754 15.858 16.194 14.172 16.644 12.15C15.96 12.312 15.306 12.6 14.718 12.99L14.724 13.002L14.724 13.002C14.67 13.038 14.616 13.074 14.562 13.104L14.52 13.134C13.932 13.56 13.416 14.1 13.002 14.73L12 16.26L10.998 14.724C10.596 14.1 10.086 13.566 9.492 13.134L9.45 13.11C9.37201 13.068 9.29402 13.014 9.21603 12.96L9.216 12.96L9.228 12.954C8.646 12.582 8.016 12.312 7.356 12.156C7.806 14.172 9.252 15.858 11.226 16.566C11.472 16.656 11.73 16.728 11.994 16.782ZM10.17 12.1499C10.1764 12.156 10.1852 12.1636 10.194 12.168C10.182 12.162 10.176 12.156 10.17 12.15C10.17 12.15 10.17 12.1499 10.17 12.1499ZM10.17 12.1499C10.1699 12.144 10.164 12.144 10.164 12.144L10.164 12.144C10.1656 12.1456 10.1677 12.1476 10.17 12.1499Z" fill="black"/>
</svg>
