<svg width="24" height="24" viewBox="0 0 24 24" fill="none" xmlns="http://www.w3.org/2000/svg">
<path d="M6.95277 15V9.18182H9.13459C9.58156 9.18182 9.95656 9.25947 10.2596 9.41477C10.5645 9.57008 10.7946 9.78788 10.9499 10.0682C11.1071 10.3466 11.1857 10.6714 11.1857 11.0426C11.1857 11.4157 11.1062 11.7396 10.9471 12.0142C10.7899 12.2869 10.5579 12.4981 10.2511 12.6477C9.94425 12.7955 9.56735 12.8693 9.12038 12.8693H7.56641V11.9943H8.97834C9.2397 11.9943 9.45372 11.9583 9.62038 11.8864C9.78705 11.8125 9.91016 11.7055 9.9897 11.5653C10.0711 11.4233 10.1119 11.2491 10.1119 11.0426C10.1119 10.8362 10.0711 10.66 9.9897 10.5142C9.90826 10.3665 9.78421 10.2547 9.61754 10.179C9.45088 10.1013 9.23591 10.0625 8.97266 10.0625H8.00675V15H6.95277ZM9.95845 12.3636L11.3988 15H10.2227L8.80788 12.3636H9.95845ZM16.0536 11.0398C16.0063 10.8864 15.9409 10.7491 15.8576 10.6278C15.7762 10.5047 15.6777 10.3996 15.5621 10.3125C15.4485 10.2254 15.3178 10.16 15.1701 10.1165C15.0224 10.071 14.8614 10.0483 14.6871 10.0483C14.3746 10.0483 14.0962 10.1269 13.8519 10.2841C13.6076 10.4413 13.4154 10.6723 13.2752 10.9773C13.137 11.2803 13.0678 11.6496 13.0678 12.0852C13.0678 12.5246 13.137 12.8968 13.2752 13.2017C13.4135 13.5066 13.6057 13.7386 13.8519 13.8977C14.0981 14.0549 14.3841 14.1335 14.7099 14.1335C15.0053 14.1335 15.261 14.0767 15.4769 13.9631C15.6947 13.8494 15.8623 13.6884 15.9798 13.4801C16.0972 13.2699 16.1559 13.0237 16.1559 12.7415L16.3945 12.7784H14.815V11.9545H17.1758V12.6534C17.1758 13.1515 17.0697 13.5824 16.8576 13.946C16.6455 14.3097 16.3538 14.59 15.9826 14.7869C15.6114 14.982 15.1853 15.0795 14.7042 15.0795C14.1682 15.0795 13.6976 14.9593 13.2923 14.7188C12.8888 14.4763 12.5735 14.1326 12.3462 13.6875C12.1209 13.2405 12.0082 12.7102 12.0082 12.0966C12.0082 11.6269 12.0745 11.2074 12.207 10.8381C12.3415 10.4688 12.529 10.1553 12.7695 9.89773C13.0101 9.63826 13.2923 9.44129 13.6161 9.30682C13.94 9.17045 14.2923 9.10227 14.6729 9.10227C14.9949 9.10227 15.2951 9.14962 15.5735 9.24432C15.8519 9.33712 16.0991 9.4697 16.315 9.64205C16.5328 9.81439 16.7118 10.0189 16.8519 10.2557C16.9921 10.4924 17.0839 10.7538 17.1275 11.0398H16.0536Z" fill="black"/>
</svg>
