<svg width="24" height="24" viewBox="0 0 24 24" fill="none" xmlns="http://www.w3.org/2000/svg">
<path d="M7.70668 15V9.18182H9.88849C10.3355 9.18182 10.7105 9.25947 11.0135 9.41477C11.3184 9.57008 11.5485 9.78788 11.7038 10.0682C11.861 10.3466 11.9396 10.6714 11.9396 11.0426C11.9396 11.4157 11.8601 11.7396 11.701 12.0142C11.5438 12.2869 11.3118 12.4981 11.005 12.6477C10.6982 12.7955 10.3213 12.8693 9.87429 12.8693H8.32031V11.9943H9.73224C9.99361 11.9943 10.2076 11.9583 10.3743 11.8864C10.541 11.8125 10.6641 11.7055 10.7436 11.5653C10.825 11.4233 10.8658 11.2491 10.8658 11.0426C10.8658 10.8362 10.825 10.66 10.7436 10.5142C10.6622 10.3665 10.5381 10.2547 10.3714 10.179C10.2048 10.1013 9.98982 10.0625 9.72656 10.0625H8.76065V15H7.70668ZM10.7124 12.3636L12.1527 15H10.9766L9.56179 12.3636H10.7124ZM12.9098 15V9.18182H13.9638V14.1165H16.5263V15H12.9098Z" fill="black"/>
</svg>
