<svg width="24" height="24" viewBox="0 0 24 24" fill="none" xmlns="http://www.w3.org/2000/svg">
<rect opacity="0.25" x="2.87903" y="4.75" width="18.2419" height="14.5" rx="2" fill="black"/>
<path fill-rule="evenodd" clip-rule="evenodd" d="M4.00122 6.00006L4.00122 17.75L4.00122 18V6.00006ZM19.9988 18.2499L20.2488 18.2499V17.9999V6V5.75L19.9988 5.75L4.00122 5.75006L3.75122 5.75006V6.00006V18V18.25L4.00122 18.25L19.9988 18.2499ZM4.00122 4.25006L19.9988 4.25C20.9615 4.25 21.75 5.03822 21.75 6V17.9999C21.75 18.9617 20.9615 19.7499 19.9988 19.7499L4.00122 19.75C3.03848 19.75 2.25 18.9618 2.25 18V6.00006C2.25 5.03828 3.03848 4.25006 4.00122 4.25006Z" fill="black"/>
<path d="M7.39808 15V9.18182H9.5799C10.0269 9.18182 10.4019 9.25947 10.7049 9.41477C11.0098 9.57008 11.2399 9.78788 11.3952 10.0682C11.5524 10.3466 11.631 10.6714 11.631 11.0426C11.631 11.4157 11.5515 11.7396 11.3924 12.0142C11.2352 12.2869 11.0032 12.4981 10.6964 12.6477C10.3896 12.7955 10.0127 12.8693 9.5657 12.8693H8.01172V11.9943H9.42365C9.68501 11.9943 9.89903 11.9583 10.0657 11.8864C10.2324 11.8125 10.3555 11.7055 10.435 11.5653C10.5165 11.4233 10.5572 11.2491 10.5572 11.0426C10.5572 10.8362 10.5165 10.66 10.435 10.5142C10.3536 10.3665 10.2295 10.2547 10.0629 10.179C9.89619 10.1013 9.68123 10.0625 9.41797 10.0625H8.45206V15H7.39808ZM10.4038 12.3636L11.8441 15H10.668L9.2532 12.3636H10.4038ZM12.6012 15V9.18182H14.783C15.23 9.18182 15.605 9.26515 15.908 9.43182C16.213 9.59848 16.4431 9.82765 16.5984 10.1193C16.7556 10.4091 16.8342 10.7386 16.8342 11.108C16.8342 11.4811 16.7556 11.8125 16.5984 12.1023C16.4412 12.392 16.2092 12.6203 15.9023 12.7869C15.5955 12.9517 15.2177 13.0341 14.7688 13.0341H13.3228V12.1676H14.6268C14.8881 12.1676 15.1022 12.1222 15.2688 12.0312C15.4355 11.9403 15.5586 11.8153 15.6381 11.6562C15.7196 11.4972 15.7603 11.3144 15.7603 11.108C15.7603 10.9015 15.7196 10.7197 15.6381 10.5625C15.5586 10.4053 15.4345 10.2831 15.266 10.196C15.0993 10.107 14.8844 10.0625 14.6211 10.0625H13.6552V15H12.6012Z" fill="black"/>
</svg>
