<svg width="24" height="24" viewBox="0 0 24 24" fill="none" xmlns="http://www.w3.org/2000/svg">
<rect opacity="0.1" x="3.75" y="5.74512" width="16.5" height="12.5" fill="black"/>
<path opacity="0.4" fill-rule="evenodd" clip-rule="evenodd" d="M4.00122 6.00006L4.00122 17.75L4.00122 18V6.00006ZM19.9988 18.2499L20.2488 18.2499V17.9999V6V5.75L19.9988 5.75L4.00122 5.75006L3.75122 5.75006V6.00006V18V18.25L4.00122 18.25L19.9988 18.2499ZM4.00122 4.25006L19.9988 4.25C20.9615 4.25 21.75 5.03822 21.75 6V17.9999C21.75 18.9617 20.9615 19.7499 19.9988 19.7499L4.00122 19.75C3.03848 19.75 2.25 18.9618 2.25 18V6.00006C2.25 5.03828 3.03848 4.25006 4.00122 4.25006Z" fill="black"/>
<path opacity="0.4" d="M7.39808 14.9951V9.17694H9.5799C10.0269 9.17694 10.4019 9.25459 10.7049 9.40989C11.0098 9.56519 11.2399 9.783 11.3952 10.0633C11.5524 10.3417 11.631 10.6665 11.631 11.0377C11.631 11.4108 11.5515 11.7347 11.3924 12.0093C11.2352 12.282 11.0032 12.4932 10.6964 12.6428C10.3896 12.7906 10.0127 12.8644 9.5657 12.8644H8.01172V11.9894H9.42365C9.68501 11.9894 9.89903 11.9535 10.0657 11.8815C10.2324 11.8076 10.3555 11.7006 10.435 11.5605C10.5165 11.4184 10.5572 11.2442 10.5572 11.0377C10.5572 10.8313 10.5165 10.6552 10.435 10.5093C10.3536 10.3616 10.2295 10.2499 10.0629 10.1741C9.89619 10.0964 9.68123 10.0576 9.41797 10.0576H8.45206V14.9951H7.39808ZM10.4038 12.3588L11.8441 14.9951H10.668L9.2532 12.3588H10.4038ZM12.6012 14.9951V9.17694H14.783C15.23 9.17694 15.605 9.26027 15.908 9.42694C16.213 9.5936 16.4431 9.82277 16.5984 10.1144C16.7556 10.4042 16.8342 10.7338 16.8342 11.1031C16.8342 11.4762 16.7556 11.8076 16.5984 12.0974C16.4412 12.3872 16.2092 12.6154 15.9023 12.782C15.5955 12.9468 15.2177 13.0292 14.7688 13.0292H13.3228V12.1627H14.6268C14.8881 12.1627 15.1022 12.1173 15.2688 12.0264C15.4355 11.9355 15.5586 11.8105 15.6381 11.6514C15.7196 11.4923 15.7603 11.3095 15.7603 11.1031C15.7603 10.8966 15.7196 10.7148 15.6381 10.5576C15.5586 10.4004 15.4345 10.2783 15.266 10.1911C15.0993 10.1021 14.8844 10.0576 14.6211 10.0576H13.6552V14.9951H12.6012Z" fill="black"/>
</svg>
