<svg width="24" height="24" viewBox="0 0 24 24" fill="none" xmlns="http://www.w3.org/2000/svg">
<path d="M7.37464 15V9.18182H9.55646C10.0034 9.18182 10.3784 9.25947 10.6815 9.41477C10.9864 9.57008 11.2165 9.78788 11.3718 10.0682C11.529 10.3466 11.6076 10.6714 11.6076 11.0426C11.6076 11.4157 11.5281 11.7396 11.369 12.0142C11.2118 12.2869 10.9798 12.4981 10.6729 12.6477C10.3661 12.7955 9.98923 12.8693 9.54226 12.8693H7.98828V11.9943H9.40021C9.66158 11.9943 9.87559 11.9583 10.0423 11.8864C10.2089 11.8125 10.332 11.7055 10.4116 11.5653C10.493 11.4233 10.5337 11.2491 10.5337 11.0426C10.5337 10.8362 10.493 10.66 10.4116 10.5142C10.3301 10.3665 10.2061 10.2547 10.0394 10.179C9.87275 10.1013 9.65779 10.0625 9.39453 10.0625H8.42862V15H7.37464ZM10.3803 12.3636L11.8207 15H10.6445L9.22976 12.3636H10.3803ZM15.7397 10.7812C15.7132 10.5331 15.6014 10.34 15.4045 10.2017C15.2094 10.0634 14.9556 9.99432 14.6431 9.99432C14.4234 9.99432 14.235 10.0275 14.0778 10.0938C13.9206 10.16 13.8003 10.25 13.717 10.3636C13.6336 10.4773 13.591 10.607 13.5891 10.7528C13.5891 10.8741 13.6166 10.9792 13.6715 11.0682C13.7283 11.1572 13.805 11.233 13.9016 11.2955C13.9982 11.3561 14.1052 11.4072 14.2227 11.4489C14.3401 11.4905 14.4585 11.5256 14.5778 11.554L15.1232 11.6903C15.3429 11.7415 15.5541 11.8106 15.7567 11.8977C15.9613 11.9848 16.1441 12.0947 16.305 12.2273C16.4679 12.3598 16.5967 12.5199 16.6914 12.7074C16.7861 12.8949 16.8335 13.1146 16.8335 13.3665C16.8335 13.7074 16.7463 14.0076 16.5721 14.267C16.3978 14.5246 16.146 14.7263 15.8164 14.8722C15.4888 15.0161 15.092 15.0881 14.6261 15.0881C14.1734 15.0881 13.7804 15.018 13.4471 14.8778C13.1156 14.7377 12.8562 14.5331 12.6687 14.2642C12.4831 13.9953 12.3827 13.6676 12.3675 13.2812H13.4045C13.4196 13.4839 13.4821 13.6525 13.592 13.7869C13.7018 13.9214 13.8448 14.0218 14.021 14.0881C14.199 14.1544 14.3978 14.1875 14.6175 14.1875C14.8467 14.1875 15.0475 14.1534 15.2198 14.0852C15.3941 14.0152 15.5304 13.9186 15.6289 13.7955C15.7274 13.6705 15.7776 13.5246 15.7795 13.358C15.7776 13.2064 15.7331 13.0814 15.646 12.983C15.5588 12.8826 15.4367 12.7992 15.2795 12.733C15.1242 12.6648 14.9424 12.6042 14.734 12.5511L14.0721 12.3807C13.5929 12.2576 13.2141 12.071 12.9357 11.821C12.6592 11.5691 12.521 11.2348 12.521 10.8182C12.521 10.4754 12.6138 10.1752 12.7994 9.91761C12.9869 9.66004 13.2416 9.46023 13.5636 9.31818C13.8855 9.17424 14.2501 9.10227 14.6573 9.10227C15.0702 9.10227 15.4319 9.17424 15.7425 9.31818C16.055 9.46023 16.3003 9.65814 16.4783 9.91193C16.6564 10.1638 16.7482 10.4536 16.7539 10.7812H15.7397Z" fill="black"/>
</svg>
