<svg width="24" height="24" viewBox="0 0 24 24" fill="none" xmlns="http://www.w3.org/2000/svg">
<path d="M13.1381 10.7812C13.1116 10.5331 12.9999 10.34 12.8029 10.2017C12.6078 10.0634 12.354 9.99432 12.0415 9.99432C11.8219 9.99432 11.6334 10.0275 11.4762 10.0938C11.319 10.16 11.1987 10.25 11.1154 10.3636C11.0321 10.4773 10.9895 10.607 10.9876 10.7528C10.9876 10.8741 11.015 10.9792 11.07 11.0682C11.1268 11.1572 11.2035 11.233 11.3001 11.2955C11.3967 11.3561 11.5037 11.4072 11.6211 11.4489C11.7385 11.4905 11.8569 11.5256 11.9762 11.554L12.5217 11.6903C12.7414 11.7415 12.9525 11.8106 13.1552 11.8977C13.3597 11.9848 13.5425 12.0947 13.7035 12.2273C13.8664 12.3598 13.9951 12.5199 14.0898 12.7074C14.1845 12.8949 14.2319 13.1146 14.2319 13.3665C14.2319 13.7074 14.1448 14.0076 13.9705 14.267C13.7963 14.5246 13.5444 14.7263 13.2148 14.8722C12.8872 15.0161 12.4904 15.0881 12.0245 15.0881C11.5719 15.0881 11.1789 15.018 10.8455 14.8778C10.5141 14.7377 10.2546 14.5331 10.0671 14.2642C9.88151 13.9953 9.78113 13.6676 9.76598 13.2812H10.8029C10.8181 13.4839 10.8806 13.6525 10.9904 13.7869C11.1003 13.9214 11.2433 14.0218 11.4194 14.0881C11.5974 14.1544 11.7963 14.1875 12.016 14.1875C12.2451 14.1875 12.4459 14.1534 12.6183 14.0852C12.7925 14.0152 12.9289 13.9186 13.0273 13.7955C13.1258 13.6705 13.176 13.5246 13.1779 13.358C13.176 13.2064 13.1315 13.0814 13.0444 12.983C12.9573 12.8826 12.8351 12.7992 12.6779 12.733C12.5226 12.6648 12.3408 12.6042 12.1325 12.5511L11.4705 12.3807C10.9914 12.2576 10.6126 12.071 10.3342 11.821C10.0576 11.5691 9.91939 11.2348 9.91939 10.8182C9.91939 10.4754 10.0122 10.1752 10.1978 9.91761C10.3853 9.66004 10.64 9.46023 10.962 9.31818C11.284 9.17424 11.6486 9.10227 12.0558 9.10227C12.4686 9.10227 12.8304 9.17424 13.141 9.31818C13.4535 9.46023 13.6987 9.65814 13.8768 9.91193C14.0548 10.1638 14.1467 10.4536 14.1523 10.7812H13.1381Z" fill="black"/>
</svg>
