<svg width="24" height="24" viewBox="0 0 24 24" fill="none" xmlns="http://www.w3.org/2000/svg">
<path fill-rule="evenodd" clip-rule="evenodd" d="M19 19.25H19.25V19V7.83V7.72645L19.1768 7.65322L16.3468 4.82322L16.2736 4.75H16.17H5H4.75V5V19V19.25H5H19ZM5 3.25H16.8964L20.75 7.10355V19C20.75 19.9619 19.9619 20.75 19 20.75H5C4.02888 20.75 3.25 19.9627 3.25 19V5C3.25 4.03726 4.02888 3.25 5 3.25ZM9.25 15C9.25 13.4781 10.4781 12.25 12 12.25C13.5219 12.25 14.75 13.4781 14.75 15C14.75 16.5219 13.5219 17.75 12 17.75C10.4781 17.75 9.25 16.5219 9.25 15ZM6.25 6.25H14.75V9.75H6.25V6.25Z" fill="black"/>
</svg>
