<svg width="24" height="24" viewBox="0 0 24 24" fill="none" xmlns="http://www.w3.org/2000/svg">
<rect opacity="0.25" x="2.87903" y="4.75" width="18.2419" height="14.5" rx="2" fill="black"/>
<path fill-rule="evenodd" clip-rule="evenodd" d="M4.00122 6.00006L4.00122 17.75L4.00122 18V6.00006ZM19.9988 18.2499L20.2488 18.2499V17.9999V6V5.75L19.9988 5.75L4.00122 5.75006L3.75122 5.75006V6.00006V18V18.25L4.00122 18.25L19.9988 18.2499ZM4.00122 4.25006L19.9988 4.25C20.9615 4.25 21.75 5.03822 21.75 6V17.9999C21.75 18.9617 20.9615 19.7499 19.9988 19.7499L4.00122 19.75C3.03848 19.75 2.25 18.9618 2.25 18V6.00006C2.25 5.03828 3.03848 4.25006 4.00122 4.25006Z" fill="black"/>
<path d="M10.1655 10.7812C10.139 10.5331 10.0272 10.34 9.83026 10.2017C9.63518 10.0634 9.38139 9.99432 9.06889 9.99432C8.8492 9.99432 8.66075 10.0275 8.50355 10.0938C8.34635 10.16 8.22609 10.25 8.14276 10.3636C8.05942 10.4773 8.01681 10.607 8.01491 10.7528C8.01491 10.8741 8.04238 10.9792 8.0973 11.0682C8.15412 11.1572 8.23082 11.233 8.32741 11.2955C8.42401 11.3561 8.53101 11.4072 8.64844 11.4489C8.76586 11.4905 8.88423 11.5256 9.00355 11.554L9.54901 11.6903C9.7687 11.7415 9.97988 11.8106 10.1825 11.8977C10.3871 11.9848 10.5698 12.0947 10.7308 12.2273C10.8937 12.3598 11.0225 12.5199 11.1172 12.7074C11.2119 12.8949 11.2592 13.1146 11.2592 13.3665C11.2592 13.7074 11.1721 14.0076 10.9979 14.267C10.8236 14.5246 10.5717 14.7263 10.2422 14.8722C9.91454 15.0161 9.51776 15.0881 9.05185 15.0881C8.5992 15.0881 8.2062 15.018 7.87287 14.8778C7.54143 14.7377 7.28196 14.5331 7.09446 14.2642C6.90885 13.9953 6.80848 13.6676 6.79332 13.2812H7.83026C7.84541 13.4839 7.90791 13.6525 8.01776 13.7869C8.1276 13.9214 8.2706 14.0218 8.44673 14.0881C8.62476 14.1544 8.82363 14.1875 9.04332 14.1875C9.27249 14.1875 9.47325 14.1534 9.6456 14.0852C9.81984 14.0152 9.9562 13.9186 10.0547 13.7955C10.1532 13.6705 10.2034 13.5246 10.2053 13.358C10.2034 13.2064 10.1589 13.0814 10.0717 12.983C9.98461 12.8826 9.86245 12.7992 9.70526 12.733C9.54995 12.6648 9.36813 12.6042 9.1598 12.5511L8.49787 12.3807C8.0187 12.2576 7.63991 12.071 7.36151 11.821C7.08499 11.5691 6.94673 11.2348 6.94673 10.8182C6.94673 10.4754 7.03954 10.1752 7.22514 9.91761C7.41264 9.66004 7.66738 9.46023 7.98935 9.31818C8.31132 9.17424 8.6759 9.10227 9.0831 9.10227C9.49598 9.10227 9.85772 9.17424 10.1683 9.31818C10.4808 9.46023 10.7261 9.65814 10.9041 9.91193C11.0821 10.1638 11.174 10.4536 11.1797 10.7812H10.1655ZM17.179 11.1449H16.1165C16.0862 10.9706 16.0303 10.8163 15.9489 10.6818C15.8674 10.5455 15.7661 10.4299 15.6449 10.3352C15.5237 10.2405 15.3854 10.1695 15.2301 10.1222C15.0767 10.0729 14.911 10.0483 14.733 10.0483C14.4167 10.0483 14.1364 10.1278 13.892 10.2869C13.6477 10.4441 13.4564 10.6752 13.3182 10.9801C13.1799 11.2831 13.1108 11.6534 13.1108 12.0909C13.1108 12.536 13.1799 12.911 13.3182 13.2159C13.4583 13.5189 13.6496 13.7481 13.892 13.9034C14.1364 14.0568 14.4157 14.1335 14.7301 14.1335C14.9044 14.1335 15.0672 14.1108 15.2188 14.0653C15.3722 14.018 15.5095 13.9489 15.6307 13.858C15.7538 13.767 15.857 13.6553 15.9403 13.5227C16.0256 13.3902 16.0843 13.2386 16.1165 13.0682L17.179 13.0739C17.1392 13.3504 17.053 13.6098 16.9205 13.8523C16.7898 14.0947 16.6184 14.3087 16.4062 14.4943C16.1941 14.678 15.946 14.822 15.6619 14.9261C15.3778 15.0284 15.0625 15.0795 14.7159 15.0795C14.2045 15.0795 13.7481 14.9612 13.3466 14.7244C12.9451 14.4877 12.6288 14.1458 12.3977 13.6989C12.1667 13.2519 12.0511 12.7159 12.0511 12.0909C12.0511 11.464 12.1676 10.928 12.4006 10.483C12.6335 10.036 12.9508 9.69413 13.3523 9.45739C13.7538 9.22064 14.2083 9.10227 14.7159 9.10227C15.0398 9.10227 15.3409 9.14773 15.6193 9.23864C15.8977 9.32955 16.1458 9.46307 16.3636 9.6392C16.5814 9.81345 16.7604 10.0275 16.9006 10.2812C17.0426 10.5331 17.1354 10.821 17.179 11.1449Z" fill="black"/>
</svg>
