<svg width="24" height="24" viewBox="0 0 24 24" fill="none" xmlns="http://www.w3.org/2000/svg">
<path d="M10.7085 10.7812C10.6819 10.5331 10.5702 10.34 10.3732 10.2017C10.1781 10.0634 9.92436 9.99432 9.61186 9.99432C9.39216 9.99432 9.20372 10.0275 9.04652 10.0938C8.88932 10.16 8.76906 10.25 8.68572 10.3636C8.60239 10.4773 8.55978 10.607 8.55788 10.7528C8.55788 10.8741 8.58535 10.9792 8.64027 11.0682C8.69709 11.1572 8.77379 11.233 8.87038 11.2955C8.96697 11.3561 9.07398 11.4072 9.19141 11.4489C9.30883 11.4905 9.4272 11.5256 9.54652 11.554L10.092 11.6903C10.3117 11.7415 10.5228 11.8106 10.7255 11.8977C10.93 11.9848 11.1128 12.0947 11.2738 12.2273C11.4367 12.3598 11.5655 12.5199 11.6602 12.7074C11.7549 12.8949 11.8022 13.1146 11.8022 13.3665C11.8022 13.7074 11.7151 14.0076 11.5408 14.267C11.3666 14.5246 11.1147 14.7263 10.7852 14.8722C10.4575 15.0161 10.0607 15.0881 9.59482 15.0881C9.14216 15.0881 8.74917 15.018 8.41584 14.8778C8.0844 14.7377 7.82493 14.5331 7.63743 14.2642C7.45182 13.9953 7.35144 13.6676 7.33629 13.2812H8.37322C8.38838 13.4839 8.45088 13.6525 8.56072 13.7869C8.67057 13.9214 8.81357 14.0218 8.9897 14.0881C9.16773 14.1544 9.3666 14.1875 9.58629 14.1875C9.81546 14.1875 10.0162 14.1534 10.1886 14.0852C10.3628 14.0152 10.4992 13.9186 10.5977 13.7955C10.6961 13.6705 10.7463 13.5246 10.7482 13.358C10.7463 13.2064 10.7018 13.0814 10.6147 12.983C10.5276 12.8826 10.4054 12.7992 10.2482 12.733C10.0929 12.6648 9.9111 12.6042 9.70277 12.5511L9.04084 12.3807C8.56167 12.2576 8.18288 12.071 7.90447 11.821C7.62796 11.5691 7.4897 11.2348 7.4897 10.8182C7.4897 10.4754 7.5825 10.1752 7.76811 9.91761C7.95561 9.66004 8.21035 9.46023 8.53232 9.31818C8.85429 9.17424 9.21887 9.10227 9.62607 9.10227C10.0389 9.10227 10.4007 9.17424 10.7113 9.31818C11.0238 9.46023 11.2691 9.65814 11.4471 9.91193C11.6251 10.1638 11.717 10.4536 11.7227 10.7812H10.7085ZM12.7418 15V9.18182H16.5259V10.0653H13.7958V11.6449H16.3299V12.5284H13.7958V14.1165H16.5487V15H12.7418Z" fill="black"/>
</svg>
