<svg width="24" height="24" viewBox="0 0 24 24" fill="none" xmlns="http://www.w3.org/2000/svg">
<path fill-rule="evenodd" clip-rule="evenodd" d="M12.25 20.8484C12.25 20.8484 12.25 20.8484 12.25 20.8484C12.6266 20.7191 12.9928 20.5637 13.3471 20.3846C12.9928 20.5637 12.6266 20.7191 12.25 20.8484ZM5 12.25H11.75V20.93V21.2689L12.0738 21.1688C15.9025 19.9852 18.7076 16.2223 19.248 12.0219L19.2842 11.74H19H12.25V3.18998V2.80535L11.8985 2.96151L4.8985 6.07151L4.75 6.13749V6.29998V12V12.25H5ZM3.25 11V5.16245L12 1.27356L20.75 5.16245V11C20.75 16.4237 17.0085 21.4869 12 22.7424C6.99145 21.4869 3.25 16.4237 3.25 11Z" fill="black"/>
</svg>
