<svg width="24" height="24" viewBox="0 0 24 24" fill="none" xmlns="http://www.w3.org/2000/svg">
<path fill-rule="evenodd" clip-rule="evenodd" d="M11.25 17.75V16.25H12.75V17.75H11.25ZM2.25 12C2.25 6.61807 6.61807 2.25 12 2.25C17.3819 2.25 21.75 6.61807 21.75 12C21.75 17.3819 17.3819 21.75 12 21.75C6.61807 21.75 2.25 17.3819 2.25 12ZM3.75 12C3.75 16.5481 7.45193 20.25 12 20.25C16.5481 20.25 20.25 16.5481 20.25 12C20.25 7.45193 16.5481 3.75 12 3.75C7.45193 3.75 3.75 7.45193 3.75 12ZM12 7.75C10.8464 7.75 9.88913 8.62856 9.76388 9.75H8.25819C8.38673 7.79475 10.0121 6.25 12 6.25C14.0719 6.25 15.75 7.92807 15.75 10C15.75 11.1265 15.0884 11.7467 14.3354 12.4056L14.2558 12.4751C13.5932 13.0533 12.862 13.6913 12.7617 14.75H11.2565C11.2905 14.1081 11.4556 13.6336 11.6826 13.2583C11.9405 12.8321 12.2874 12.5184 12.6552 12.2273C12.7379 12.1618 12.8233 12.0964 12.9094 12.0304L12.9094 12.0304L12.9094 12.0304C13.1937 11.8126 13.4862 11.5885 13.716 11.3364C14.0301 10.9918 14.25 10.5747 14.25 10C14.25 8.76193 13.2381 7.75 12 7.75Z" fill="black"/>
</svg>
