<svg width="24" height="24" viewBox="0 0 24 24" fill="none" xmlns="http://www.w3.org/2000/svg">
<rect opacity="0.25" x="2.87903" y="4.75" width="18.2419" height="14.5" rx="2" fill="black"/>
<path fill-rule="evenodd" clip-rule="evenodd" d="M4.00122 6.00006L4.00122 17.75L4.00122 18V6.00006ZM19.9988 18.2499L20.2488 18.2499V17.9999V6V5.75L19.9988 5.75L4.00122 5.75006L3.75122 5.75006V6.00006V18V18.25L4.00122 18.25L19.9988 18.2499ZM4.00122 4.25006L19.9988 4.25C20.9615 4.25 21.75 5.03822 21.75 6V17.9999C21.75 18.9617 20.9615 19.7499 19.9988 19.7499L4.00122 19.75C3.03848 19.75 2.25 18.9618 2.25 18V6.00006C2.25 5.03828 3.03848 4.25006 4.00122 4.25006Z" fill="black"/>
<path d="M10.8725 10.7812C10.846 10.5331 10.7343 10.34 10.5373 10.2017C10.3422 10.0634 10.0884 9.99432 9.77592 9.99432C9.55623 9.99432 9.36778 10.0275 9.21058 10.0938C9.05339 10.16 8.93312 10.25 8.84979 10.3636C8.76645 10.4773 8.72384 10.607 8.72195 10.7528C8.72195 10.8741 8.74941 10.9792 8.80433 11.0682C8.86115 11.1572 8.93786 11.233 9.03445 11.2955C9.13104 11.3561 9.23804 11.4072 9.35547 11.4489C9.47289 11.4905 9.59126 11.5256 9.71058 11.554L10.256 11.6903C10.4757 11.7415 10.6869 11.8106 10.8896 11.8977C11.0941 11.9848 11.2769 12.0947 11.4379 12.2273C11.6007 12.3598 11.7295 12.5199 11.8242 12.7074C11.9189 12.8949 11.9663 13.1146 11.9663 13.3665C11.9663 13.7074 11.8791 14.0076 11.7049 14.267C11.5307 14.5246 11.2788 14.7263 10.9492 14.8722C10.6216 15.0161 10.2248 15.0881 9.75888 15.0881C9.30623 15.0881 8.91323 15.018 8.5799 14.8778C8.24846 14.7377 7.98899 14.5331 7.80149 14.2642C7.61589 13.9953 7.51551 13.6676 7.50036 13.2812H8.53729C8.55244 13.4839 8.61494 13.6525 8.72479 13.7869C8.83464 13.9214 8.97763 14.0218 9.15376 14.0881C9.33179 14.1544 9.53066 14.1875 9.75036 14.1875C9.97952 14.1875 10.1803 14.1534 10.3526 14.0852C10.5269 14.0152 10.6632 13.9186 10.7617 13.7955C10.8602 13.6705 10.9104 13.5246 10.9123 13.358C10.9104 13.2064 10.8659 13.0814 10.7788 12.983C10.6916 12.8826 10.5695 12.7992 10.4123 12.733C10.257 12.6648 10.0752 12.6042 9.86683 12.5511L9.2049 12.3807C8.72573 12.2576 8.34695 12.071 8.06854 11.821C7.79202 11.5691 7.65376 11.2348 7.65376 10.8182C7.65376 10.4754 7.74657 10.1752 7.93217 9.91761C8.11967 9.66004 8.37441 9.46023 8.69638 9.31818C9.01835 9.17424 9.38293 9.10227 9.79013 9.10227C10.203 9.10227 10.5647 9.17424 10.8754 9.31818C11.1879 9.46023 11.4331 9.65814 11.6112 9.91193C11.7892 10.1638 11.881 10.4536 11.8867 10.7812H10.8725ZM12.9059 15V9.18182H13.9599V14.1165H16.5224V15H12.9059Z" fill="black"/>
</svg>
