<svg width="24" height="24" viewBox="0 0 24 24" fill="none" xmlns="http://www.w3.org/2000/svg">
<rect opacity="0.1" x="3.75" y="5.74512" width="16.5" height="12.5" fill="black"/>
<path opacity="0.4" fill-rule="evenodd" clip-rule="evenodd" d="M4.00122 6.00006L4.00122 17.75L4.00122 18V6.00006ZM19.9988 18.2499L20.2488 18.2499V17.9999V6V5.75L19.9988 5.75L4.00122 5.75006L3.75122 5.75006V6.00006V18V18.25L4.00122 18.25L19.9988 18.2499ZM4.00122 4.25006L19.9988 4.25C20.9615 4.25 21.75 5.03822 21.75 6V17.9999C21.75 18.9617 20.9615 19.7499 19.9988 19.7499L4.00122 19.75C3.03848 19.75 2.25 18.9618 2.25 18V6.00006C2.25 5.03828 3.03848 4.25006 4.00122 4.25006Z" fill="black"/>
<path opacity="0.4" d="M10.8725 10.7764C10.846 10.5283 10.7343 10.3351 10.5373 10.1968C10.3422 10.0586 10.0884 9.98944 9.77592 9.98944C9.55623 9.98944 9.36778 10.0226 9.21058 10.0889C9.05339 10.1552 8.93312 10.2451 8.84979 10.3588C8.76645 10.4724 8.72384 10.6021 8.72195 10.748C8.72195 10.8692 8.74941 10.9743 8.80433 11.0633C8.86115 11.1523 8.93786 11.2281 9.03445 11.2906C9.13104 11.3512 9.23804 11.4023 9.35547 11.444C9.47289 11.4856 9.59126 11.5207 9.71058 11.5491L10.256 11.6855C10.4757 11.7366 10.6869 11.8057 10.8896 11.8928C11.0941 11.98 11.2769 12.0898 11.4379 12.2224C11.6007 12.355 11.7295 12.515 11.8242 12.7025C11.9189 12.89 11.9663 13.1097 11.9663 13.3616C11.9663 13.7025 11.8791 14.0027 11.7049 14.2622C11.5307 14.5197 11.2788 14.7214 10.9492 14.8673C10.6216 15.0112 10.2248 15.0832 9.75888 15.0832C9.30623 15.0832 8.91323 15.0131 8.5799 14.873C8.24846 14.7328 7.98899 14.5283 7.80149 14.2593C7.61589 13.9904 7.51551 13.6627 7.50036 13.2764H8.53729C8.55244 13.479 8.61494 13.6476 8.72479 13.782C8.83464 13.9165 8.97763 14.0169 9.15376 14.0832C9.33179 14.1495 9.53066 14.1826 9.75036 14.1826C9.97952 14.1826 10.1803 14.1485 10.3526 14.0803C10.5269 14.0103 10.6632 13.9137 10.7617 13.7906C10.8602 13.6656 10.9104 13.5197 10.9123 13.3531C10.9104 13.2016 10.8659 13.0766 10.7788 12.9781C10.6916 12.8777 10.5695 12.7944 10.4123 12.7281C10.257 12.6599 10.0752 12.5993 9.86683 12.5463L9.2049 12.3758C8.72573 12.2527 8.34695 12.0661 8.06854 11.8161C7.79202 11.5642 7.65376 11.23 7.65376 10.8133C7.65376 10.4705 7.74657 10.1703 7.93217 9.91273C8.11967 9.65516 8.37441 9.45534 8.69638 9.3133C9.01835 9.16936 9.38293 9.09739 9.79013 9.09739C10.203 9.09739 10.5647 9.16936 10.8754 9.3133C11.1879 9.45534 11.4331 9.65326 11.6112 9.90705C11.7892 10.1589 11.881 10.4487 11.8867 10.7764H10.8725ZM12.9059 14.9951V9.17694H13.9599V14.1116H16.5224V14.9951H12.9059Z" fill="black"/>
</svg>
