<svg width="24" height="24" viewBox="0 0 24 24" fill="none" xmlns="http://www.w3.org/2000/svg">
<path d="M10.5639 10.7812C10.5374 10.5331 10.4257 10.34 10.2287 10.2017C10.0336 10.0634 9.77983 9.99432 9.46733 9.99432C9.24763 9.99432 9.05919 10.0275 8.90199 10.0938C8.74479 10.16 8.62453 10.25 8.54119 10.3636C8.45786 10.4773 8.41525 10.607 8.41335 10.7528C8.41335 10.8741 8.44081 10.9792 8.49574 11.0682C8.55256 11.1572 8.62926 11.233 8.72585 11.2955C8.82244 11.3561 8.92945 11.4072 9.04688 11.4489C9.1643 11.4905 9.28267 11.5256 9.40199 11.554L9.94744 11.6903C10.1671 11.7415 10.3783 11.8106 10.581 11.8977C10.7855 11.9848 10.9683 12.0947 11.1293 12.2273C11.2921 12.3598 11.4209 12.5199 11.5156 12.7074C11.6103 12.8949 11.6577 13.1146 11.6577 13.3665C11.6577 13.7074 11.5705 14.0076 11.3963 14.267C11.2221 14.5246 10.9702 14.7263 10.6406 14.8722C10.313 15.0161 9.91619 15.0881 9.45028 15.0881C8.99763 15.0881 8.60464 15.018 8.27131 14.8778C7.93987 14.7377 7.6804 14.5331 7.4929 14.2642C7.30729 13.9953 7.20691 13.6676 7.19176 13.2812H8.22869C8.24384 13.4839 8.30634 13.6525 8.41619 13.7869C8.52604 13.9214 8.66903 14.0218 8.84517 14.0881C9.0232 14.1544 9.22206 14.1875 9.44176 14.1875C9.67093 14.1875 9.87169 14.1534 10.044 14.0852C10.2183 14.0152 10.3546 13.9186 10.4531 13.7955C10.5516 13.6705 10.6018 13.5246 10.6037 13.358C10.6018 13.2064 10.5573 13.0814 10.4702 12.983C10.383 12.8826 10.2609 12.7992 10.1037 12.733C9.94839 12.6648 9.76657 12.6042 9.55824 12.5511L8.89631 12.3807C8.41714 12.2576 8.03835 12.071 7.75994 11.821C7.48343 11.5691 7.34517 11.2348 7.34517 10.8182C7.34517 10.4754 7.43797 10.1752 7.62358 9.91761C7.81108 9.66004 8.06581 9.46023 8.38778 9.31818C8.70975 9.17424 9.07434 9.10227 9.48153 9.10227C9.89441 9.10227 10.2562 9.17424 10.5668 9.31818C10.8793 9.46023 11.1245 9.65814 11.3026 9.91193C11.4806 10.1638 11.5724 10.4536 11.5781 10.7812H10.5639ZM12.5973 15V9.18182H14.7791C15.2261 9.18182 15.6011 9.26515 15.9041 9.43182C16.209 9.59848 16.4392 9.82765 16.5945 10.1193C16.7517 10.4091 16.8303 10.7386 16.8303 11.108C16.8303 11.4811 16.7517 11.8125 16.5945 12.1023C16.4373 12.392 16.2053 12.6203 15.8984 12.7869C15.5916 12.9517 15.2138 13.0341 14.7649 13.0341H13.3189V12.1676H14.6229C14.8842 12.1676 15.0982 12.1222 15.2649 12.0312C15.4316 11.9403 15.5547 11.8153 15.6342 11.6562C15.7157 11.4972 15.7564 11.3144 15.7564 11.108C15.7564 10.9015 15.7157 10.7197 15.6342 10.5625C15.5547 10.4053 15.4306 10.2831 15.2621 10.196C15.0954 10.107 14.8804 10.0625 14.6172 10.0625H13.6513V15H12.5973Z" fill="black"/>
</svg>
