<svg width="24" height="24" viewBox="0 0 24 24" fill="none" xmlns="http://www.w3.org/2000/svg">
<path d="M10.5366 10.7812C10.5101 10.5331 10.3983 10.34 10.2013 10.2017C10.0063 10.0634 9.75249 9.99432 9.43999 9.99432C9.22029 9.99432 9.03184 10.0275 8.87464 10.0938C8.71745 10.16 8.59718 10.25 8.51385 10.3636C8.43052 10.4773 8.3879 10.607 8.38601 10.7528C8.38601 10.8741 8.41347 10.9792 8.46839 11.0682C8.52521 11.1572 8.60192 11.233 8.69851 11.2955C8.7951 11.3561 8.90211 11.4072 9.01953 11.4489C9.13696 11.4905 9.25533 11.5256 9.37464 11.554L9.9201 11.6903C10.1398 11.7415 10.351 11.8106 10.5536 11.8977C10.7582 11.9848 10.9409 12.0947 11.1019 12.2273C11.2648 12.3598 11.3936 12.5199 11.4883 12.7074C11.583 12.8949 11.6303 13.1146 11.6303 13.3665C11.6303 13.7074 11.5432 14.0076 11.369 14.267C11.1947 14.5246 10.9428 14.7263 10.6133 14.8722C10.2856 15.0161 9.88885 15.0881 9.42294 15.0881C8.97029 15.0881 8.5773 15.018 8.24396 14.8778C7.91252 14.7377 7.65305 14.5331 7.46555 14.2642C7.27995 13.9953 7.17957 13.6676 7.16442 13.2812H8.20135C8.2165 13.4839 8.279 13.6525 8.38885 13.7869C8.4987 13.9214 8.64169 14.0218 8.81783 14.0881C8.99586 14.1544 9.19472 14.1875 9.41442 14.1875C9.64358 14.1875 9.84434 14.1534 10.0167 14.0852C10.1909 14.0152 10.3273 13.9186 10.4258 13.7955C10.5243 13.6705 10.5745 13.5246 10.5763 13.358C10.5745 13.2064 10.5299 13.0814 10.4428 12.983C10.3557 12.8826 10.2335 12.7992 10.0763 12.733C9.92105 12.6648 9.73923 12.6042 9.53089 12.5511L8.86896 12.3807C8.3898 12.2576 8.01101 12.071 7.7326 11.821C7.45608 11.5691 7.31783 11.2348 7.31783 10.8182C7.31783 10.4754 7.41063 10.1752 7.59624 9.91761C7.78374 9.66004 8.03847 9.46023 8.36044 9.31818C8.68241 9.17424 9.04699 9.10227 9.45419 9.10227C9.86707 9.10227 10.2288 9.17424 10.5394 9.31818C10.8519 9.46023 11.0972 9.65814 11.2752 9.91193C11.4532 10.1638 11.5451 10.4536 11.5508 10.7812H10.5366ZM12.57 15V9.18182H14.7518C15.1987 9.18182 15.5737 9.25947 15.8768 9.41477C16.1817 9.57008 16.4118 9.78788 16.5671 10.0682C16.7243 10.3466 16.8029 10.6714 16.8029 11.0426C16.8029 11.4157 16.7234 11.7396 16.5643 12.0142C16.4071 12.2869 16.1751 12.4981 15.8683 12.6477C15.5614 12.7955 15.1845 12.8693 14.7376 12.8693H13.1836V11.9943H14.5955C14.8569 11.9943 15.0709 11.9583 15.2376 11.8864C15.4042 11.8125 15.5273 11.7055 15.6069 11.5653C15.6883 11.4233 15.729 11.2491 15.729 11.0426C15.729 10.8362 15.6883 10.66 15.6069 10.5142C15.5254 10.3665 15.4014 10.2547 15.2347 10.179C15.0681 10.1013 14.8531 10.0625 14.5898 10.0625H13.6239V15H12.57ZM15.5756 12.3636L17.016 15H15.8398L14.4251 12.3636H15.5756Z" fill="black"/>
</svg>
