<svg width="24" height="24" viewBox="0 0 24 24" fill="none" xmlns="http://www.w3.org/2000/svg">
<path d="M10.4975 10.7812C10.471 10.5331 10.3593 10.34 10.1623 10.2017C9.96721 10.0634 9.71342 9.99432 9.40092 9.99432C9.18123 9.99432 8.99278 10.0275 8.83558 10.0938C8.67839 10.16 8.55812 10.25 8.47479 10.3636C8.39145 10.4773 8.34884 10.607 8.34695 10.7528C8.34695 10.8741 8.37441 10.9792 8.42933 11.0682C8.48615 11.1572 8.56286 11.233 8.65945 11.2955C8.75604 11.3561 8.86304 11.4072 8.98047 11.4489C9.09789 11.4905 9.21626 11.5256 9.33558 11.554L9.88104 11.6903C10.1007 11.7415 10.3119 11.8106 10.5146 11.8977C10.7191 11.9848 10.9019 12.0947 11.0629 12.2273C11.2257 12.3598 11.3545 12.5199 11.4492 12.7074C11.5439 12.8949 11.5913 13.1146 11.5913 13.3665C11.5913 13.7074 11.5041 14.0076 11.3299 14.267C11.1557 14.5246 10.9038 14.7263 10.5742 14.8722C10.2466 15.0161 9.84979 15.0881 9.38388 15.0881C8.93123 15.0881 8.53823 15.018 8.2049 14.8778C7.87346 14.7377 7.61399 14.5331 7.42649 14.2642C7.24089 13.9953 7.14051 13.6676 7.12536 13.2812H8.16229C8.17744 13.4839 8.23994 13.6525 8.34979 13.7869C8.45964 13.9214 8.60263 14.0218 8.77876 14.0881C8.95679 14.1544 9.15566 14.1875 9.37536 14.1875C9.60452 14.1875 9.80528 14.1534 9.97763 14.0852C10.1519 14.0152 10.2882 13.9186 10.3867 13.7955C10.4852 13.6705 10.5354 13.5246 10.5373 13.358C10.5354 13.2064 10.4909 13.0814 10.4038 12.983C10.3166 12.8826 10.1945 12.7992 10.0373 12.733C9.88198 12.6648 9.70017 12.6042 9.49183 12.5511L8.8299 12.3807C8.35073 12.2576 7.97195 12.071 7.69354 11.821C7.41702 11.5691 7.27876 11.2348 7.27876 10.8182C7.27876 10.4754 7.37157 10.1752 7.55717 9.91761C7.74467 9.66004 7.99941 9.46023 8.32138 9.31818C8.64335 9.17424 9.00793 9.10227 9.41513 9.10227C9.82801 9.10227 10.1897 9.17424 10.5004 9.31818C10.8129 9.46023 11.0581 9.65814 11.2362 9.91193C11.4142 10.1638 11.506 10.4536 11.5117 10.7812H10.4975ZM12.2752 10.0653V9.18182H16.9173V10.0653H15.119V15H14.0735V10.0653H12.2752Z" fill="black"/>
</svg>
