<svg width="24" height="24" viewBox="0 0 24 24" fill="none" xmlns="http://www.w3.org/2000/svg">
<path d="M10.2045 10.7812C10.178 10.5331 10.0663 10.34 9.86932 10.2017C9.67424 10.0634 9.42045 9.99432 9.10795 9.99432C8.88826 9.99432 8.69981 10.0275 8.54261 10.0938C8.38542 10.16 8.26515 10.25 8.18182 10.3636C8.09848 10.4773 8.05587 10.607 8.05398 10.7528C8.05398 10.8741 8.08144 10.9792 8.13636 11.0682C8.19318 11.1572 8.26989 11.233 8.36648 11.2955C8.46307 11.3561 8.57008 11.4072 8.6875 11.4489C8.80492 11.4905 8.9233 11.5256 9.04261 11.554L9.58807 11.6903C9.80777 11.7415 10.0189 11.8106 10.2216 11.8977C10.4261 11.9848 10.6089 12.0947 10.7699 12.2273C10.9328 12.3598 11.0616 12.5199 11.1562 12.7074C11.2509 12.8949 11.2983 13.1146 11.2983 13.3665C11.2983 13.7074 11.2112 14.0076 11.0369 14.267C10.8627 14.5246 10.6108 14.7263 10.2812 14.8722C9.9536 15.0161 9.55682 15.0881 9.09091 15.0881C8.63826 15.0881 8.24527 15.018 7.91193 14.8778C7.58049 14.7377 7.32102 14.5331 7.13352 14.2642C6.94792 13.9953 6.84754 13.6676 6.83239 13.2812H7.86932C7.88447 13.4839 7.94697 13.6525 8.05682 13.7869C8.16667 13.9214 8.30966 14.0218 8.4858 14.0881C8.66383 14.1544 8.86269 14.1875 9.08239 14.1875C9.31155 14.1875 9.51231 14.1534 9.68466 14.0852C9.8589 14.0152 9.99527 13.9186 10.0938 13.7955C10.1922 13.6705 10.2424 13.5246 10.2443 13.358C10.2424 13.2064 10.1979 13.0814 10.1108 12.983C10.0237 12.8826 9.90152 12.7992 9.74432 12.733C9.58902 12.6648 9.4072 12.6042 9.19886 12.5511L8.53693 12.3807C8.05777 12.2576 7.67898 12.071 7.40057 11.821C7.12405 11.5691 6.9858 11.2348 6.9858 10.8182C6.9858 10.4754 7.0786 10.1752 7.2642 9.91761C7.4517 9.66004 7.70644 9.46023 8.02841 9.31818C8.35038 9.17424 8.71496 9.10227 9.12216 9.10227C9.53504 9.10227 9.89678 9.17424 10.2074 9.31818C10.5199 9.46023 10.7652 9.65814 10.9432 9.91193C11.1212 10.1638 11.2131 10.4536 11.2188 10.7812H10.2045ZM15.9055 9.18182H16.9595V12.983C16.9595 13.3996 16.861 13.7661 16.6641 14.0824C16.469 14.3987 16.1944 14.6458 15.8402 14.8239C15.486 15 15.0722 15.0881 14.5987 15.0881C14.1233 15.0881 13.7086 15 13.3544 14.8239C13.0002 14.6458 12.7256 14.3987 12.5305 14.0824C12.3355 13.7661 12.2379 13.3996 12.2379 12.983V9.18182H13.2919V12.8949C13.2919 13.1373 13.3449 13.3532 13.451 13.5426C13.5589 13.732 13.7105 13.8807 13.9055 13.9886C14.1006 14.0947 14.3317 14.1477 14.5987 14.1477C14.8658 14.1477 15.0968 14.0947 15.2919 13.9886C15.4889 13.8807 15.6404 13.732 15.7464 13.5426C15.8525 13.3532 15.9055 13.1373 15.9055 12.8949V9.18182Z" fill="black"/>
</svg>
