<svg width="24" height="24" viewBox="0 0 24 24" fill="none" xmlns="http://www.w3.org/2000/svg">
<path fill-rule="evenodd" clip-rule="evenodd" d="M11.6201 19.25H4.16937H3.91937V19V5V4.75H4.16937H20.1694H20.4194V5V11.9652C20.9589 12.1817 21.4627 12.4684 21.9194 12.8141V5C21.9194 4.03807 21.1313 3.25 20.1694 3.25H4.16937C3.20744 3.25 2.41937 4.03807 2.41937 5V19C2.41937 19.9619 3.20744 20.75 4.16937 20.75H12.1087C11.888 20.2781 11.7224 19.7754 11.6201 19.25ZM11.9982 15.5C11.8004 15.9742 11.6572 16.4768 11.5764 17H5V15.5H11.9982ZM14.5343 12.5C13.8987 12.9013 13.3376 13.4098 12.8762 14H5V12.5H14.5343ZM6 7H5V8V10V11H6H7H8V10V8V7H7H6ZM6 8H7V9V10H6V9V8ZM9 7H10H18H19V8V10V11H18H10H9V10V8V7ZM11 8H10V9V10H11H17H18V9V8H17H11Z" fill="black"/>
<path fill-rule="evenodd" clip-rule="evenodd" d="M18 23C20.7614 23 23 20.7614 23 18C23 15.2386 20.7614 13 18 13C15.2386 13 13 15.2386 13 18C13 20.7614 15.2386 23 18 23ZM16.5347 20.5L20.4236 18L16.5347 15.5V20.5Z" fill="#666666"/>
</svg>
