<svg width="24" height="24" viewBox="0 0 24 24" fill="none" xmlns="http://www.w3.org/2000/svg">
<path fill-rule="evenodd" clip-rule="evenodd" d="M16.6736 12.2601L16.4369 11.5126C16.5679 11.3506 16.6506 11.1857 16.7333 11.0208L18.0554 10.7458L18.056 9.11993L16.7283 8.84124C16.6565 8.66221 16.5551 8.4911 16.4336 8.33334L16.8598 7.05333L15.4526 6.24083L14.5572 7.25001C14.3598 7.2236 14.1609 7.22137 13.9606 7.24332L13.0648 6.23826L11.657 7.05166L12.0799 8.33412C11.969 8.48278 11.8715 8.65165 11.7982 8.82198L10.4653 9.11569L10.4648 10.7416L11.7964 11.0351C11.8642 11.1993 11.9616 11.3556 12.0644 11.5025L11.6609 12.8082L13.0682 13.6207L13.9823 12.6223C14.1704 12.6433 14.345 12.6441 14.5305 12.6261L14.9311 13.0665C15.4627 12.7167 16.0487 12.4427 16.6736 12.2601ZM12.0428 19.25H4.16937H3.91937V19V5V4.75H4.16937H20.1694H20.4194V5V12.288C20.9518 12.4524 21.4551 12.6833 21.9194 12.971V5C21.9194 4.03807 21.1313 3.25 20.1694 3.25H4.16937C3.20744 3.25 2.41937 4.03807 2.41937 5V19C2.41937 19.9619 3.20744 20.75 4.16937 20.75H12.4C12.2242 20.2737 12.1027 19.7712 12.0428 19.25ZM13.5833 11.1035C12.9359 10.7298 12.7139 9.90103 13.0876 9.25368C13.4614 8.60632 14.2901 8.38427 14.9375 8.75802C15.5848 9.13177 15.8069 9.96049 15.4331 10.6078C15.0594 11.2552 14.2306 11.4773 13.5833 11.1035ZM11.8428 13.9014L10.8937 13.7037C10.8432 13.5745 10.7725 13.4586 10.687 13.3467L10.9948 12.4236L9.9909 11.844L9.35078 12.5628C9.21111 12.5447 9.06061 12.5453 8.92888 12.5568L8.29246 11.8391L7.28208 12.4192L7.58171 13.3302C7.50191 13.4468 7.43691 13.5593 7.38129 13.6773L6.43167 13.8921L6.43454 15.0572L7.38764 15.2697C7.44354 15.3895 7.50486 15.5 7.58098 15.6065L7.27319 16.5296L8.27706 17.1092L8.92656 16.3958C9.05685 16.4085 9.19255 16.4118 9.32429 16.4003L9.9755 17.114L10.9859 16.534L10.6971 15.6042C10.7769 15.4877 10.8419 15.3751 10.8975 15.2571L11.8363 15.0611L11.8428 13.9014ZM8.6519 15.3116C8.19218 15.0462 8.03357 14.4542 8.29899 13.9945C8.5644 13.5348 9.15635 13.3762 9.61606 13.6416C10.0758 13.907 10.2344 14.499 9.96897 14.9587C9.70355 15.4184 9.11161 15.577 8.6519 15.3116Z" fill="black"/>
<path fill-rule="evenodd" clip-rule="evenodd" d="M18 23C20.7614 23 23 20.7614 23 18C23 15.2386 20.7614 13 18 13C15.2386 13 13 15.2386 13 18C13 20.7614 15.2386 23 18 23ZM15.5093 15.4167V16.6895H17.2593V21.2349H18.8161V16.6895H20.5661V15.4167H15.5093Z" fill="black"/>
</svg>
