<svg width="24" height="24" viewBox="0 0 24 24" fill="none" xmlns="http://www.w3.org/2000/svg">
<path fill-rule="evenodd" clip-rule="evenodd" d="M20.1694 19.25H20.4194V19V5V4.75H20.1694H4.16937H3.91937V5V19V19.25H4.16937H20.1694ZM4.16937 3.25H20.1694C21.1313 3.25 21.9194 4.03807 21.9194 5V19C21.9194 19.9619 21.1313 20.75 20.1694 20.75H4.16937C3.20744 20.75 2.41937 19.9619 2.41937 19V5C2.41937 4.03807 3.20744 3.25 4.16937 3.25ZM9 13H5V11.5H9V13ZM5 9H9V7.5H5V9ZM9 17H5V15.5H9V17ZM17.9917 7L19.175 8.18333L15.35 12L13 9.63333L14.175 8.45833L15.35 9.64167L17.9917 7Z" fill="black"/>
</svg>
