<svg width="24" height="24" viewBox="0 0 24 24" fill="none" xmlns="http://www.w3.org/2000/svg">
<path fill-rule="evenodd" clip-rule="evenodd" d="M20.4194 11.9652V5V4.75H20.1694H4.16937H3.91937V5V19V19.25H4.16937H11.6201C11.7224 19.7754 11.888 20.2781 12.1087 20.75H4.16937C3.20744 20.75 2.41937 19.9619 2.41937 19V5C2.41937 4.03807 3.20744 3.25 4.16937 3.25H20.1694C21.1313 3.25 21.9194 4.03807 21.9194 5V12.8141C21.4627 12.4684 20.9589 12.1817 20.4194 11.9652ZM5 13H9V11.5H5V13ZM9 9H5V7.5H9V9ZM5 17H9V15.5H5V17ZM19.175 8.18333L17.9917 7L15.35 9.64167L14.175 8.45833L13 9.63333L15.35 12L19.175 8.18333Z" fill="black"/>
<path fill-rule="evenodd" clip-rule="evenodd" d="M21.753 18.4708L21.7346 18.6146L21.8502 18.7021L22.9938 19.5665C22.9994 19.5725 23.0015 19.5779 23.002 19.5807C23.0024 19.5823 23.0023 19.5833 23.0022 19.5838C23.0022 19.5842 23.002 19.5852 23.0012 19.5869L21.93 21.3928C21.9193 21.407 21.9035 21.4105 21.8923 21.4074L20.5509 20.8845L20.4185 20.8329L20.3064 20.9203C20.0592 21.113 19.7674 21.2709 19.4577 21.4017L19.3282 21.4564L19.3076 21.5955L19.1038 22.9756C19.1033 22.9765 19.1019 22.9788 19.0983 22.9817C19.0918 22.987 19.0848 22.9887 19.0808 22.9887H16.9257C16.919 22.9887 16.9146 22.9876 16.9121 22.9867C16.9095 22.9858 16.9078 22.9847 16.9068 22.9839C16.9052 22.9825 16.9038 22.9807 16.903 22.9773L16.6989 21.5955L16.6774 21.45L16.5398 21.3981C16.2324 21.2822 15.9513 21.1166 15.6856 20.9174L15.574 20.8338L15.4442 20.8848L14.1174 21.4062C14.1031 21.4099 14.0923 21.4084 14.087 21.4066C14.0851 21.406 14.0841 21.4054 14.0837 21.4051C14.0837 21.4051 14.0837 21.4051 14.0837 21.4051C14.0837 21.4051 14.0836 21.405 14.0836 21.4049L14.0836 21.4049L14.0804 21.3995L13.0053 19.5869C13.0045 19.5852 13.0043 19.5842 13.0043 19.5838C13.0042 19.5833 13.0041 19.5823 13.0045 19.5807C13.0051 19.5779 13.0071 19.5724 13.0129 19.5663L14.1464 18.7014L14.261 18.6139L14.2427 18.4708C14.2225 18.3136 14.2124 18.1562 14.2124 17.9881C14.2124 17.82 14.2225 17.6626 14.2427 17.5053L14.261 17.3623L14.1464 17.2748L13.0057 16.4043C13.0039 16.4029 13.0028 16.4018 13.0021 16.401L13.0015 16.4003C13.0016 16.3987 13.0023 16.3951 13.0051 16.3896L14.0765 14.5833C14.0871 14.5692 14.1029 14.5657 14.1141 14.5687L15.4442 15.0914L15.574 15.1424L15.6856 15.0587C15.9459 14.8636 16.2396 14.705 16.5488 14.5744L16.6783 14.5197L16.6989 14.3807L16.9027 13.0006C16.9032 12.9996 16.9046 12.9974 16.9082 12.9945C16.9147 12.9892 16.9217 12.9874 16.9257 12.9874H19.0808C19.0827 12.9874 19.0852 12.9878 19.088 12.9888C19.0893 12.9893 19.0905 12.9899 19.0915 12.9904L19.0921 12.9945L19.2968 14.3807L19.3183 14.5261L19.4559 14.578C19.7633 14.694 20.0444 14.8596 20.3101 15.0587L20.4217 15.1424L20.5515 15.0914L21.8783 14.57C21.8927 14.5663 21.9034 14.5678 21.9087 14.5696C21.9105 14.5702 21.9115 14.5707 21.9119 14.571L21.912 14.571L21.9121 14.5712L21.9121 14.5713L21.9153 14.5767L22.9904 16.3893C22.9912 16.391 22.9914 16.392 22.9914 16.3923L22.9915 16.3931C22.9915 16.3937 22.9915 16.3944 22.9913 16.3954C22.9907 16.3983 22.9886 16.4038 22.9828 16.4099L21.8493 17.2748L21.7262 17.3687L21.7555 17.5208C21.7839 17.6683 21.7941 17.8195 21.7941 17.9881C21.7941 18.1482 21.7748 18.3008 21.753 18.4708ZM14.0837 21.4051C14.0836 21.4051 14.0836 21.405 14.0835 21.405C14.0835 21.405 14.0835 21.405 14.0835 21.405C14.0837 21.4051 14.0838 21.4052 14.0838 21.4053C14.0838 21.4053 14.0838 21.4052 14.0837 21.4051ZM16.1369 17.9881C16.1369 19.0038 16.9769 19.8133 18.0032 19.8133C19.0296 19.8133 19.8696 19.0038 19.8696 17.9881C19.8696 16.9724 19.0296 16.1629 18.0032 16.1629C16.9769 16.1629 16.1369 16.9724 16.1369 17.9881Z" fill="black"/>
</svg>
