<svg width="24" height="24" viewBox="0 0 24 24" fill="none" xmlns="http://www.w3.org/2000/svg">
<path fill-rule="evenodd" clip-rule="evenodd" d="M20.4194 19.25H20.1694H4.16937H3.91937V19V5V4.75H4.16937H20.1694H20.4194V5V19V19.25ZM20.1694 3.25H4.16937C3.20744 3.25 2.41937 4.03807 2.41937 5V19C2.41937 19.9619 3.20744 20.75 4.16937 20.75H20.1694C21.1313 20.75 21.9194 19.9619 21.9194 19V5C21.9194 4.03807 21.1313 3.25 20.1694 3.25ZM18.0554 10.7458L16.7333 11.0208C16.6506 11.1857 16.5679 11.3506 16.4369 11.5126L16.849 12.8138L15.4412 13.6272L14.5305 12.6261C14.345 12.6441 14.1704 12.6433 13.9823 12.6223L13.0682 13.6207L11.6609 12.8082L12.0644 11.5025C11.9616 11.3556 11.8642 11.1993 11.7964 11.0351L10.4648 10.7416L10.4653 9.11569L11.7982 8.82198C11.8715 8.65165 11.969 8.48278 12.0799 8.33412L11.657 7.05167L13.0648 6.23827L13.9606 7.24333C14.1609 7.22138 14.3598 7.22361 14.5572 7.25002L15.4526 6.24083L16.8598 7.05334L16.4336 8.33335C16.5551 8.49111 16.6565 8.66221 16.7283 8.84124L18.056 9.11993L18.0554 10.7458ZM13.0876 9.25368C12.7139 9.90104 12.9359 10.7298 13.5833 11.1035C14.2306 11.4773 15.0594 11.2552 15.4331 10.6078C15.8069 9.96049 15.5848 9.13177 14.9375 8.75802C14.2901 8.38427 13.4614 8.60633 13.0876 9.25368ZM10.8937 13.7037L11.8428 13.9015L11.8363 15.0611L10.8975 15.2571C10.8419 15.3751 10.7769 15.4877 10.6971 15.6042L10.9859 16.534L9.9755 17.114L9.32429 16.4003C9.19255 16.4118 9.05685 16.4085 8.92656 16.3959L8.27706 17.1092L7.27319 16.5296L7.58098 15.6065C7.50486 15.5 7.44354 15.3895 7.38764 15.2697L6.43454 15.0572L6.43167 13.8921L7.38129 13.6773C7.43691 13.5593 7.50191 13.4468 7.58171 13.3302L7.28208 12.4192L8.29246 11.8392L8.92888 12.5568C9.06061 12.5453 9.21111 12.5447 9.35078 12.5628L9.9909 11.844L10.9948 12.4236L10.687 13.3467C10.7725 13.4586 10.8432 13.5745 10.8937 13.7037ZM8.29899 13.9945C8.03357 14.4542 8.19218 15.0462 8.6519 15.3116C9.11161 15.577 9.70355 15.4184 9.96897 14.9587C10.2344 14.499 10.0758 13.907 9.61606 13.6416C9.15635 13.3762 8.5644 13.5348 8.29899 13.9945Z" fill="black"/>
</svg>
