<svg width="24" height="24" viewBox="0 0 24 24" fill="none" xmlns="http://www.w3.org/2000/svg">
<path fill-rule="evenodd" clip-rule="evenodd" d="M20.4194 19.25H20.1694H4.16937H3.91937V19V5V4.75H4.16937H20.1694H20.4194V5V19V19.25ZM20.1694 3.25H4.16937C3.20744 3.25 2.41937 4.03807 2.41937 5V19C2.41937 19.9619 3.20744 20.75 4.16937 20.75H20.1694C21.1313 20.75 21.9194 19.9619 21.9194 19V5C21.9194 4.03807 21.1313 3.25 20.1694 3.25ZM8 7H5V11H8V7ZM6 8H7V10H6V8ZM5 14V12.5H15V14H5ZM5 17V15.5H15V17H5ZM9 7H19V11H9V7ZM10 8V10H18V8H10Z" fill="black"/>
</svg>
