<svg width="24" height="24" viewBox="0 0 24 24" fill="none" xmlns="http://www.w3.org/2000/svg">
<path d="M10.679 9.18182H11.733V12.983C11.733 13.3996 11.6345 13.7661 11.4375 14.0824C11.2424 14.3987 10.9678 14.6458 10.6136 14.8239C10.2595 15 9.84564 15.0881 9.37216 15.0881C8.89678 15.0881 8.48201 15 8.12784 14.8239C7.77367 14.6458 7.49905 14.3987 7.30398 14.0824C7.1089 13.7661 7.01136 13.3996 7.01136 12.983V9.18182H8.06534V12.8949C8.06534 13.1373 8.11837 13.3532 8.22443 13.5426C8.33239 13.732 8.4839 13.8807 8.67898 13.9886C8.87405 14.0947 9.10511 14.1477 9.37216 14.1477C9.6392 14.1477 9.87027 14.0947 10.0653 13.9886C10.2623 13.8807 10.4138 13.732 10.5199 13.5426C10.6259 13.3532 10.679 13.1373 10.679 12.8949V9.18182ZM12.8786 15V9.18182H15.1058C15.5263 9.18182 15.8757 9.24811 16.1541 9.38068C16.4344 9.51136 16.6437 9.69034 16.782 9.91761C16.9221 10.1449 16.9922 10.4025 16.9922 10.6903C16.9922 10.9271 16.9467 11.1297 16.8558 11.2983C16.7649 11.465 16.6428 11.6004 16.4893 11.7045C16.3359 11.8087 16.1645 11.8835 15.9751 11.929V11.9858C16.1816 11.9972 16.3795 12.0606 16.5689 12.1761C16.7602 12.2898 16.9164 12.4508 17.0376 12.6591C17.1589 12.8674 17.2195 13.1193 17.2195 13.4148C17.2195 13.7159 17.1465 13.9867 17.0007 14.2273C16.8549 14.4659 16.6352 14.6544 16.3416 14.7926C16.0481 14.9309 15.6787 15 15.2337 15H12.8786ZM13.9325 14.1193H15.0661C15.4486 14.1193 15.7242 14.0464 15.8928 13.9006C16.0632 13.7528 16.1484 13.5634 16.1484 13.3324C16.1484 13.16 16.1058 13.0047 16.0206 12.8665C15.9354 12.7263 15.8142 12.6165 15.657 12.5369C15.4998 12.4555 15.3123 12.4148 15.0945 12.4148H13.9325V14.1193ZM13.9325 11.6562H14.9751C15.157 11.6562 15.3208 11.6231 15.4666 11.5568C15.6125 11.4886 15.727 11.393 15.8104 11.2699C15.8956 11.1449 15.9382 10.9972 15.9382 10.8267C15.9382 10.6013 15.8587 10.4157 15.6996 10.2699C15.5424 10.1241 15.3085 10.0511 14.9979 10.0511H13.9325V11.6562Z" fill="black"/>
</svg>
