<svg width="24" height="24" viewBox="0 0 24 24" fill="none" xmlns="http://www.w3.org/2000/svg">
<path d="M10.4094 9.18182H11.4634V12.983C11.4634 13.3996 11.3649 13.7661 11.168 14.0824C10.9729 14.3987 10.6983 14.6458 10.3441 14.8239C9.98994 15 9.57611 15.0881 9.10263 15.0881C8.62725 15.0881 8.21248 15 7.85831 14.8239C7.50414 14.6458 7.22952 14.3987 7.03445 14.0824C6.83937 13.7661 6.74183 13.3996 6.74183 12.983V9.18182H7.79581V12.8949C7.79581 13.1373 7.84884 13.3532 7.9549 13.5426C8.06286 13.732 8.21437 13.8807 8.40945 13.9886C8.60452 14.0947 8.83558 14.1477 9.10263 14.1477C9.36967 14.1477 9.60073 14.0947 9.79581 13.9886C9.99278 13.8807 10.1443 13.732 10.2504 13.5426C10.3564 13.3532 10.4094 13.1373 10.4094 12.8949V9.18182ZM14.5806 15H12.609V9.18182H14.6204C15.198 9.18182 15.6942 9.2983 16.109 9.53125C16.5257 9.76231 16.8458 10.0947 17.0692 10.5284C17.2927 10.9621 17.4045 11.4811 17.4045 12.0852C17.4045 12.6913 17.2918 13.2121 17.0664 13.6477C16.8429 14.0833 16.52 14.4176 16.0977 14.6506C15.6772 14.8835 15.1715 15 14.5806 15ZM13.663 14.0881H14.5295C14.9348 14.0881 15.2728 14.0142 15.5437 13.8665C15.8145 13.7169 16.0181 13.4943 16.1545 13.1989C16.2908 12.9015 16.359 12.5303 16.359 12.0852C16.359 11.6402 16.2908 11.2708 16.1545 10.9773C16.0181 10.6818 15.8164 10.4612 15.5494 10.3153C15.2842 10.1676 14.9547 10.0938 14.5607 10.0938H13.663V14.0881Z" fill="black"/>
</svg>
