<svg width="24" height="24" viewBox="0 0 24 24" fill="none" xmlns="http://www.w3.org/2000/svg">
<path d="M12.2102 9.18182H13.2642V12.983C13.2642 13.3996 13.1657 13.7661 12.9688 14.0824C12.7737 14.3987 12.4991 14.6458 12.1449 14.8239C11.7907 15 11.3769 15.0881 10.9034 15.0881C10.428 15.0881 10.0133 15 9.65909 14.8239C9.30492 14.6458 9.0303 14.3987 8.83523 14.0824C8.64015 13.7661 8.54261 13.3996 8.54261 12.983V9.18182H9.59659V12.8949C9.59659 13.1373 9.64962 13.3532 9.75568 13.5426C9.86364 13.732 10.0152 13.8807 10.2102 13.9886C10.4053 14.0947 10.6364 14.1477 10.9034 14.1477C11.1705 14.1477 11.4015 14.0947 11.5966 13.9886C11.7936 13.8807 11.9451 13.732 12.0511 13.5426C12.1572 13.3532 12.2102 13.1373 12.2102 12.8949V9.18182ZM15.4638 9.18182V15H14.4098V9.18182H15.4638Z" fill="black"/>
</svg>
