<svg width="24" height="24" viewBox="0 0 24 24" fill="none" xmlns="http://www.w3.org/2000/svg">
<path d="M15.9309 21.0332L13.6266 18.7289L12.842 19.5081L15.9309 22.597L22.5617 15.9661L21.7826 15.187L15.9309 21.0332Z" fill="black"/>
<path fill-rule="evenodd" clip-rule="evenodd" d="M11.0609 9.99999C12.4416 9.99999 13.5609 8.8807 13.5609 7.49999C13.5609 6.11929 12.4416 5 11.0609 5C9.68019 5 8.5609 6.11929 8.5609 7.49999C8.5609 8.8807 9.68019 9.99999 11.0609 9.99999ZM11.0609 11.5C13.27 11.5 15.0609 9.70913 15.0609 7.49999C15.0609 5.29086 13.27 3.5 11.0609 3.5C8.85176 3.5 7.0609 5.29086 7.0609 7.49999C7.0609 9.70913 8.85176 11.5 11.0609 11.5ZM16.3488 14.3914C14.8657 13.7463 13.038 13.3655 11.0609 13.3655C6.10366 13.3655 2.08502 15.7594 2.08502 18.7125C2.08502 18.98 2.11801 19.243 2.1817 19.5H11.2402L12.7402 18H3.73477C3.97322 17.4234 4.51406 16.7967 5.48167 16.2203C6.83649 15.4132 8.80552 14.8655 11.0609 14.8655C12.6088 14.8655 14.0218 15.1235 15.194 15.5462L16.3488 14.3914Z" fill="black"/>
</svg>
