<svg width="24" height="24" viewBox="0 0 24 24" fill="none" xmlns="http://www.w3.org/2000/svg">
<path fill-rule="evenodd" clip-rule="evenodd" d="M21.0445 12.1099L21.0984 12L21.0445 11.8901C19.3528 8.43475 15.8859 6.25 12 6.25C8.1141 6.25 4.64724 8.43475 2.95547 11.8901L2.90164 12L2.95547 12.1099C4.64724 15.5653 8.1141 17.75 12 17.75C15.8859 17.75 19.3528 15.5653 21.0445 12.1099ZM12 19.25C16.8586 19.25 21.014 16.2496 22.7308 12C21.014 7.75039 16.8586 4.75 12 4.75C7.14137 4.75 2.98595 7.75039 1.26917 12C2.98595 16.2496 7.14137 19.25 12 19.25ZM14.75 12C14.75 10.4819 13.5181 9.25 12 9.25C10.4819 9.25 9.25 10.4819 9.25 12C9.25 13.5181 10.4819 14.75 12 14.75C13.5181 14.75 14.75 13.5181 14.75 12ZM7.75 12C7.75 9.65807 9.65807 7.75 12 7.75C14.3419 7.75 16.25 9.65807 16.25 12C16.25 14.3419 14.3419 16.25 12 16.25C9.65807 16.25 7.75 14.3419 7.75 12Z" fill="black"/>
</svg>
