<svg width="24" height="24" viewBox="0 0 24 24" fill="none" xmlns="http://www.w3.org/2000/svg">
<rect opacity="0.25" x="2.87903" y="4.75" width="18.2419" height="14.5" rx="2" fill="black"/>
<path fill-rule="evenodd" clip-rule="evenodd" d="M4.00122 6.00006L4.00122 17.75L4.00122 18V6.00006ZM19.9988 18.2499L20.2488 18.2499V17.9999V6V5.75L19.9988 5.75L4.00122 5.75006L3.75122 5.75006V6.00006V18V18.25L4.00122 18.25L19.9988 18.2499ZM4.00122 4.25006L19.9988 4.25C20.9615 4.25 21.75 5.03822 21.75 6V17.9999C21.75 18.9617 20.9615 19.7499 19.9988 19.7499L4.00122 19.75C3.03848 19.75 2.25 18.9618 2.25 18V6.00006C2.25 5.03828 3.03848 4.25006 4.00122 4.25006Z" fill="black"/>
<path d="M8.4272 9.18182L9.70845 11.3125H9.75391L11.0408 9.18182H12.2425L10.4499 12.0909L12.271 15H11.0494L9.75391 12.8835H9.70845L8.413 15H7.19709L9.03516 12.0909L7.21982 9.18182H8.4272ZM13.07 15V9.18182H14.1239V14.1165H16.6864V15H13.07Z" fill="black"/>
</svg>
