<svg width="24" height="24" viewBox="0 0 24 24" fill="none" xmlns="http://www.w3.org/2000/svg">
<path fill-rule="evenodd" clip-rule="evenodd" d="M19.6518 11.4668L19.8284 11.2902L19.652 11.1134L15.2484 6.70022L16.305 5.64358L21.9515 11.29L18.7156 14.5258L17.6579 13.4606L19.6518 11.4668ZM4.95805 11.4666L9.36165 15.8798L8.30502 16.9365L2.65832 11.2898L6.06204 7.87656L6.23832 7.69978L6.06179 7.52325L2.04919 3.51065L3.11434 2.453L21.1415 20.49L20.085 21.5465L7.48179 8.94325L7.30502 8.76647L7.12824 8.94325L4.95824 11.1132L4.78165 11.2898L4.95805 11.4666Z" fill="black"/>
<path d="M7.53693 10.1191L8.27024 11.3585H8.29865L9.03551 10.1191H9.90376L8.79403 11.9373L9.92862 13.7555H9.04439L8.29865 12.5144H8.27024L7.5245 13.7555H6.64382L7.78196 11.9373L6.66513 10.1191H7.53693ZM10.3903 10.1191H11.3384L12.3398 12.5623H12.3825L13.3839 10.1191H14.332V13.7555H13.5863V11.3887H13.5561L12.6151 13.7377H12.1072L11.1662 11.3798H11.136V13.7555H10.3903V10.1191ZM14.9655 13.7555V10.1191H15.7343V13.1216H17.2932V13.7555H14.9655Z" fill="black"/>
</svg>
