<svg width="24" height="24" viewBox="0 0 24 24" fill="none" xmlns="http://www.w3.org/2000/svg">
<path fill-rule="evenodd" clip-rule="evenodd" d="M8.00002 17.6464L9.04647 16.6L4.62325 12.1767L4.44647 12L4.62325 11.8232L9.04647 7.39996L8.00002 6.35352L2.35358 12L8.00002 17.6464ZM19.3768 11.8232L14.9536 7.39996L16 6.35352L21.6465 12L16 17.6464L14.9536 16.6L19.3768 12.1767L19.5536 12L19.3768 11.8232Z" fill="black"/>
<path d="M7.53693 10.1191L8.27024 11.3585H8.29865L9.03551 10.1191H9.90376L8.79403 11.9373L9.92862 13.7555H9.04439L8.29865 12.5144H8.27024L7.5245 13.7555H6.64382L7.78196 11.9373L6.66513 10.1191H7.53693ZM10.3903 10.1191H11.3384L12.3398 12.5623H12.3825L13.3839 10.1191H14.332V13.7555H13.5863V11.3887H13.5561L12.6151 13.7377H12.1072L11.1662 11.3798H11.136V13.7555H10.3903V10.1191ZM14.9655 13.7555V10.1191H15.7343V13.1216H17.2932V13.7555H14.9655Z" fill="black"/>
</svg>
